<svg width="166" height="166" viewBox="0 0 166 166" fill="none" xmlns="http://www.w3.org/2000/svg">
<path fill-rule="evenodd" clip-rule="evenodd" d="M0 6.51069C0 2.91494 2.91494 0 6.51069 0H159.489C163.085 0 166 2.91494 166 6.51069V159.489C166 163.085 163.085 166 159.489 166H6.51069C2.91494 166 0 163.085 0 159.489V6.51069Z" fill="#F7F8F9"/>
<path fill-rule="evenodd" clip-rule="evenodd" d="M87.5676 141.192H97.1677V150.792H87.5676V141.192ZM68.3512 69.1269V16.2939H15.5182V69.1432H25.1183V78.7432H34.7184V69.1432H68.3512V69.1269ZM25.1186 59.5271V25.8943H58.7514V59.5271H25.1186ZM34.7346 35.494H49.151V49.9104H34.7346V35.494ZM97.1836 16.2939V69.1432H150.033V16.2939H97.1836ZM140.417 59.5271H106.784V25.8943H140.417V59.5271ZM116.401 35.494H130.817V49.9104H116.401V35.494ZM34.7346 117.159H49.151V131.576H34.7346V117.159ZM15.5184 78.7435H25.1184V88.3436H15.5184V78.7435ZM34.7346 78.7435H44.351V88.3436H34.7346V78.7435ZM44.3349 97.9432H15.5184V150.792H68.3676V97.9432H53.9512V88.3431H44.3511V97.9432H44.3349ZM58.7514 107.56V141.193H25.1186V107.56H58.7514ZM77.9673 21.0938H87.5674V35.5101H77.9673V21.0938ZM77.9673 45.1103H87.5674V54.7104H77.9673V45.1103ZM106.784 78.7434H87.5675V64.327H77.9674V78.7434H53.9509V88.3435H97.1838V97.9435H106.784V78.7434ZM106.784 97.9435H116.4V107.544H106.784V97.9435ZM77.9673 97.9435H87.5674V112.36H77.9673V97.9435ZM77.9673 121.976H87.5674V141.192H77.9673V121.976ZM97.1836 112.36H106.784V141.192H97.1836V112.36ZM126 97.9435H150.017V107.544H126V97.9435ZM140.417 78.7435H150.017V88.3436H140.417V78.7435ZM116.401 78.7435H135.617V88.3436H116.401V78.7435ZM116.401 112.36H126.001V121.96H116.401V112.36ZM140.417 121.976H135.617V131.576H145.217V121.976H150.017V112.376H140.417V121.976ZM116.401 131.576H126.001V141.193H116.401V131.576ZM126 141.192H150.017V150.792H126V141.192Z" fill="black"/>
</svg>
