<svg width="263" height="46" viewBox="0 0 263 46" fill="none" xmlns="http://www.w3.org/2000/svg">
<path d="M10.8564 20.1586C12.9763 20.1586 14.7001 20.6297 16.0277 21.5719C17.3553 22.4927 18.0191 24.0558 18.0191 26.2614C18.0191 27.0751 17.8264 27.8138 17.441 28.4776C17.0769 29.12 16.5951 29.6768 15.9956 30.1479C16.9806 30.6618 17.7836 31.3577 18.4045 32.2356C19.0469 33.1136 19.3681 34.227 19.3681 35.5761C19.3681 37.5889 18.6615 39.1628 17.2482 40.2977C15.8564 41.4326 13.9935 42 11.6594 42H2.69805V20.1586H10.8564ZM10.2462 23.6276H6.84148V29.0558H9.92497C11.0813 29.0558 11.9806 28.8417 12.623 28.4134C13.2868 27.9637 13.6187 27.2678 13.6187 26.3256C13.6187 25.2978 13.3189 24.5912 12.7194 24.2057C12.1198 23.8203 11.2954 23.6276 10.2462 23.6276ZM11.6273 32.4283H6.84148V38.5632H11.3382C12.4517 38.5632 13.3404 38.3062 14.0042 37.7923C14.6894 37.2784 15.032 36.5504 15.032 35.6082C15.032 34.5804 14.7215 33.7988 14.1005 33.2635C13.4795 32.7067 12.6551 32.4283 11.6273 32.4283ZM26.9602 19.3235V42H22.8167V19.6769L26.9602 19.3235ZM67.3004 29.5697C66.1227 29.5697 65.2019 30.0194 64.5381 30.9187C63.8743 31.7967 63.5424 32.8994 63.5424 34.227C63.5424 35.5761 63.8743 36.6788 64.5381 37.5354C65.2019 38.3919 66.1227 38.8202 67.3004 38.8202C68.0285 38.8202 68.6816 38.7345 69.2597 38.5632C69.8593 38.3705 70.5338 38.1028 71.2833 37.7602L72.4717 40.7795C71.7436 41.3362 70.855 41.743 69.8058 42C68.7779 42.257 67.9321 42.3854 67.2683 42.3854C64.7416 42.3854 62.7716 41.6467 61.3583 40.1692C59.945 38.6917 59.2384 36.711 59.2384 34.227C59.2384 31.7431 59.945 29.7517 61.3583 28.2528C62.7716 26.7539 64.7416 26.0044 67.2683 26.0044C67.9321 26.0044 68.7672 26.1436 69.7736 26.422C70.8015 26.7003 71.7008 27.1072 72.4717 27.6425L71.2833 30.6296C70.5338 30.287 69.8593 30.0301 69.2597 29.8588C68.6816 29.6661 68.0285 29.5697 67.3004 29.5697ZM79.5485 19.3235V32.1072L86.2294 25.9723L88.5742 28.9273L84.2059 32.7495L89.9232 42H85.1374L81.2188 35.4155L79.5485 36.893V42H75.4051V19.6769L79.5485 19.3235ZM99.2168 29.5697C98.0391 29.5697 97.1183 30.0194 96.4545 30.9187C95.7907 31.7967 95.4588 32.8994 95.4588 34.227C95.4588 35.5761 95.7907 36.6788 96.4545 37.5354C97.1183 38.3919 98.0391 38.8202 99.2168 38.8202C99.9448 38.8202 100.598 38.7345 101.176 38.5632C101.776 38.3705 102.45 38.1028 103.2 37.7602L104.388 40.7795C103.66 41.3362 102.771 41.743 101.722 42C100.694 42.257 99.8485 42.3854 99.1847 42.3854C96.6579 42.3854 94.6879 41.6467 93.2747 40.1692C91.8614 38.6917 91.1548 36.711 91.1548 34.227C91.1548 31.7431 91.8614 29.7517 93.2747 28.2528C94.6879 26.7539 96.6579 26.0044 99.1847 26.0044C99.8485 26.0044 100.684 26.1436 101.69 26.422C102.718 26.7003 103.617 27.1072 104.388 27.6425L103.2 30.6296C102.45 30.287 101.776 30.0301 101.176 29.8588C100.598 29.6661 99.9448 29.5697 99.2168 29.5697ZM111.465 27.4498C112.15 26.9145 112.932 26.5076 113.81 26.2293C114.709 25.9509 115.512 25.8117 116.219 25.8117C118.339 25.8117 119.837 26.4327 120.715 27.6746C121.615 28.9166 122.064 30.4369 122.064 32.2356V42H117.889V32.4283C117.889 31.4433 117.653 30.6939 117.182 30.18C116.711 29.6446 116.015 29.377 115.094 29.377C114.495 29.377 113.874 29.5376 113.231 29.8588C112.589 30.1586 112 30.5119 111.465 30.9187V42H107.321V19.6769L111.465 19.3235V27.4498ZM128.68 37.3427C128.68 37.7923 128.862 38.1992 129.226 38.5632C129.59 38.9058 130.072 39.0771 130.671 39.0771C131.249 39.0771 131.828 38.9486 132.406 38.6917C133.005 38.4347 133.573 38.0493 134.108 37.5354V35.1585H130.96C130.232 35.1585 129.665 35.3834 129.258 35.833C128.873 36.2827 128.68 36.7859 128.68 37.3427ZM130.735 42.3854C128.83 42.3854 127.416 41.9251 126.496 41.0043C125.575 40.0621 125.115 38.8416 125.115 37.3427C125.115 35.7367 125.661 34.5054 126.753 33.6489C127.845 32.7924 129.269 32.3641 131.025 32.3641H134.076C134.054 31.5718 133.819 30.9616 133.369 30.5333C132.941 30.0836 132.341 29.8588 131.571 29.8588C130.843 29.8588 130.05 29.9658 129.194 30.18C128.337 30.3727 127.62 30.6082 127.042 30.8866L125.917 27.4177C126.517 27.0108 127.427 26.6789 128.648 26.422C129.89 26.1436 130.843 26.0044 131.506 26.0044C133.369 26.0044 134.965 26.5505 136.292 27.6425C137.62 28.7132 138.284 30.0836 138.284 31.7538V42H136.132L135.104 40.6831C134.526 41.1328 133.84 41.5289 133.048 41.8715C132.277 42.2141 131.506 42.3854 130.735 42.3854ZM143.892 19.5163C144.556 19.5163 145.113 19.7411 145.563 20.1908C146.034 20.6404 146.269 21.1972 146.269 21.861C146.269 22.5248 146.034 23.0815 145.563 23.5312C145.113 23.9809 144.556 24.2057 143.892 24.2057C143.25 24.2057 142.704 23.9809 142.254 23.5312C141.805 23.0815 141.58 22.5248 141.58 21.861C141.58 21.1972 141.805 20.6404 142.254 20.1908C142.704 19.7411 143.25 19.5163 143.892 19.5163ZM145.98 26.422V42H141.805V26.422H145.98ZM153.138 28.0922C153.845 27.3856 154.723 26.8288 155.772 26.422C156.843 26.0151 157.796 25.8117 158.631 25.8117C160.751 25.8117 162.25 26.4327 163.128 27.6746C164.027 28.9166 164.477 30.4369 164.477 32.2356V42H160.301V32.4283C160.301 31.4433 160.066 30.6939 159.594 30.18C159.123 29.6446 158.438 29.377 157.539 29.377C156.939 29.377 156.308 29.5376 155.644 29.8588C155.001 30.1586 154.412 30.5119 153.877 30.9187V42H149.702V26.422H151.886L153.138 28.0922Z" fill="#002060"/>
<path d="M189.511 24.1094C188.483 23.7882 187.669 23.5633 187.07 23.4349C186.47 23.285 185.742 23.21 184.886 23.21C183.151 23.21 181.813 23.9166 180.871 25.3299C179.928 26.7432 179.457 28.6811 179.457 31.1436C179.457 33.2635 179.854 35.0943 180.646 36.636C181.438 38.1778 182.766 38.9486 184.629 38.9486C185.549 38.9486 186.406 38.8523 187.198 38.6596C188.012 38.4668 188.751 38.2313 189.414 37.9529L190.988 41.0364C190.153 41.4647 189.147 41.8073 187.969 42.0642C186.791 42.3212 185.753 42.4497 184.854 42.4497C181.449 42.4497 178.976 41.3576 177.434 39.1735C175.892 36.9893 175.121 34.3234 175.121 31.1757C175.121 27.8138 175.967 25.0622 177.659 22.9209C179.372 20.7796 181.824 19.709 185.014 19.709C185.656 19.709 186.545 19.816 187.68 20.0302C188.815 20.2443 189.853 20.6083 190.796 21.1222L189.511 24.1094ZM197.116 37.3427C197.116 37.7923 197.298 38.1992 197.662 38.5632C198.026 38.9058 198.508 39.0771 199.107 39.0771C199.686 39.0771 200.264 38.9486 200.842 38.6917C201.441 38.4347 202.009 38.0493 202.544 37.5354V35.1585H199.396C198.668 35.1585 198.101 35.3834 197.694 35.833C197.309 36.2827 197.116 36.7859 197.116 37.3427ZM199.172 42.3854C197.266 42.3854 195.853 41.9251 194.932 41.0043C194.011 40.0621 193.551 38.8416 193.551 37.3427C193.551 35.7367 194.097 34.5054 195.189 33.6489C196.281 32.7924 197.705 32.3641 199.461 32.3641H202.512C202.491 31.5718 202.255 30.9616 201.805 30.5333C201.377 30.0836 200.778 29.8588 200.007 29.8588C199.279 29.8588 198.486 29.9658 197.63 30.18C196.773 30.3727 196.056 30.6082 195.478 30.8866L194.354 27.4177C194.953 27.0108 195.863 26.6789 197.084 26.422C198.326 26.1436 199.279 26.0044 199.942 26.0044C201.805 26.0044 203.401 26.5505 204.728 27.6425C206.056 28.7132 206.72 30.0836 206.72 31.7538V42H204.568L203.54 40.6831C202.962 41.1328 202.276 41.5289 201.484 41.8715C200.713 42.2141 199.942 42.3854 199.172 42.3854ZM210.851 25.2657C210.851 23.467 211.376 22.0537 212.425 21.0259C213.496 19.9766 214.995 19.452 216.922 19.452C217.414 19.452 217.971 19.5484 218.592 19.7411C219.213 19.9338 219.695 20.1694 220.037 20.4477L218.849 23.467C218.528 23.3385 218.217 23.2421 217.917 23.1779C217.639 23.0922 217.371 23.0494 217.114 23.0494C216.386 23.0494 215.851 23.3171 215.508 23.8524C215.187 24.3663 215.027 25.0301 215.027 25.8438V26.7432H217.982L219.299 29.9873H215.027V42H210.851V29.9873H208.442V26.7432H210.851V25.2657ZM229.932 42.3854C227.234 42.3854 225.104 41.6467 223.541 40.1692C221.999 38.6917 221.228 36.711 221.228 34.227C221.228 31.7431 221.924 29.7517 223.316 28.2528C224.729 26.7539 226.646 26.0044 229.065 26.0044C231.506 26.0044 233.294 26.8181 234.429 28.4455C235.585 30.0515 236.164 31.9573 236.164 34.1628V35.4476H225.661C225.853 36.4754 226.324 37.2998 227.074 37.9208C227.823 38.5204 228.808 38.8202 230.029 38.8202C230.735 38.8202 231.367 38.7345 231.924 38.5632C232.502 38.3705 233.166 38.1028 233.915 37.7602L235.136 40.7795C234.408 41.3362 233.519 41.743 232.47 42C231.442 42.257 230.596 42.3854 229.932 42.3854ZM232.213 32.6532C231.999 31.6039 231.613 30.8331 231.057 30.3406C230.5 29.8267 229.804 29.5697 228.969 29.5697C228.112 29.5697 227.395 29.8374 226.817 30.3727C226.239 30.8866 225.864 31.6468 225.693 32.6532H232.213Z" fill="#4E87F7"/>
<path d="M49.5753 39.6427C50.3231 39.6427 50.9677 39.6169 51.6123 39.6513C51.9303 39.6685 52.2655 39.7459 52.5578 39.8834C53.168 40.1756 53.4087 40.8031 53.2626 41.525C53.1508 42.0665 52.5664 42.5736 51.9733 42.6252C51.8444 42.6338 51.7155 42.6338 51.5865 42.6338C48.2603 42.6338 44.9426 42.6338 41.6163 42.6338C39.3129 42.6338 37.0094 42.6338 34.7059 42.6338C34.0957 42.6338 33.623 42.4103 33.3049 41.8774C32.9268 41.25 33.0471 40.1584 33.9925 39.7974C34.2762 39.6857 34.6028 39.6341 34.9122 39.6341C37.2329 39.6169 39.5535 39.6083 41.8742 39.6341C42.7251 39.6427 43.576 39.5654 44.3581 39.2903C45.6732 38.8348 46.8593 38.1386 47.8563 37.1244C48.9651 35.9898 49.7214 34.6662 50.0996 33.1449C50.4176 31.8642 50.4348 30.5406 50.3746 29.217C50.3746 29.131 50.2457 29.0193 50.1512 28.9763C50.0566 28.9333 49.9277 28.9591 49.8074 28.9591C45.4067 28.9591 41.0147 28.9591 36.614 28.9591C36.5539 28.9591 36.5023 28.9591 36.4421 28.9591C36.021 28.9677 36.021 28.9763 36.0038 29.3975C35.9608 30.6008 36.021 31.8041 36.2616 32.9902C36.4593 33.9442 36.8547 34.8381 37.3704 35.6632C38.0236 36.686 37.7142 37.6573 36.5968 38.0698C36.0811 38.2589 35.342 37.9839 34.9982 37.4338C34.2332 36.2219 33.6573 34.9327 33.3565 33.5059C33.176 32.655 33.1245 31.8127 33.1245 30.9532C33.1245 29.81 33.1588 28.6583 33.1159 27.5152C33.0815 26.5955 33.8035 26.0454 34.6114 25.9595C34.7661 25.9423 34.9294 25.9509 35.0841 25.9509C40.5591 25.9509 46.0256 25.9509 51.5006 25.9423C51.9733 25.9423 52.4116 26.0454 52.7812 26.3377C53.0907 26.5783 53.2797 26.8877 53.2712 27.2917C53.2712 28.9248 53.3313 30.5578 53.2368 32.1909C53.1422 33.7895 52.6265 35.2937 51.8272 36.6946C51.2599 37.6831 50.5809 38.5769 49.7644 39.3591C49.7214 39.4364 49.687 39.4966 49.5753 39.6427Z" fill="#002060"/>
<path d="M44.5677 28.9668C44.3675 28.6647 44.1578 28.3658 43.9703 28.0541C43.6589 27.5302 43.4333 26.9646 43.3157 26.3637C43.2108 25.8141 43.1886 25.2613 43.268 24.7022C43.4047 23.7316 43.7415 22.8318 44.2023 21.9833C44.7838 20.9164 45.4066 19.8687 46.0009 18.8082C46.4362 18.0337 46.8207 17.2334 47.0749 16.3722C47.3164 15.5494 47.3927 14.7107 47.2529 13.8654C47.1862 13.4605 47.0495 13.0652 46.9415 12.6442C47.0527 12.7985 47.1639 12.9399 47.2624 13.0909C47.6565 13.6758 47.9679 14.3057 48.1363 14.9967C48.3142 15.7294 48.3206 16.4686 48.1776 17.2077C47.9933 18.1622 47.6183 19.0428 47.1544 19.8816C46.5919 20.8939 45.9977 21.8869 45.4289 22.8992C45.0412 23.5902 44.7044 24.3101 44.466 25.0685C44.2086 25.8784 44.1006 26.7139 44.2086 27.5527C44.2658 27.9962 44.4438 28.4237 44.5677 28.8607C44.5772 28.8896 44.59 28.9154 44.6027 28.9443C44.59 28.9539 44.5772 28.9603 44.5677 28.9668Z" fill="#002060"/>
<path d="M48.9629 19.5411C48.9629 19.945 48.9755 20.349 48.9597 20.7529C48.9123 22.0266 48.3872 23.1049 47.6692 24.1083C47.2738 24.6588 46.8879 25.2191 46.5337 25.7957C46.2047 26.3267 46.0023 26.9229 45.8821 27.5874C45.8536 27.5157 45.8283 27.4766 45.8188 27.4376C45.6607 26.6622 45.7714 25.9162 46.1541 25.2387C46.5621 24.5187 47.0176 23.8249 47.4636 23.1245C47.8653 22.4892 48.2512 21.8475 48.5232 21.1406C48.7067 20.6617 48.8395 20.1665 48.9028 19.6518C48.906 19.616 48.9123 19.5802 48.9154 19.5411C48.9313 19.5411 48.9471 19.5411 48.9629 19.5411Z" fill="#002060"/>
<path d="M41.7081 28.8182C41.4546 28.4423 41.189 28.0703 40.9516 27.6824C40.5572 27.0305 40.2715 26.3267 40.1226 25.5788C39.9898 24.895 39.9616 24.2071 40.0622 23.5112C40.2353 22.3035 40.6618 21.1837 41.2453 20.1279C41.9818 18.8001 42.7705 17.4964 43.523 16.1766C44.0743 15.2128 44.5612 14.217 44.8832 13.1452C45.189 12.1214 45.2856 11.0776 45.1085 10.0258C45.024 9.52192 44.851 9.03002 44.7141 8.50612C44.855 8.69808 44.9958 8.87405 45.1206 9.06201C45.6196 9.78987 46.0139 10.5737 46.2272 11.4336C46.4526 12.3454 46.4606 13.2652 46.2795 14.185C46.0461 15.3728 45.5713 16.4686 44.9838 17.5124C44.2715 18.7721 43.519 20.0079 42.7987 21.2677C42.3077 22.1275 41.8812 23.0233 41.5793 23.9671C41.2534 24.9749 41.1166 26.0147 41.2534 27.0585C41.3258 27.6104 41.5512 28.1423 41.7081 28.6862C41.7202 28.7222 41.7363 28.7542 41.7524 28.7902C41.7363 28.8022 41.7202 28.8102 41.7081 28.8182Z" fill="#002060"/>
</svg>
