<?xml version="1.0" encoding="UTF-8"?>
<svg width="235px" height="35px" viewBox="0 0 235 35" version="1.1" xmlns="http://www.w3.org/2000/svg" xmlns:xlink="http://www.w3.org/1999/xlink">
    <!-- Generator: Sketch 56.2 (81672) - https://sketch.com -->
    <title>logo</title>
    <desc>Created with Sketch.</desc>
    <g id="页面-1" stroke="none" stroke-width="1" fill="none" fill-rule="evenodd">
        <g id="logo" fill-rule="nonzero">
            <path d="M8.8564,12.1586 C10.9763,12.1586 12.7001,12.6297 14.0277,13.5719 C15.3553,14.4927 16.0191,16.0558 16.0191,18.2614 C16.0191,19.0751 15.8264,19.8138 15.441,20.4776 C15.0769,21.12 14.5951,21.6768 13.9956,22.1479 C14.9806,22.6618 15.7836,23.3577 16.4045,24.2356 C17.0469,25.1136 17.3681,26.227 17.3681,27.5761 C17.3681,29.5889 16.6615,31.1628 15.2482,32.2977 C13.8564,33.4326 11.9935,34 9.6594,34 L0.69805,34 L0.69805,12.1586 L8.8564,12.1586 Z M8.2462,15.6276 L4.84148,15.6276 L4.84148,21.0558 L7.92497,21.0558 C9.0813,21.0558 9.9806,20.8417 10.623,20.4134 C11.2868,19.9637 11.6187,19.2678 11.6187,18.3256 C11.6187,17.2978 11.3189,16.5912 10.7194,16.2057 C10.1198,15.8203 9.2954,15.6276 8.2462,15.6276 Z M9.6273,24.4283 L4.84148,24.4283 L4.84148,30.5632 L9.3382,30.5632 C10.4517,30.5632 11.3404,30.3062 12.0042,29.7923 C12.6894,29.2784 13.032,28.5504 13.032,27.6082 C13.032,26.5804 12.7215,25.7988 12.1005,25.2635 C11.4795,24.7067 10.6551,24.4283 9.6273,24.4283 Z M24.9602,11.3235 L24.9602,34 L20.8167,34 L20.8167,11.6769 L24.9602,11.3235 Z M65.3004,21.5697 C64.1227,21.5697 63.2019,22.0194 62.5381,22.9187 C61.8743,23.7967 61.5424,24.8994 61.5424,26.227 C61.5424,27.5761 61.8743,28.6788 62.5381,29.5354 C63.2019,30.3919 64.1227,30.8202 65.3004,30.8202 C66.0285,30.8202 66.6816,30.7345 67.2597,30.5632 C67.8593,30.3705 68.5338,30.1028 69.2833,29.7602 L70.4717,32.7795 C69.7436,33.3362 68.855,33.743 67.8058,34 C66.7779,34.257 65.9321,34.3854 65.2683,34.3854 C62.7416,34.3854 60.7716,33.6467 59.3583,32.1692 C57.945,30.6917 57.2384,28.711 57.2384,26.227 C57.2384,23.7431 57.945,21.7517 59.3583,20.2528 C60.7716,18.7539 62.7416,18.0044 65.2683,18.0044 C65.9321,18.0044 66.7672,18.1436 67.7736,18.422 C68.8015,18.7003 69.7008,19.1072 70.4717,19.6425 L69.2833,22.6296 C68.5338,22.287 67.8593,22.0301 67.2597,21.8588 C66.6816,21.6661 66.0285,21.5697 65.3004,21.5697 Z M77.5485,11.3235 L77.5485,24.1072 L84.2294,17.9723 L86.5742,20.9273 L82.2059,24.7495 L87.9232,34 L83.1374,34 L79.2188,27.4155 L77.5485,28.893 L77.5485,34 L73.4051,34 L73.4051,11.6769 L77.5485,11.3235 Z M97.2168,21.5697 C96.0391,21.5697 95.1183,22.0194 94.4545,22.9187 C93.7907,23.7967 93.4588,24.8994 93.4588,26.227 C93.4588,27.5761 93.7907,28.6788 94.4545,29.5354 C95.1183,30.3919 96.0391,30.8202 97.2168,30.8202 C97.9448,30.8202 98.598,30.7345 99.176,30.5632 C99.776,30.3705 100.45,30.1028 101.2,29.7602 L102.388,32.7795 C101.66,33.3362 100.771,33.743 99.722,34 C98.694,34.257 97.8485,34.3854 97.1847,34.3854 C94.6579,34.3854 92.6879,33.6467 91.2747,32.1692 C89.8614,30.6917 89.1548,28.711 89.1548,26.227 C89.1548,23.7431 89.8614,21.7517 91.2747,20.2528 C92.6879,18.7539 94.6579,18.0044 97.1847,18.0044 C97.8485,18.0044 98.684,18.1436 99.69,18.422 C100.718,18.7003 101.617,19.1072 102.388,19.6425 L101.2,22.6296 C100.45,22.287 99.776,22.0301 99.176,21.8588 C98.598,21.6661 97.9448,21.5697 97.2168,21.5697 Z M109.465,19.4498 C110.15,18.9145 110.932,18.5076 111.81,18.2293 C112.709,17.9509 113.512,17.8117 114.219,17.8117 C116.339,17.8117 117.837,18.4327 118.715,19.6746 C119.615,20.9166 120.064,22.4369 120.064,24.2356 L120.064,34 L115.889,34 L115.889,24.4283 C115.889,23.4433 115.653,22.6939 115.182,22.18 C114.711,21.6446 114.015,21.377 113.094,21.377 C112.495,21.377 111.874,21.5376 111.231,21.8588 C110.589,22.1586 110,22.5119 109.465,22.9187 L109.465,34 L105.321,34 L105.321,11.6769 L109.465,11.3235 L109.465,19.4498 Z M126.68,29.3427 C126.68,29.7923 126.862,30.1992 127.226,30.5632 C127.59,30.9058 128.072,31.0771 128.671,31.0771 C129.249,31.0771 129.828,30.9486 130.406,30.6917 C131.005,30.4347 131.573,30.0493 132.108,29.5354 L132.108,27.1585 L128.96,27.1585 C128.232,27.1585 127.665,27.3834 127.258,27.833 C126.873,28.2827 126.68,28.7859 126.68,29.3427 Z M128.735,34.3854 C126.83,34.3854 125.416,33.9251 124.496,33.0043 C123.575,32.0621 123.115,30.8416 123.115,29.3427 C123.115,27.7367 123.661,26.5054 124.753,25.6489 C125.845,24.7924 127.269,24.3641 129.025,24.3641 L132.076,24.3641 C132.054,23.5718 131.819,22.9616 131.369,22.5333 C130.941,22.0836 130.341,21.8588 129.571,21.8588 C128.843,21.8588 128.05,21.9658 127.194,22.18 C126.337,22.3727 125.62,22.6082 125.042,22.8866 L123.917,19.4177 C124.517,19.0108 125.427,18.6789 126.648,18.422 C127.89,18.1436 128.843,18.0044 129.506,18.0044 C131.369,18.0044 132.965,18.5505 134.292,19.6425 C135.62,20.7132 136.284,22.0836 136.284,23.7538 L136.284,34 L134.132,34 L133.104,32.6831 C132.526,33.1328 131.84,33.5289 131.048,33.8715 C130.277,34.2141 129.506,34.3854 128.735,34.3854 Z M141.892,11.5163 C142.556,11.5163 143.113,11.7411 143.563,12.1908 C144.034,12.6404 144.269,13.1972 144.269,13.861 C144.269,14.5248 144.034,15.0815 143.563,15.5312 C143.113,15.9809 142.556,16.2057 141.892,16.2057 C141.25,16.2057 140.704,15.9809 140.254,15.5312 C139.805,15.0815 139.58,14.5248 139.58,13.861 C139.58,13.1972 139.805,12.6404 140.254,12.1908 C140.704,11.7411 141.25,11.5163 141.892,11.5163 Z M143.98,18.422 L143.98,34 L139.805,34 L139.805,18.422 L143.98,18.422 Z M151.138,20.0922 C151.845,19.3856 152.723,18.8288 153.772,18.422 C154.843,18.0151 155.796,17.8117 156.631,17.8117 C158.751,17.8117 160.25,18.4327 161.128,19.6746 C162.027,20.9166 162.477,22.4369 162.477,24.2356 L162.477,34 L158.301,34 L158.301,24.4283 C158.301,23.4433 158.066,22.6939 157.594,22.18 C157.123,21.6446 156.438,21.377 155.539,21.377 C154.939,21.377 154.308,21.5376 153.644,21.8588 C153.001,22.1586 152.412,22.5119 151.877,22.9187 L151.877,34 L147.702,34 L147.702,18.422 L149.886,18.422 L151.138,20.0922 Z" id="形状" fill="#002060"></path>
            <path d="M187.511,16.1094 C186.483,15.7882 185.669,15.5633 185.07,15.4349 C184.47,15.285 183.742,15.21 182.886,15.21 C181.151,15.21 179.813,15.9166 178.871,17.3299 C177.928,18.7432 177.457,20.6811 177.457,23.1436 C177.457,25.2635 177.854,27.0943 178.646,28.636 C179.438,30.1778 180.766,30.9486 182.629,30.9486 C183.549,30.9486 184.406,30.8523 185.198,30.6596 C186.012,30.4668 186.751,30.2313 187.414,29.9529 L188.988,33.0364 C188.153,33.4647 187.147,33.8073 185.969,34.0642 C184.791,34.3212 183.753,34.4497 182.854,34.4497 C179.449,34.4497 176.976,33.3576 175.434,31.1735 C173.892,28.9893 173.121,26.3234 173.121,23.1757 C173.121,19.8138 173.967,17.0622 175.659,14.9209 C177.372,12.7796 179.824,11.709 183.014,11.709 C183.656,11.709 184.545,11.816 185.68,12.0302 C186.815,12.2443 187.853,12.6083 188.796,13.1222 L187.511,16.1094 Z M195.116,29.3427 C195.116,29.7923 195.298,30.1992 195.662,30.5632 C196.026,30.9058 196.508,31.0771 197.107,31.0771 C197.686,31.0771 198.264,30.9486 198.842,30.6917 C199.441,30.4347 200.009,30.0493 200.544,29.5354 L200.544,27.1585 L197.396,27.1585 C196.668,27.1585 196.101,27.3834 195.694,27.833 C195.309,28.2827 195.116,28.7859 195.116,29.3427 Z M197.172,34.3854 C195.266,34.3854 193.853,33.9251 192.932,33.0043 C192.011,32.0621 191.551,30.8416 191.551,29.3427 C191.551,27.7367 192.097,26.5054 193.189,25.6489 C194.281,24.7924 195.705,24.3641 197.461,24.3641 L200.512,24.3641 C200.491,23.5718 200.255,22.9616 199.805,22.5333 C199.377,22.0836 198.778,21.8588 198.007,21.8588 C197.279,21.8588 196.486,21.9658 195.63,22.18 C194.773,22.3727 194.056,22.6082 193.478,22.8866 L192.354,19.4177 C192.953,19.0108 193.863,18.6789 195.084,18.422 C196.326,18.1436 197.279,18.0044 197.942,18.0044 C199.805,18.0044 201.401,18.5505 202.728,19.6425 C204.056,20.7132 204.72,22.0836 204.72,23.7538 L204.72,34 L202.568,34 L201.54,32.6831 C200.962,33.1328 200.276,33.5289 199.484,33.8715 C198.713,34.2141 197.942,34.3854 197.172,34.3854 Z M208.851,17.2657 C208.851,15.467 209.376,14.0537 210.425,13.0259 C211.496,11.9766 212.995,11.452 214.922,11.452 C215.414,11.452 215.971,11.5484 216.592,11.7411 C217.213,11.9338 217.695,12.1694 218.037,12.4477 L216.849,15.467 C216.528,15.3385 216.217,15.2421 215.917,15.1779 C215.639,15.0922 215.371,15.0494 215.114,15.0494 C214.386,15.0494 213.851,15.3171 213.508,15.8524 C213.187,16.3663 213.027,17.0301 213.027,17.8438 L213.027,18.7432 L215.982,18.7432 L217.299,21.9873 L213.027,21.9873 L213.027,34 L208.851,34 L208.851,21.9873 L206.442,21.9873 L206.442,18.7432 L208.851,18.7432 L208.851,17.2657 Z M227.932,34.3854 C225.234,34.3854 223.104,33.6467 221.541,32.1692 C219.999,30.6917 219.228,28.711 219.228,26.227 C219.228,23.7431 219.924,21.7517 221.316,20.2528 C222.729,18.7539 224.646,18.0044 227.065,18.0044 C229.506,18.0044 231.294,18.8181 232.429,20.4455 C233.585,22.0515 234.164,23.9573 234.164,26.1628 L234.164,27.4476 L223.661,27.4476 C223.853,28.4754 224.324,29.2998 225.074,29.9208 C225.823,30.5204 226.808,30.8202 228.029,30.8202 C228.735,30.8202 229.367,30.7345 229.924,30.5632 C230.502,30.3705 231.166,30.1028 231.915,29.7602 L233.136,32.7795 C232.408,33.3362 231.519,33.743 230.47,34 C229.442,34.257 228.596,34.3854 227.932,34.3854 Z M230.213,24.6532 C229.999,23.6039 229.613,22.8331 229.057,22.3406 C228.5,21.8267 227.804,21.5697 226.969,21.5697 C226.112,21.5697 225.395,21.8374 224.817,22.3727 C224.239,22.8866 223.864,23.6468 223.693,24.6532 L230.213,24.6532 Z" id="形状" fill="#4E87F7"></path>
            <path d="M47.5753,31.6427 C48.3231,31.6427 48.9677,31.6169 49.6123,31.6513 C49.9303,31.6685 50.2655,31.7459 50.5578,31.8834 C51.168,32.1756 51.4087,32.8031 51.2626,33.525 C51.1508,34.0665 50.5664,34.5736 49.9733,34.6252 C49.8444,34.6338 49.7155,34.6338 49.5865,34.6338 C46.2603,34.6338 42.9426,34.6338 39.6163,34.6338 C37.3129,34.6338 35.0094,34.6338 32.7059,34.6338 C32.0957,34.6338 31.623,34.4103 31.3049,33.8774 C30.9268,33.25 31.0471,32.1584 31.9925,31.7974 C32.2762,31.6857 32.6028,31.6341 32.9122,31.6341 C35.2329,31.6169 37.5535,31.6083 39.8742,31.6341 C40.7251,31.6427 41.576,31.5654 42.3581,31.2903 C43.6732,30.8348 44.8593,30.1386 45.8563,29.1244 C46.9651,27.9898 47.7214,26.6662 48.0996,25.1449 C48.4176,23.8642 48.4348,22.5406 48.3746,21.217 C48.3746,21.131 48.2457,21.0193 48.1512,20.9763 C48.0566,20.9333 47.9277,20.9591 47.8074,20.9591 C43.4067,20.9591 39.0147,20.9591 34.614,20.9591 C34.5539,20.9591 34.5023,20.9591 34.4421,20.9591 C34.021,20.9677 34.021,20.9763 34.0038,21.3975 C33.9608,22.6008 34.021,23.8041 34.2616,24.9902 C34.4593,25.9442 34.8547,26.8381 35.3704,27.6632 C36.0236,28.686 35.7142,29.6573 34.5968,30.0698 C34.0811,30.2589 33.342,29.9839 32.9982,29.4338 C32.2332,28.2219 31.6573,26.9327 31.3565,25.5059 C31.176,24.655 31.1245,23.8127 31.1245,22.9532 C31.1245,21.81 31.1588,20.6583 31.1159,19.5152 C31.0815,18.5955 31.8035,18.0454 32.6114,17.9595 C32.7661,17.9423 32.9294,17.9509 33.0841,17.9509 C38.5591,17.9509 44.0256,17.9509 49.5006,17.9423 C49.9733,17.9423 50.4116,18.0454 50.7812,18.3377 C51.0907,18.5783 51.2797,18.8877 51.2712,19.2917 C51.2712,20.9248 51.3313,22.5578 51.2368,24.1909 C51.1422,25.7895 50.6265,27.2937 49.8272,28.6946 C49.2599,29.6831 48.5809,30.5769 47.7644,31.3591 C47.7214,31.4364 47.687,31.4966 47.5753,31.6427 Z" id="路径" fill="#002060"></path>
            <path d="M42.5677,20.9668 C42.3675,20.6647 42.1578,20.3658 41.9703,20.0541 C41.6589,19.5302 41.4333,18.9646 41.3157,18.3637 C41.2108,17.8141 41.1886,17.2613 41.268,16.7022 C41.4047,15.7316 41.7415,14.8318 42.2023,13.9833 C42.7838,12.9164 43.4066,11.8687 44.0009,10.8082 C44.4362,10.0337 44.8207,9.2334 45.0749,8.3722 C45.3164,7.5494 45.3927,6.7107 45.2529,5.8654 C45.1862,5.4605 45.0495,5.0652 44.9415,4.6442 C45.0527,4.7985 45.1639,4.9399 45.2624,5.0909 C45.6565,5.6758 45.9679,6.3057 46.1363,6.9967 C46.3142,7.7294 46.3206,8.4686 46.1776,9.2077 C45.9933,10.1622 45.6183,11.0428 45.1544,11.8816 C44.5919,12.8939 43.9977,13.8869 43.4289,14.8992 C43.0412,15.5902 42.7044,16.3101 42.466,17.0685 C42.2086,17.8784 42.1006,18.7139 42.2086,19.5527 C42.2658,19.9962 42.4438,20.4237 42.5677,20.8607 C42.5772,20.8896 42.59,20.9154 42.6027,20.9443 C42.59,20.9539 42.5772,20.9603 42.5677,20.9668 Z" id="路径" fill="#002060"></path>
            <path d="M46.9629,11.5411 C46.9629,11.945 46.9755,12.349 46.9597,12.7529 C46.9123,14.0266 46.3872,15.1049 45.6692,16.1083 C45.2738,16.6588 44.8879,17.2191 44.5337,17.7957 C44.2047,18.3267 44.0023,18.9229 43.8821,19.5874 C43.8536,19.5157 43.8283,19.4766 43.8188,19.4376 C43.6607,18.6622 43.7714,17.9162 44.1541,17.2387 C44.5621,16.5187 45.0176,15.8249 45.4636,15.1245 C45.8653,14.4892 46.2512,13.8475 46.5232,13.1406 C46.7067,12.6617 46.8395,12.1665 46.9028,11.6518 C46.906,11.616 46.9123,11.5802 46.9154,11.5411 C46.9313,11.5411 46.9471,11.5411 46.9629,11.5411 Z" id="路径" fill="#002060"></path>
            <path d="M39.7081,20.8182 C39.4546,20.4423 39.189,20.0703 38.9516,19.6824 C38.5572,19.0305 38.2715,18.3267 38.1226,17.5788 C37.9898,16.895 37.9616,16.2071 38.0622,15.5112 C38.2353,14.3035 38.6618,13.1837 39.2453,12.1279 C39.9818,10.8001 40.7705,9.4964 41.523,8.1766 C42.0743,7.2128 42.5612,6.217 42.8832,5.1452 C43.189,4.1214 43.2856,3.0776 43.1085,2.0258 C43.024,1.52192 42.851,1.03002 42.7141,0.50612 C42.855,0.69808 42.9958,0.87405 43.1206,1.06201 C43.6196,1.78987 44.0139,2.5737 44.2272,3.4336 C44.4526,4.3454 44.4606,5.2652 44.2795,6.185 C44.0461,7.3728 43.5713,8.4686 42.9838,9.5124 C42.2715,10.7721 41.519,12.0079 40.7987,13.2677 C40.3077,14.1275 39.8812,15.0233 39.5793,15.9671 C39.2534,16.9749 39.1166,18.0147 39.2534,19.0585 C39.3258,19.6104 39.5512,20.1423 39.7081,20.6862 C39.7202,20.7222 39.7363,20.7542 39.7524,20.7902 C39.7363,20.8022 39.7202,20.8102 39.7081,20.8182 Z" id="路径" fill="#002060"></path>
        </g>
    </g>
</svg>