<svg width="261" height="37" viewBox="0 0 261 37" fill="none" xmlns="http://www.w3.org/2000/svg">
<path d="M4.03578 36C2.7451 36 1.75348 35.6537 1.06092 34.9612C0.36836 34.2686 0.0220802 33.277 0.0220802 31.9863V6.7236C0.0220802 5.43292 0.36836 4.4413 1.06092 3.74874C1.75348 3.05618 2.7451 2.7099 4.03578 2.7099H13.5742C17.2574 2.7099 20.4211 3.38672 23.0654 4.74036C25.7412 6.06252 27.7874 7.96706 29.204 10.454C30.6206 12.9409 31.3289 15.9 31.3289 19.3313C31.3289 22.7941 30.6206 25.7847 29.204 28.3031C27.8189 30.7901 25.7885 32.6946 23.1127 34.0168C20.4683 35.3389 17.2889 36 13.5742 36H4.03578ZM12.9604 29.0114C16.2028 29.0114 18.6268 28.2244 20.2322 26.6504C21.8692 25.045 22.6877 22.6053 22.6877 19.3313C22.6877 16.0574 21.8692 13.6335 20.2322 12.0595C18.6268 10.4855 16.2028 9.69846 12.9604 9.69846H8.71056V29.0114H12.9604ZM40.1797 36.2833C38.9835 36.2833 37.9761 35.9685 37.1577 35.3389C36.3707 34.6778 35.9772 33.702 35.9772 32.4113V16.1676C35.9772 14.8769 36.3707 13.9168 37.1577 13.2872C37.9761 12.6261 38.9835 12.2956 40.1797 12.2956C41.376 12.2956 42.3676 12.6261 43.1546 13.2872C43.9731 13.9168 44.3823 14.8769 44.3823 16.1676V32.4113C44.3823 33.702 43.9731 34.6778 43.1546 35.3389C42.3676 35.9685 41.376 36.2833 40.1797 36.2833ZM40.1797 8.99016C38.7631 8.99016 37.6299 8.62814 36.7799 7.9041C35.9614 7.14858 35.5522 6.15696 35.5522 4.92924C35.5522 3.70152 35.9614 2.72564 36.7799 2.0016C37.6299 1.27756 38.7631 0.915538 40.1797 0.915538C41.5649 0.915538 42.6824 1.27756 43.5324 2.0016C44.3823 2.72564 44.8073 3.70152 44.8073 4.92924C44.8073 6.15696 44.3823 7.14858 43.5324 7.9041C42.7139 8.62814 41.5963 8.99016 40.1797 8.99016ZM58.4185 36.3778C56.3093 36.3778 54.5307 36.2204 53.0826 35.9056C51.6345 35.5908 50.3596 35.0871 49.2578 34.3945C48.8171 34.1742 48.4708 33.7964 48.2189 33.2612C47.9671 32.7261 47.8412 32.128 47.8412 31.4669C47.8412 30.6169 48.0615 29.9244 48.5023 29.3892C48.9745 28.8226 49.5568 28.5392 50.2494 28.5392C50.7216 28.5392 51.1623 28.6022 51.5716 28.7281C51.9808 28.8226 52.4845 28.9957 53.0826 29.2475C54.09 29.5938 54.9714 29.8614 55.7269 30.0503C56.5139 30.2392 57.5055 30.3336 58.7018 30.3336C59.5517 30.3336 60.2128 30.2234 60.685 30.0031C61.1887 29.7512 61.4405 29.4049 61.4405 28.9642C61.4405 28.6179 61.3146 28.3504 61.0628 28.1615C60.8424 27.9726 60.4017 27.7995 59.7406 27.6421C59.0795 27.4532 57.962 27.2013 56.388 26.8865C53.5863 26.3514 51.5558 25.5486 50.2966 24.4783C49.0689 23.3765 48.455 21.834 48.455 19.8508C48.455 18.4027 48.8958 17.0963 49.7772 15.9315C50.6901 14.7667 51.9336 13.8538 53.5076 13.1927C55.0816 12.5317 56.8445 12.2011 58.7962 12.2011C60.2128 12.2011 61.5822 12.3743 62.9044 12.7205C64.258 13.0668 65.4542 13.5548 66.4931 14.1844C67.469 14.751 67.9569 15.6639 67.9569 16.9231C67.9569 17.8046 67.7208 18.5443 67.2486 19.1425C66.7764 19.7406 66.194 20.0396 65.5015 20.0396C64.683 20.0396 63.7071 19.7721 62.5738 19.2369C61.8183 18.8906 61.1415 18.6388 60.5434 18.4814C59.9767 18.2925 59.2999 18.1981 58.5129 18.1981C57.7259 18.1981 57.112 18.324 56.6713 18.5758C56.2306 18.7962 56.0102 19.1267 56.0102 19.5674C56.0102 20.0711 56.3093 20.4646 56.9074 20.7479C57.537 21.0313 58.7647 21.3461 60.5906 21.6923C63.6441 22.2275 65.8005 23.046 67.0597 24.1478C68.3189 25.2181 68.9485 26.7764 68.9485 28.8226C68.9485 31.1206 67.9884 32.9622 66.0681 34.3473C64.1793 35.7009 61.6294 36.3778 58.4185 36.3778ZM83.5978 36.3778C79.8202 36.3778 76.8296 35.3074 74.626 33.1668C72.4224 31.0262 71.3206 28.1143 71.3206 24.4311C71.3206 22.0071 71.8558 19.8665 72.9261 18.0092C73.9964 16.1519 75.4917 14.7195 77.412 13.7122C79.3637 12.7048 81.5831 12.2011 84.07 12.2011C85.3922 12.2011 86.7143 12.3743 88.0365 12.7205C89.3586 13.0668 90.5234 13.5548 91.5308 14.1844C92.5066 14.7825 92.9946 15.6954 92.9946 16.9231C92.9946 17.899 92.7585 18.7017 92.2863 19.3313C91.8456 19.9295 91.2632 20.2285 90.5391 20.2285C90.0669 20.2285 89.6105 20.1656 89.1698 20.0396C88.729 19.8822 88.2411 19.6619 87.7059 19.3786C87.0763 19.0952 86.5412 18.8906 86.1005 18.7647C85.6597 18.6073 85.1718 18.5286 84.6366 18.5286C81.5201 18.5286 79.9619 20.4331 79.9619 24.2422C79.9619 26.131 80.3554 27.5791 81.1424 28.5865C81.9608 29.5623 83.1256 30.0503 84.6366 30.0503C85.1718 30.0503 85.6597 29.9873 86.1005 29.8614C86.5727 29.704 87.0921 29.4836 87.6587 29.2003C88.2883 28.917 88.792 28.7124 89.1698 28.5865C89.579 28.4291 90.0197 28.3504 90.4919 28.3504C91.216 28.3504 91.7983 28.6652 92.2391 29.2948C92.7113 29.8929 92.9474 30.6799 92.9474 31.6558C92.9474 32.2539 92.8214 32.8048 92.5696 33.3085C92.3178 33.7807 91.9715 34.1427 91.5308 34.3945C89.3586 35.7167 86.7143 36.3778 83.5978 36.3778ZM115.235 12.2956C116.526 12.2956 117.549 12.6418 118.305 13.3344C119.06 14.027 119.438 14.9714 119.438 16.1676V32.5057C119.438 33.6075 119.044 34.5204 118.257 35.2445C117.47 35.937 116.447 36.2833 115.188 36.2833C114.055 36.2833 113.126 35.9843 112.402 35.3861C111.678 34.7565 111.3 33.9223 111.269 32.8835C110.545 34.0168 109.616 34.8825 108.483 35.4806C107.381 36.0787 106.106 36.3778 104.658 36.3778C101.667 36.3778 99.448 35.5593 97.9999 33.9223C96.5518 32.2539 95.8278 29.7355 95.8278 26.3671V16.1676C95.8278 14.9714 96.2055 14.027 96.9611 13.3344C97.7166 12.6418 98.7397 12.2956 100.03 12.2956C101.321 12.2956 102.344 12.6418 103.1 13.3344C103.855 14.027 104.233 14.9714 104.233 16.1676V26.556C104.233 28.8226 105.209 29.9558 107.161 29.9558C108.294 29.9558 109.223 29.5466 109.947 28.7281C110.671 27.9096 111.033 26.8393 111.033 25.5172V16.1676C111.033 14.9714 111.41 14.027 112.166 13.3344C112.921 12.6418 113.945 12.2956 115.235 12.2956ZM133.491 36.3778C131.382 36.3778 129.603 36.2204 128.155 35.9056C126.707 35.5908 125.432 35.0871 124.33 34.3945C123.889 34.1742 123.543 33.7964 123.291 33.2612C123.04 32.7261 122.914 32.128 122.914 31.4669C122.914 30.6169 123.134 29.9244 123.575 29.3892C124.047 28.8226 124.629 28.5392 125.322 28.5392C125.794 28.5392 126.235 28.6022 126.644 28.7281C127.053 28.8226 127.557 28.9957 128.155 29.2475C129.162 29.5938 130.044 29.8614 130.799 30.0503C131.586 30.2392 132.578 30.3336 133.774 30.3336C134.624 30.3336 135.285 30.2234 135.757 30.0031C136.261 29.7512 136.513 29.4049 136.513 28.9642C136.513 28.6179 136.387 28.3504 136.135 28.1615C135.915 27.9726 135.474 27.7995 134.813 27.6421C134.152 27.4532 133.034 27.2013 131.46 26.8865C128.659 26.3514 126.628 25.5486 125.369 24.4783C124.141 23.3765 123.527 21.834 123.527 19.8508C123.527 18.4027 123.968 17.0963 124.85 15.9315C125.763 14.7667 127.006 13.8538 128.58 13.1927C130.154 12.5317 131.917 12.2011 133.869 12.2011C135.285 12.2011 136.655 12.3743 137.977 12.7205C139.33 13.0668 140.527 13.5548 141.566 14.1844C142.541 14.751 143.029 15.6639 143.029 16.9231C143.029 17.8046 142.793 18.5443 142.321 19.1425C141.849 19.7406 141.266 20.0396 140.574 20.0396C139.755 20.0396 138.78 19.7721 137.646 19.2369C136.891 18.8906 136.214 18.6388 135.616 18.4814C135.049 18.2925 134.372 18.1981 133.585 18.1981C132.798 18.1981 132.184 18.324 131.744 18.5758C131.303 18.7962 131.083 19.1267 131.083 19.5674C131.083 20.0711 131.382 20.4646 131.98 20.7479C132.609 21.0313 133.837 21.3461 135.663 21.6923C138.717 22.2275 140.873 23.046 142.132 24.1478C143.391 25.2181 144.021 26.7764 144.021 28.8226C144.021 31.1206 143.061 32.9622 141.141 34.3473C139.252 35.7009 136.702 36.3778 133.491 36.3778ZM156.64 36.3778C154.531 36.3778 152.752 36.2204 151.304 35.9056C149.856 35.5908 148.581 35.0871 147.479 34.3945C147.038 34.1742 146.692 33.7964 146.44 33.2612C146.188 32.7261 146.062 32.128 146.062 31.4669C146.062 30.6169 146.283 29.9244 146.724 29.3892C147.196 28.8226 147.778 28.5392 148.471 28.5392C148.943 28.5392 149.384 28.6022 149.793 28.7281C150.202 28.8226 150.706 28.9957 151.304 29.2475C152.311 29.5938 153.193 29.8614 153.948 30.0503C154.735 30.2392 155.727 30.3336 156.923 30.3336C157.773 30.3336 158.434 30.2234 158.906 30.0031C159.41 29.7512 159.662 29.4049 159.662 28.9642C159.662 28.6179 159.536 28.3504 159.284 28.1615C159.064 27.9726 158.623 27.7995 157.962 27.6421C157.301 27.4532 156.183 27.2013 154.609 26.8865C151.808 26.3514 149.777 25.5486 148.518 24.4783C147.29 23.3765 146.676 21.834 146.676 19.8508C146.676 18.4027 147.117 17.0963 147.998 15.9315C148.911 14.7667 150.155 13.8538 151.729 13.1927C153.303 12.5317 155.066 12.2011 157.018 12.2011C158.434 12.2011 159.803 12.3743 161.126 12.7205C162.479 13.0668 163.676 13.5548 164.714 14.1844C165.69 14.751 166.178 15.6639 166.178 16.9231C166.178 17.8046 165.942 18.5443 165.47 19.1425C164.998 19.7406 164.415 20.0396 163.723 20.0396C162.904 20.0396 161.928 19.7721 160.795 19.2369C160.04 18.8906 159.363 18.6388 158.765 18.4814C158.198 18.2925 157.521 18.1981 156.734 18.1981C155.947 18.1981 155.333 18.324 154.893 18.5758C154.452 18.7962 154.232 19.1267 154.232 19.5674C154.232 20.0711 154.531 20.4646 155.129 20.7479C155.758 21.0313 156.986 21.3461 158.812 21.6923C161.865 22.2275 164.022 23.046 165.281 24.1478C166.54 25.2181 167.17 26.7764 167.17 28.8226C167.17 31.1206 166.21 32.9622 164.289 34.3473C162.401 35.7009 159.851 36.3778 156.64 36.3778ZM174.831 36.2833C173.634 36.2833 172.627 35.9685 171.808 35.3389C171.021 34.6778 170.628 33.702 170.628 32.4113V16.1676C170.628 14.8769 171.021 13.9168 171.808 13.2872C172.627 12.6261 173.634 12.2956 174.831 12.2956C176.027 12.2956 177.018 12.6261 177.805 13.2872C178.624 13.9168 179.033 14.8769 179.033 16.1676V32.4113C179.033 33.702 178.624 34.6778 177.805 35.3389C177.018 35.9685 176.027 36.2833 174.831 36.2833ZM174.831 8.99016C173.414 8.99016 172.281 8.62814 171.431 7.9041C170.612 7.14858 170.203 6.15696 170.203 4.92924C170.203 3.70152 170.612 2.72564 171.431 2.0016C172.281 1.27756 173.414 0.915538 174.831 0.915538C176.216 0.915538 177.333 1.27756 178.183 2.0016C179.033 2.72564 179.458 3.70152 179.458 4.92924C179.458 6.15696 179.033 7.14858 178.183 7.9041C177.365 8.62814 176.247 8.99016 174.831 8.99016ZM195.619 36.3778C193.069 36.3778 190.818 35.8898 188.867 34.9139C186.946 33.9066 185.451 32.49 184.381 30.6641C183.342 28.8383 182.823 26.6977 182.823 24.2422C182.823 21.7868 183.342 19.6619 184.381 17.8675C185.451 16.0417 186.946 14.6408 188.867 13.6649C190.787 12.6891 193.038 12.2011 195.619 12.2011C198.2 12.2011 200.451 12.6891 202.372 13.6649C204.292 14.6408 205.771 16.0417 206.81 17.8675C207.881 19.6619 208.416 21.7868 208.416 24.2422C208.416 26.6977 207.881 28.8383 206.81 30.6641C205.771 32.49 204.292 33.9066 202.372 34.9139C200.451 35.8898 198.2 36.3778 195.619 36.3778ZM195.619 30.0975C198.61 30.0975 200.105 28.1457 200.105 24.2422C200.105 20.3387 198.61 18.3869 195.619 18.3869C192.629 18.3869 191.133 20.3387 191.133 24.2422C191.133 28.1457 192.629 30.0975 195.619 30.0975ZM227.852 12.2011C230.622 12.2011 232.684 13.0353 234.038 14.7038C235.391 16.3407 236.068 18.8434 236.068 22.2118V32.4113C236.068 33.6075 235.69 34.5519 234.935 35.2445C234.179 35.937 233.156 36.2833 231.866 36.2833C230.575 36.2833 229.552 35.937 228.796 35.2445C228.041 34.5519 227.663 33.6075 227.663 32.4113V22.5895C227.663 21.2044 227.411 20.197 226.908 19.5674C226.435 18.9378 225.711 18.623 224.735 18.623C223.476 18.623 222.469 19.0323 221.713 19.8508C220.989 20.6378 220.627 21.7081 220.627 23.0617V32.4113C220.627 33.6075 220.25 34.5519 219.494 35.2445C218.738 35.937 217.715 36.2833 216.425 36.2833C215.134 36.2833 214.111 35.937 213.355 35.2445C212.6 34.5519 212.222 33.6075 212.222 32.4113V16.0732C212.222 14.9714 212.616 14.0742 213.403 13.3816C214.19 12.6576 215.213 12.2956 216.472 12.2956C217.668 12.2956 218.613 12.6261 219.305 13.2872C220.029 13.9483 220.391 14.814 220.391 15.8843C221.21 14.688 222.264 13.7751 223.555 13.1455C224.846 12.5159 226.278 12.2011 227.852 12.2011ZM249.973 36.3778C247.864 36.3778 246.085 36.2204 244.637 35.9056C243.189 35.5908 241.914 35.0871 240.812 34.3945C240.372 34.1742 240.025 33.7964 239.774 33.2612C239.522 32.7261 239.396 32.128 239.396 31.4669C239.396 30.6169 239.616 29.9244 240.057 29.3892C240.529 28.8226 241.111 28.5392 241.804 28.5392C242.276 28.5392 242.717 28.6022 243.126 28.7281C243.535 28.8226 244.039 28.9957 244.637 29.2475C245.645 29.5938 246.526 29.8614 247.281 30.0503C248.068 30.2392 249.06 30.3336 250.256 30.3336C251.106 30.3336 251.767 30.2234 252.24 30.0031C252.743 29.7512 252.995 29.4049 252.995 28.9642C252.995 28.6179 252.869 28.3504 252.617 28.1615C252.397 27.9726 251.956 27.7995 251.295 27.6421C250.634 27.4532 249.517 27.2013 247.943 26.8865C245.141 26.3514 243.11 25.5486 241.851 24.4783C240.623 23.3765 240.01 21.834 240.01 19.8508C240.01 18.4027 240.45 17.0963 241.332 15.9315C242.245 14.7667 243.488 13.8538 245.062 13.1927C246.636 12.5317 248.399 12.2011 250.351 12.2011C251.767 12.2011 253.137 12.3743 254.459 12.7205C255.813 13.0668 257.009 13.5548 258.048 14.1844C259.024 14.751 259.511 15.6639 259.511 16.9231C259.511 17.8046 259.275 18.5443 258.803 19.1425C258.331 19.7406 257.749 20.0396 257.056 20.0396C256.238 20.0396 255.262 19.7721 254.128 19.2369C253.373 18.8906 252.696 18.6388 252.098 18.4814C251.531 18.2925 250.854 18.1981 250.067 18.1981C249.28 18.1981 248.667 18.324 248.226 18.5758C247.785 18.7962 247.565 19.1267 247.565 19.5674C247.565 20.0711 247.864 20.4646 248.462 20.7479C249.092 21.0313 250.319 21.3461 252.145 21.6923C255.199 22.2275 257.355 23.046 258.614 24.1478C259.873 25.2181 260.503 26.7764 260.503 28.8226C260.503 31.1206 259.543 32.9622 257.623 34.3473C255.734 35.7009 253.184 36.3778 249.973 36.3778Z" fill="#F6F7F9"/>
</svg>
