<svg width="190" height="40" viewBox="0 0 190 40" fill="none" xmlns="http://www.w3.org/2000/svg">
<path d="M5.06 39.312C3.63867 39.312 2.49467 38.8787 1.628 38.012C0.761333 37.1453 0.328 36.0013 0.328 34.58V6.76C0.328 5.33867 0.709333 4.24667 1.472 3.484C2.23467 2.72133 3.32667 2.34 4.748 2.34H22.22C23.78 2.34 24.924 2.652 25.652 3.276C26.38 3.86533 26.744 4.81867 26.744 6.136C26.744 7.41867 26.3627 8.35467 25.6 8.944C24.872 9.53333 23.7453 9.828 22.22 9.828H9.74V16.588H21.18C22.7053 16.588 23.832 16.9 24.56 17.524C25.3227 18.148 25.704 19.1013 25.704 20.384C25.704 21.6667 25.3227 22.6027 24.56 23.192C23.832 23.7813 22.7053 24.076 21.18 24.076H9.74V34.58C9.74 36.036 9.30667 37.1973 8.44 38.064C7.608 38.896 6.48133 39.312 5.06 39.312ZM34.3945 39.312C33.0772 39.312 31.9678 38.9653 31.0665 38.272C30.1998 37.544 29.7665 36.4693 29.7665 35.048V17.16C29.7665 15.7387 30.1998 14.6813 31.0665 13.988C31.9678 13.26 33.0772 12.896 34.3945 12.896C35.7118 12.896 36.8038 13.26 37.6705 13.988C38.5718 14.6813 39.0225 15.7387 39.0225 17.16V35.048C39.0225 36.4693 38.5718 37.544 37.6705 38.272C36.8038 38.9653 35.7118 39.312 34.3945 39.312ZM34.3945 9.256C32.8345 9.256 31.5865 8.85733 30.6505 8.06C29.7492 7.228 29.2985 6.136 29.2985 4.784C29.2985 3.432 29.7492 2.35733 30.6505 1.56C31.5865 0.762665 32.8345 0.363998 34.3945 0.363998C35.9198 0.363998 37.1505 0.762665 38.0865 1.56C39.0225 2.35733 39.4905 3.432 39.4905 4.784C39.4905 6.136 39.0225 7.228 38.0865 8.06C37.1852 8.85733 35.9545 9.256 34.3945 9.256ZM60.6155 12.896C61.7942 12.792 62.7302 13.0693 63.4235 13.728C64.1168 14.352 64.4635 15.288 64.4635 16.536C64.4635 17.9227 64.1342 18.928 63.4755 19.552C62.8515 20.176 61.7075 20.5747 60.0435 20.748L58.4835 20.904C56.7502 21.112 55.5022 21.6667 54.7395 22.568C54.0115 23.4347 53.6475 24.6307 53.6475 26.156V35.048C53.6475 36.4693 53.1968 37.544 52.2955 38.272C51.4288 38.9653 50.3368 39.312 49.0195 39.312C47.7022 39.312 46.5928 38.9653 45.6915 38.272C44.8248 37.544 44.3915 36.4693 44.3915 35.048V17.056C44.3915 15.7387 44.8248 14.716 45.6915 13.988C46.5928 13.26 47.6675 12.896 48.9155 12.896C50.1982 12.896 51.2208 13.2427 51.9835 13.936C52.7808 14.6293 53.1795 15.6 53.1795 16.848V17.836C53.7342 16.3107 54.6355 15.132 55.8835 14.3C57.1662 13.468 58.5008 13.0173 59.8875 12.948L60.6155 12.896ZM86.4688 30.784C87.2662 30.784 87.9075 31.096 88.3928 31.72C88.9128 32.344 89.1728 33.1587 89.1728 34.164C89.1728 35.5507 88.4968 36.608 87.1448 37.336C85.9662 37.9253 84.5622 38.428 82.9328 38.844C81.3382 39.2253 79.8648 39.416 78.5128 39.416C75.6702 39.416 73.1915 38.8787 71.0768 37.804C68.9622 36.7293 67.3328 35.1867 66.1888 33.176C65.0448 31.1653 64.4728 28.808 64.4728 26.104C64.4728 23.5387 65.0102 21.2507 66.0848 19.24C67.1942 17.1947 68.7195 15.6173 70.6608 14.508C72.6368 13.364 74.8555 12.792 77.3168 12.792C79.7088 12.792 81.8062 13.312 83.6088 14.352C85.4115 15.392 86.7982 16.8653 87.7688 18.772C88.7742 20.6787 89.2768 22.9147 89.2768 25.48C89.2768 26.2773 89.0862 26.9013 88.7048 27.352C88.3582 27.768 87.8382 27.976 87.1448 27.976H73.4168C73.6595 29.64 74.1968 30.836 75.0288 31.564C75.8608 32.292 77.0915 32.656 78.7208 32.656C79.5875 32.656 80.3848 32.5693 81.1128 32.396C81.8408 32.188 82.6555 31.9107 83.5568 31.564C84.0768 31.356 84.5795 31.1827 85.0648 31.044C85.5848 30.8707 86.0528 30.784 86.4688 30.784ZM77.5768 19.032C76.3635 19.032 75.3928 19.4307 74.6648 20.228C73.9368 20.9907 73.5035 22.1173 73.3648 23.608H81.5288C81.3208 20.5573 80.0035 19.032 77.5768 19.032ZM103.585 39.416C101.262 39.416 99.3036 39.2427 97.709 38.896C96.1143 38.5493 94.7103 37.9947 93.497 37.232C93.0116 36.9893 92.6303 36.5733 92.353 35.984C92.0756 35.3947 91.937 34.736 91.937 34.008C91.937 33.072 92.1796 32.3093 92.665 31.72C93.185 31.096 93.8263 30.784 94.589 30.784C95.109 30.784 95.5943 30.8533 96.045 30.992C96.4956 31.096 97.0503 31.2867 97.709 31.564C98.8183 31.9453 99.789 32.24 100.621 32.448C101.488 32.656 102.58 32.76 103.897 32.76C104.833 32.76 105.561 32.6387 106.081 32.396C106.636 32.1187 106.913 31.7373 106.913 31.252C106.913 30.8707 106.774 30.576 106.497 30.368C106.254 30.16 105.769 29.9693 105.041 29.796C104.313 29.588 103.082 29.3107 101.349 28.964C98.2636 28.3747 96.0276 27.4907 94.641 26.312C93.289 25.0987 92.613 23.4 92.613 21.216C92.613 19.6213 93.0983 18.1827 94.069 16.9C95.0743 15.6173 96.4436 14.612 98.177 13.884C99.9103 13.156 101.852 12.792 104.001 12.792C105.561 12.792 107.069 12.9827 108.525 13.364C110.016 13.7453 111.333 14.2827 112.477 14.976C113.552 15.6 114.089 16.6053 114.089 17.992C114.089 18.9627 113.829 19.7773 113.309 20.436C112.789 21.0947 112.148 21.424 111.385 21.424C110.484 21.424 109.409 21.1293 108.161 20.54C107.329 20.1587 106.584 19.8813 105.925 19.708C105.301 19.5 104.556 19.396 103.689 19.396C102.822 19.396 102.146 19.5347 101.661 19.812C101.176 20.0547 100.933 20.4187 100.933 20.904C100.933 21.4587 101.262 21.892 101.921 22.204C102.614 22.516 103.966 22.8627 105.977 23.244C109.34 23.8333 111.714 24.7347 113.101 25.948C114.488 27.1267 115.181 28.8427 115.181 31.096C115.181 33.6267 114.124 35.6547 112.009 37.18C109.929 38.6707 107.121 39.416 103.585 39.416ZM123.617 39.312C122.3 39.312 121.19 38.9653 120.289 38.272C119.422 37.544 118.989 36.4693 118.989 35.048V17.16C118.989 15.7387 119.422 14.6813 120.289 13.988C121.19 13.26 122.3 12.896 123.617 12.896C124.934 12.896 126.026 13.26 126.893 13.988C127.794 14.6813 128.245 15.7387 128.245 17.16V35.048C128.245 36.4693 127.794 37.544 126.893 38.272C126.026 38.9653 124.934 39.312 123.617 39.312ZM123.617 9.256C122.057 9.256 120.809 8.85733 119.873 8.06C118.972 7.228 118.521 6.136 118.521 4.784C118.521 3.432 118.972 2.35733 119.873 1.56C120.809 0.762665 122.057 0.363998 123.617 0.363998C125.142 0.363998 126.373 0.762665 127.309 1.56C128.245 2.35733 128.713 3.432 128.713 4.784C128.713 6.136 128.245 7.228 127.309 8.06C126.408 8.85733 125.177 9.256 123.617 9.256ZM155.974 2.08C157.361 2.08 158.487 2.47866 159.354 3.276C160.255 4.03867 160.706 5.02666 160.706 6.24V35.048C160.706 36.3653 160.29 37.4053 159.458 38.168C158.626 38.9307 157.517 39.312 156.13 39.312C154.847 39.312 153.79 38.9827 152.958 38.324C152.161 37.6307 151.71 36.6947 151.606 35.516C150.878 36.7293 149.803 37.6827 148.382 38.376C146.995 39.0693 145.453 39.416 143.754 39.416C141.57 39.416 139.611 38.8613 137.878 37.752C136.179 36.608 134.845 35.0133 133.874 32.968C132.903 30.9227 132.418 28.5827 132.418 25.948C132.418 23.3133 132.886 21.008 133.822 19.032C134.793 17.0213 136.127 15.4787 137.826 14.404C139.559 13.3293 141.535 12.792 143.754 12.792C145.383 12.792 146.874 13.1213 148.226 13.78C149.613 14.4387 150.687 15.3227 151.45 16.432V6.084C151.45 4.87066 151.849 3.9 152.646 3.172C153.478 2.444 154.587 2.08 155.974 2.08ZM146.562 32.5C148.191 32.5 149.439 31.9453 150.306 30.836C151.173 29.7267 151.606 28.132 151.606 26.052C151.606 24.0067 151.173 22.4467 150.306 21.372C149.439 20.2627 148.191 19.708 146.562 19.708C144.967 19.708 143.737 20.2453 142.87 21.32C142.003 22.3947 141.57 23.9373 141.57 25.948C141.57 28.028 142.003 29.64 142.87 30.784C143.771 31.928 145.002 32.5 146.562 32.5ZM186.914 30.784C187.711 30.784 188.353 31.096 188.838 31.72C189.358 32.344 189.618 33.1587 189.618 34.164C189.618 35.5507 188.942 36.608 187.59 37.336C186.411 37.9253 185.007 38.428 183.378 38.844C181.783 39.2253 180.31 39.416 178.958 39.416C176.115 39.416 173.637 38.8787 171.522 37.804C169.407 36.7293 167.778 35.1867 166.634 33.176C165.49 31.1653 164.918 28.808 164.918 26.104C164.918 23.5387 165.455 21.2507 166.53 19.24C167.639 17.1947 169.165 15.6173 171.106 14.508C173.082 13.364 175.301 12.792 177.762 12.792C180.154 12.792 182.251 13.312 184.054 14.352C185.857 15.392 187.243 16.8653 188.214 18.772C189.219 20.6787 189.722 22.9147 189.722 25.48C189.722 26.2773 189.531 26.9013 189.15 27.352C188.803 27.768 188.283 27.976 187.59 27.976H173.862C174.105 29.64 174.642 30.836 175.474 31.564C176.306 32.292 177.537 32.656 179.166 32.656C180.033 32.656 180.83 32.5693 181.558 32.396C182.286 32.188 183.101 31.9107 184.002 31.564C184.522 31.356 185.025 31.1827 185.51 31.044C186.03 30.8707 186.498 30.784 186.914 30.784ZM178.022 19.032C176.809 19.032 175.838 19.4307 175.11 20.228C174.382 20.9907 173.949 22.1173 173.81 23.608H181.974C181.766 20.5573 180.449 19.032 178.022 19.032Z" fill="#F6F7F9"/>
</svg>
