<svg width="256" height="31" viewBox="0 0 256 31" fill="none" xmlns="http://www.w3.org/2000/svg">
<path d="M4.0791 30.2353C2.98094 30.2353 2.10503 29.9216 1.45136 29.294C0.82384 28.6404 0.51008 27.7645 0.51008 26.6663V5.6836C0.51008 4.61159 0.797694 3.78797 1.37292 3.21274C1.94815 2.63751 2.77177 2.3499 3.84378 2.3499H13.8841C16.9433 2.3499 19.3226 3.1343 21.0221 4.7031C22.7217 6.24575 23.5714 8.40285 23.5714 11.1744C23.5714 13.9198 22.7086 16.0769 20.9829 17.6457C19.2834 19.2145 16.9171 19.9989 13.8841 19.9989H7.72656V26.6663C7.72656 27.7645 7.39973 28.6404 6.74606 29.294C6.09239 29.9216 5.20341 30.2353 4.0791 30.2353ZM12.9036 14.5865C14.2371 14.5865 15.2176 14.312 15.8451 13.7629C16.4988 13.2138 16.8256 12.3641 16.8256 11.2136C16.8256 8.93886 15.5183 7.80148 12.9036 7.80148H7.72656V14.5865H12.9036ZM38.4355 10.3116C39.3245 10.2331 40.0305 10.4423 40.5534 10.9391C41.0763 11.4097 41.3378 12.1157 41.3378 13.057C41.3378 14.1028 41.0894 14.8611 40.5926 15.3317C40.122 15.8024 39.2591 16.103 38.0041 16.2338L36.8275 16.3514C35.5202 16.5083 34.5789 16.9267 34.0037 17.6065C33.4546 18.2601 33.18 19.1622 33.18 20.3127V27.0193C33.18 28.0913 32.8401 28.9018 32.1603 29.4509C31.5066 29.9739 30.683 30.2353 29.6895 30.2353C28.6959 30.2353 27.8592 29.9739 27.1794 29.4509C26.5257 28.9018 26.1989 28.0913 26.1989 27.0193V13.4492C26.1989 12.4556 26.5257 11.6843 27.1794 11.1352C27.8592 10.5861 28.6697 10.3116 29.611 10.3116C30.5784 10.3116 31.3498 10.573 31.925 11.096C32.5264 11.6189 32.8271 12.351 32.8271 13.2923V14.0375C33.2454 12.887 33.9252 11.998 34.8665 11.3705C35.8339 10.743 36.8406 10.4031 37.8864 10.3508L38.4355 10.3116ZM57.9349 23.8032C58.5363 23.8032 59.02 24.0386 59.386 24.5092C59.7782 24.9798 59.9743 25.5943 59.9743 26.3525C59.9743 27.3984 59.4645 28.1959 58.4448 28.745C57.5558 29.1895 56.4968 29.5686 55.2679 29.8823C54.0652 30.17 52.954 30.3138 51.9342 30.3138C49.7902 30.3138 47.9207 29.9085 46.3258 29.0979C44.7308 28.2874 43.5019 27.1239 42.6391 25.6074C41.7763 24.0909 41.3448 22.3129 41.3448 20.2734C41.3448 18.3386 41.7501 16.6129 42.5607 15.0964C43.3974 13.5537 44.5478 12.3641 46.012 11.5274C47.5024 10.6645 49.1758 10.2331 51.0322 10.2331C52.8363 10.2331 54.4182 10.6253 55.7778 11.4097C57.1374 12.1941 58.1833 13.3054 58.9154 14.7434C59.6737 16.1815 60.0528 17.8679 60.0528 19.8028C60.0528 20.4042 59.909 20.8748 59.6214 21.2147C59.3599 21.5285 58.9677 21.6854 58.4448 21.6854H48.0907C48.2737 22.9404 48.679 23.8425 49.3065 24.3915C49.934 24.9406 50.8622 25.2152 52.0911 25.2152C52.7448 25.2152 53.3462 25.1498 53.8952 25.0191C54.4443 24.8622 55.0588 24.653 55.7386 24.3915C56.1308 24.2347 56.5099 24.1039 56.876 23.9993C57.2682 23.8686 57.6211 23.8032 57.9349 23.8032ZM51.2283 14.9395C50.3131 14.9395 49.581 15.2402 49.032 15.8416C48.4829 16.4168 48.156 17.2666 48.0515 18.3909H54.209C54.0521 16.09 53.0585 14.9395 51.2283 14.9395ZM70.8444 30.3138C69.0926 30.3138 67.6153 30.183 66.4125 29.9216C65.2098 29.6601 64.1509 29.2417 63.2357 28.6665C62.8697 28.4835 62.5821 28.1697 62.3729 27.7252C62.1637 27.2807 62.0591 26.784 62.0591 26.2349C62.0591 25.5289 62.2422 24.9537 62.6082 24.5092C63.0004 24.0386 63.4841 23.8032 64.0593 23.8032C64.4515 23.8032 64.8176 23.8555 65.1575 23.9601C65.4974 24.0386 65.9158 24.1824 66.4125 24.3915C67.2492 24.6792 67.9813 24.9014 68.6089 25.0583C69.2625 25.2152 70.0862 25.2936 71.0797 25.2936C71.7857 25.2936 72.3348 25.2021 72.727 25.0191C73.1453 24.8099 73.3545 24.5223 73.3545 24.1562C73.3545 23.8686 73.2499 23.6464 73.0407 23.4895C72.8577 23.3326 72.4917 23.1888 71.9426 23.0581C71.3935 22.9012 70.4653 22.692 69.1579 22.4305C66.8309 21.986 65.1444 21.3193 64.0986 20.4303C63.0788 19.5152 62.569 18.234 62.569 16.5868C62.569 15.384 62.935 14.2989 63.6671 13.3315C64.4254 12.3641 65.4582 11.6058 66.7655 11.0567C68.0729 10.5077 69.5371 10.2331 71.1582 10.2331C72.3348 10.2331 73.4722 10.3769 74.5703 10.6645C75.6946 10.9522 76.6882 11.3574 77.551 11.8804C78.3616 12.351 78.7669 13.1093 78.7669 14.1551C78.7669 14.8872 78.5708 15.5017 78.1786 15.9985C77.7864 16.4952 77.3026 16.7436 76.7274 16.7436C76.0476 16.7436 75.237 16.5214 74.2958 16.0769C73.6682 15.7893 73.1061 15.5801 72.6093 15.4494C72.1387 15.2925 71.5765 15.2141 70.9228 15.2141C70.2692 15.2141 69.7593 15.3186 69.3933 15.5278C69.0272 15.7108 68.8442 15.9854 68.8442 16.3514C68.8442 16.7698 69.0926 17.0966 69.5894 17.3319C70.1123 17.5673 71.132 17.8287 72.6485 18.1163C75.1848 18.5608 76.9758 19.2406 78.0217 20.1558C79.0675 21.0448 79.5905 22.339 79.5905 24.0386C79.5905 25.9473 78.793 27.4768 77.1981 28.6273C75.6293 29.7516 73.5114 30.3138 70.8444 30.3138ZM98.1507 23.8032C98.7521 23.8032 99.2358 24.0386 99.6019 24.5092C99.9941 24.9798 100.19 25.5943 100.19 26.3525C100.19 27.3984 99.6803 28.1959 98.6606 28.745C97.7716 29.1895 96.7127 29.5686 95.4838 29.8823C94.281 30.17 93.1698 30.3138 92.1501 30.3138C90.006 30.3138 88.1366 29.9085 86.5416 29.0979C84.9467 28.2874 83.7178 27.1239 82.8549 25.6074C81.9921 24.0909 81.5607 22.3129 81.5607 20.2734C81.5607 18.3386 81.9659 16.6129 82.7765 15.0964C83.6132 13.5537 84.7636 12.3641 86.2278 11.5274C87.7182 10.6645 89.3916 10.2331 91.248 10.2331C93.0521 10.2331 94.634 10.6253 95.9936 11.4097C97.3533 12.1941 98.3991 13.3054 99.1312 14.7434C99.8895 16.1815 100.269 17.8679 100.269 19.8028C100.269 20.4042 100.125 20.8748 99.8372 21.2147C99.5757 21.5285 99.1835 21.6854 98.6606 21.6854H88.3065C88.4895 22.9404 88.8948 23.8425 89.5223 24.3915C90.1498 24.9406 91.0781 25.2152 92.3069 25.2152C92.9606 25.2152 93.562 25.1498 94.1111 25.0191C94.6601 24.8622 95.2746 24.653 95.9544 24.3915C96.3466 24.2347 96.7257 24.1039 97.0918 23.9993C97.484 23.8686 97.837 23.8032 98.1507 23.8032ZM91.4441 14.9395C90.529 14.9395 89.7969 15.2402 89.2478 15.8416C88.6987 16.4168 88.3719 17.2666 88.2673 18.3909H94.4248C94.2679 16.09 93.2744 14.9395 91.4441 14.9395ZM116.433 10.2331C118.734 10.2331 120.447 10.926 121.571 12.3118C122.695 13.6714 123.258 15.7501 123.258 18.5478V27.0193C123.258 28.0129 122.944 28.7973 122.316 29.3725C121.689 29.9477 120.839 30.2353 119.767 30.2353C118.695 30.2353 117.845 29.9477 117.218 29.3725C116.59 28.7973 116.276 28.0129 116.276 27.0193V18.8615C116.276 17.7111 116.067 16.8744 115.649 16.3514C115.257 15.8285 114.655 15.567 113.845 15.567C112.799 15.567 111.962 15.9069 111.335 16.5868C110.733 17.2404 110.433 18.1294 110.433 19.2537V27.0193C110.433 28.0129 110.119 28.7973 109.491 29.3725C108.864 29.9477 108.014 30.2353 106.942 30.2353C105.87 30.2353 105.02 29.9477 104.393 29.3725C103.765 28.7973 103.452 28.0129 103.452 27.0193V13.4492C103.452 12.534 103.778 11.7888 104.432 11.2136C105.086 10.6122 105.935 10.3116 106.981 10.3116C107.975 10.3116 108.759 10.5861 109.335 11.1352C109.936 11.6843 110.237 12.4033 110.237 13.2923C110.916 12.2987 111.792 11.5405 112.864 11.0175C113.936 10.4946 115.126 10.2331 116.433 10.2331ZM138.611 25.2544C140.363 25.359 141.239 26.1434 141.239 27.6076C141.239 28.5227 140.886 29.2025 140.18 29.647C139.474 30.0915 138.467 30.2745 137.16 30.1961L136.062 30.1177C133.709 29.9346 131.918 29.2287 130.689 27.9998C129.486 26.7447 128.885 25.006 128.885 22.7835V15.8416H127.747C125.655 15.8416 124.61 14.9787 124.61 13.2531C124.61 11.5535 125.655 10.7038 127.747 10.7038H128.885V8.15446C128.885 7.16088 129.198 6.37648 129.826 5.80126C130.453 5.19988 131.303 4.8992 132.375 4.8992C133.447 4.8992 134.297 5.19988 134.924 5.80126C135.552 6.37648 135.866 7.16088 135.866 8.15446V10.7038H138.023C140.114 10.7038 141.16 11.5535 141.16 13.2531C141.16 14.9787 140.114 15.8416 138.023 15.8416H135.866V23.3718C135.866 23.8686 136.009 24.287 136.297 24.6269C136.611 24.9668 137.003 25.1498 137.474 25.1759L138.611 25.2544ZM152.074 10.2331C155.055 10.2331 157.251 10.9522 158.663 12.3902C160.101 13.8021 160.82 15.9592 160.82 18.8615V27.0585C160.82 28.0521 160.52 28.8365 159.918 29.4117C159.343 29.9608 158.532 30.2353 157.487 30.2353C156.571 30.2353 155.813 29.9739 155.212 29.4509C154.637 28.928 154.323 28.222 154.271 27.333C153.905 28.2743 153.29 29.0064 152.427 29.5294C151.564 30.0523 150.532 30.3138 149.329 30.3138C147.995 30.3138 146.793 30.0523 145.721 29.5294C144.649 28.9803 143.799 28.2351 143.171 27.2938C142.57 26.3264 142.269 25.2413 142.269 24.0386C142.269 22.6528 142.622 21.5546 143.328 20.7441C144.06 19.9074 145.211 19.306 146.78 18.94C148.348 18.5739 150.466 18.3909 153.133 18.3909H154.192V17.9202C154.192 17.0051 153.983 16.3514 153.565 15.9592C153.146 15.5409 152.44 15.3317 151.447 15.3317C150.375 15.3317 148.806 15.6978 146.74 16.4299C146.139 16.6391 145.629 16.7436 145.211 16.7436C144.557 16.7436 144.034 16.5083 143.642 16.0377C143.25 15.567 143.054 14.9526 143.054 14.1943C143.054 13.6191 143.171 13.1485 143.407 12.7824C143.642 12.4164 144.021 12.0895 144.544 11.8019C145.459 11.3313 146.61 10.9522 147.995 10.6645C149.381 10.3769 150.741 10.2331 152.074 10.2331ZM150.976 25.6466C151.917 25.6466 152.689 25.3197 153.29 24.6661C153.891 23.9863 154.192 23.1234 154.192 22.0776V21.6069H153.565C151.891 21.6069 150.702 21.7638 149.996 22.0776C149.29 22.3652 148.937 22.862 148.937 23.5679C148.937 24.1693 149.12 24.6661 149.486 25.0583C149.878 25.4505 150.375 25.6466 150.976 25.6466ZM176.146 25.2544C177.898 25.359 178.774 26.1434 178.774 27.6076C178.774 28.5227 178.421 29.2025 177.715 29.647C177.009 30.0915 176.002 30.2745 174.695 30.1961L173.597 30.1177C171.243 29.9346 169.452 29.2287 168.223 27.9998C167.021 26.7447 166.419 25.006 166.419 22.7835V15.8416H165.282C163.19 15.8416 162.144 14.9787 162.144 13.2531C162.144 11.5535 163.19 10.7038 165.282 10.7038H166.419V8.15446C166.419 7.16088 166.733 6.37648 167.361 5.80126C167.988 5.19988 168.838 4.8992 169.91 4.8992C170.982 4.8992 171.832 5.19988 172.459 5.80126C173.087 6.37648 173.4 7.16088 173.4 8.15446V10.7038H175.558C177.649 10.7038 178.695 11.5535 178.695 13.2531C178.695 14.9787 177.649 15.8416 175.558 15.8416H173.4V23.3718C173.4 23.8686 173.544 24.287 173.832 24.6269C174.146 24.9668 174.538 25.1498 175.008 25.1759L176.146 25.2544ZM184.118 30.2353C183.125 30.2353 182.288 29.9739 181.608 29.4509C180.954 28.9018 180.628 28.0913 180.628 27.0193V13.5276C180.628 12.4556 180.954 11.6581 181.608 11.1352C182.288 10.5861 183.125 10.3116 184.118 10.3116C185.112 10.3116 185.935 10.5861 186.589 11.1352C187.269 11.6581 187.609 12.4556 187.609 13.5276V27.0193C187.609 28.0913 187.269 28.9018 186.589 29.4509C185.935 29.9739 185.112 30.2353 184.118 30.2353ZM184.118 7.56616C182.942 7.56616 182 7.26547 181.294 6.6641C180.615 6.03658 180.275 5.21296 180.275 4.19324C180.275 3.17352 180.615 2.36297 181.294 1.7616C182 1.16022 182.942 0.859538 184.118 0.859538C185.269 0.859538 186.197 1.16022 186.903 1.7616C187.609 2.36297 187.962 3.17352 187.962 4.19324C187.962 5.21296 187.609 6.03658 186.903 6.6641C186.223 7.26547 185.295 7.56616 184.118 7.56616ZM201.385 30.3138C199.267 30.3138 197.397 29.9085 195.776 29.0979C194.181 28.2612 192.939 27.0846 192.05 25.5681C191.188 24.0516 190.756 22.2737 190.756 20.2342C190.756 18.1948 191.188 16.4299 192.05 14.9395C192.939 13.423 194.181 12.2595 195.776 11.4489C197.371 10.6384 199.241 10.2331 201.385 10.2331C203.529 10.2331 205.398 10.6384 206.993 11.4489C208.588 12.2595 209.817 13.423 210.68 14.9395C211.569 16.4299 212.013 18.1948 212.013 20.2342C212.013 22.2737 211.569 24.0516 210.68 25.5681C209.817 27.0846 208.588 28.2612 206.993 29.0979C205.398 29.9085 203.529 30.3138 201.385 30.3138ZM201.385 25.0975C203.869 25.0975 205.111 23.4764 205.111 20.2342C205.111 16.992 203.869 15.3709 201.385 15.3709C198.901 15.3709 197.659 16.992 197.659 20.2342C197.659 23.4764 198.901 25.0975 201.385 25.0975ZM228.157 10.2331C230.458 10.2331 232.17 10.926 233.295 12.3118C234.419 13.6714 234.981 15.7501 234.981 18.5478V27.0193C234.981 28.0129 234.667 28.7973 234.04 29.3725C233.412 29.9477 232.562 30.2353 231.49 30.2353C230.418 30.2353 229.569 29.9477 228.941 29.3725C228.314 28.7973 228 28.0129 228 27.0193V18.8615C228 17.7111 227.791 16.8744 227.372 16.3514C226.98 15.8285 226.379 15.567 225.568 15.567C224.522 15.567 223.686 15.9069 223.058 16.5868C222.457 17.2404 222.156 18.1294 222.156 19.2537V27.0193C222.156 28.0129 221.842 28.7973 221.215 29.3725C220.587 29.9477 219.738 30.2353 218.666 30.2353C217.594 30.2353 216.744 29.9477 216.116 29.3725C215.489 28.7973 215.175 28.0129 215.175 27.0193V13.4492C215.175 12.534 215.502 11.7888 216.155 11.2136C216.809 10.6122 217.659 10.3116 218.705 10.3116C219.698 10.3116 220.483 10.5861 221.058 11.1352C221.659 11.6843 221.96 12.4033 221.96 13.2923C222.64 12.2987 223.516 11.5405 224.588 11.0175C225.66 10.4946 226.849 10.2331 228.157 10.2331ZM246.53 30.3138C244.778 30.3138 243.301 30.183 242.098 29.9216C240.895 29.6601 239.837 29.2417 238.921 28.6665C238.555 28.4835 238.268 28.1697 238.059 27.7252C237.849 27.2807 237.745 26.784 237.745 26.2349C237.745 25.5289 237.928 24.9537 238.294 24.5092C238.686 24.0386 239.17 23.8032 239.745 23.8032C240.137 23.8032 240.503 23.8555 240.843 23.9601C241.183 24.0386 241.601 24.1824 242.098 24.3915C242.935 24.6792 243.667 24.9014 244.295 25.0583C244.948 25.2152 245.772 25.2936 246.765 25.2936C247.471 25.2936 248.02 25.2021 248.413 25.0191C248.831 24.8099 249.04 24.5223 249.04 24.1562C249.04 23.8686 248.936 23.6464 248.726 23.4895C248.543 23.3326 248.177 23.1888 247.628 23.0581C247.079 22.9012 246.151 22.692 244.844 22.4305C242.517 21.986 240.83 21.3193 239.784 20.4303C238.765 19.5152 238.255 18.234 238.255 16.5868C238.255 15.384 238.621 14.2989 239.353 13.3315C240.111 12.3641 241.144 11.6058 242.451 11.0567C243.759 10.5077 245.223 10.2331 246.844 10.2331C248.02 10.2331 249.158 10.3769 250.256 10.6645C251.38 10.9522 252.374 11.3574 253.237 11.8804C254.047 12.351 254.453 13.1093 254.453 14.1551C254.453 14.8872 254.256 15.5017 253.864 15.9985C253.472 16.4952 252.988 16.7436 252.413 16.7436C251.733 16.7436 250.923 16.5214 249.981 16.0769C249.354 15.7893 248.792 15.5801 248.295 15.4494C247.824 15.2925 247.262 15.2141 246.609 15.2141C245.955 15.2141 245.445 15.3186 245.079 15.5278C244.713 15.7108 244.53 15.9854 244.53 16.3514C244.53 16.7698 244.778 17.0966 245.275 17.3319C245.798 17.5673 246.818 17.8287 248.334 18.1163C250.87 18.5608 252.661 19.2406 253.707 20.1558C254.753 21.0448 255.276 22.339 255.276 24.0386C255.276 25.9473 254.479 27.4768 252.884 28.6273C251.315 29.7516 249.197 30.3138 246.53 30.3138Z" fill="#F6F7F9"/>
</svg>
