<svg width="239" height="167" viewBox="0 0 239 167" fill="none" xmlns="http://www.w3.org/2000/svg">
<path d="M6.03578 36C4.7451 36 3.75348 35.6537 3.06092 34.9612C2.36836 34.2686 2.02208 33.277 2.02208 31.9863V6.7236C2.02208 5.43292 2.36836 4.4413 3.06092 3.74874C3.75348 3.05618 4.7451 2.7099 6.03578 2.7099H15.5742C19.2574 2.7099 22.4211 3.38672 25.0654 4.74036C27.7412 6.06252 29.7874 7.96706 31.204 10.454C32.6206 12.9409 33.3289 15.9 33.3289 19.3313C33.3289 22.7941 32.6206 25.7847 31.204 28.3031C29.8189 30.7901 27.7885 32.6946 25.1127 34.0168C22.4683 35.3389 19.2889 36 15.5742 36H6.03578ZM14.9604 29.0114C18.2028 29.0114 20.6268 28.2244 22.2322 26.6504C23.8692 25.045 24.6877 22.6053 24.6877 19.3313C24.6877 16.0574 23.8692 13.6335 22.2322 12.0595C20.6268 10.4855 18.2028 9.69846 14.9604 9.69846H10.7106V29.0114H14.9604ZM42.1797 36.2833C40.9835 36.2833 39.9761 35.9685 39.1577 35.3389C38.3707 34.6778 37.9772 33.702 37.9772 32.4113V16.1676C37.9772 14.8769 38.3707 13.9168 39.1577 13.2872C39.9761 12.6261 40.9835 12.2956 42.1797 12.2956C43.376 12.2956 44.3676 12.6261 45.1546 13.2872C45.9731 13.9168 46.3823 14.8769 46.3823 16.1676V32.4113C46.3823 33.702 45.9731 34.6778 45.1546 35.3389C44.3676 35.9685 43.376 36.2833 42.1797 36.2833ZM42.1797 8.99016C40.7631 8.99016 39.6299 8.62814 38.7799 7.9041C37.9614 7.14858 37.5522 6.15696 37.5522 4.92924C37.5522 3.70152 37.9614 2.72564 38.7799 2.0016C39.6299 1.27756 40.7631 0.915538 42.1797 0.915538C43.5649 0.915538 44.6824 1.27756 45.5324 2.0016C46.3823 2.72564 46.8073 3.70152 46.8073 4.92924C46.8073 6.15696 46.3823 7.14858 45.5324 7.9041C44.7139 8.62814 43.5963 8.99016 42.1797 8.99016ZM60.4185 36.3778C58.3093 36.3778 56.5307 36.2204 55.0826 35.9056C53.6345 35.5908 52.3596 35.0871 51.2578 34.3945C50.8171 34.1742 50.4708 33.7964 50.2189 33.2612C49.9671 32.7261 49.8412 32.128 49.8412 31.4669C49.8412 30.6169 50.0615 29.9244 50.5023 29.3892C50.9745 28.8226 51.5568 28.5392 52.2494 28.5392C52.7216 28.5392 53.1623 28.6022 53.5716 28.7281C53.9808 28.8226 54.4845 28.9957 55.0826 29.2475C56.09 29.5938 56.9714 29.8614 57.7269 30.0503C58.5139 30.2392 59.5055 30.3336 60.7018 30.3336C61.5517 30.3336 62.2128 30.2234 62.685 30.0031C63.1887 29.7512 63.4405 29.4049 63.4405 28.9642C63.4405 28.6179 63.3146 28.3504 63.0628 28.1615C62.8424 27.9726 62.4017 27.7995 61.7406 27.6421C61.0795 27.4532 59.962 27.2013 58.388 26.8865C55.5863 26.3514 53.5558 25.5486 52.2966 24.4783C51.0689 23.3765 50.455 21.834 50.455 19.8508C50.455 18.4027 50.8958 17.0963 51.7772 15.9315C52.6901 14.7667 53.9336 13.8538 55.5076 13.1927C57.0816 12.5317 58.8445 12.2011 60.7962 12.2011C62.2128 12.2011 63.5822 12.3743 64.9044 12.7205C66.258 13.0668 67.4542 13.5548 68.4931 14.1844C69.469 14.751 69.9569 15.6639 69.9569 16.9231C69.9569 17.8046 69.7208 18.5443 69.2486 19.1425C68.7764 19.7406 68.194 20.0396 67.5015 20.0396C66.683 20.0396 65.7071 19.7721 64.5738 19.2369C63.8183 18.8906 63.1415 18.6388 62.5434 18.4814C61.9767 18.2925 61.2999 18.1981 60.5129 18.1981C59.7259 18.1981 59.112 18.324 58.6713 18.5758C58.2306 18.7962 58.0102 19.1267 58.0102 19.5674C58.0102 20.0711 58.3093 20.4646 58.9074 20.7479C59.537 21.0313 60.7647 21.3461 62.5906 21.6923C65.6441 22.2275 67.8005 23.046 69.0597 24.1478C70.3189 25.2181 70.9485 26.7764 70.9485 28.8226C70.9485 31.1206 69.9884 32.9622 68.0681 34.3473C66.1793 35.7009 63.6294 36.3778 60.4185 36.3778ZM85.5978 36.3778C81.8202 36.3778 78.8296 35.3074 76.626 33.1668C74.4224 31.0262 73.3206 28.1143 73.3206 24.4311C73.3206 22.0071 73.8558 19.8665 74.9261 18.0092C75.9964 16.1519 77.4917 14.7195 79.412 13.7122C81.3637 12.7048 83.5831 12.2011 86.07 12.2011C87.3922 12.2011 88.7143 12.3743 90.0365 12.7205C91.3586 13.0668 92.5234 13.5548 93.5308 14.1844C94.5066 14.7825 94.9946 15.6954 94.9946 16.9231C94.9946 17.899 94.7585 18.7017 94.2863 19.3313C93.8456 19.9295 93.2632 20.2285 92.5391 20.2285C92.0669 20.2285 91.6105 20.1656 91.1698 20.0396C90.729 19.8822 90.2411 19.6619 89.7059 19.3786C89.0763 19.0952 88.5412 18.8906 88.1005 18.7647C87.6597 18.6073 87.1718 18.5286 86.6366 18.5286C83.5201 18.5286 81.9619 20.4331 81.9619 24.2422C81.9619 26.131 82.3554 27.5791 83.1424 28.5865C83.9608 29.5623 85.1256 30.0503 86.6366 30.0503C87.1718 30.0503 87.6597 29.9873 88.1005 29.8614C88.5727 29.704 89.0921 29.4836 89.6587 29.2003C90.2883 28.917 90.792 28.7124 91.1698 28.5865C91.579 28.4291 92.0197 28.3504 92.4919 28.3504C93.216 28.3504 93.7983 28.6652 94.2391 29.2948C94.7113 29.8929 94.9474 30.6799 94.9474 31.6558C94.9474 32.2539 94.8214 32.8048 94.5696 33.3085C94.3178 33.7807 93.9715 34.1427 93.5308 34.3945C91.3586 35.7167 88.7143 36.3778 85.5978 36.3778ZM117.235 12.2956C118.526 12.2956 119.549 12.6418 120.305 13.3344C121.06 14.027 121.438 14.9714 121.438 16.1676V32.5057C121.438 33.6075 121.044 34.5204 120.257 35.2445C119.47 35.937 118.447 36.2833 117.188 36.2833C116.055 36.2833 115.126 35.9843 114.402 35.3861C113.678 34.7565 113.3 33.9223 113.269 32.8835C112.545 34.0168 111.616 34.8825 110.483 35.4806C109.381 36.0787 108.106 36.3778 106.658 36.3778C103.667 36.3778 101.448 35.5593 99.9999 33.9223C98.5518 32.2539 97.8278 29.7355 97.8278 26.3671V16.1676C97.8278 14.9714 98.2055 14.027 98.9611 13.3344C99.7166 12.6418 100.74 12.2956 102.03 12.2956C103.321 12.2956 104.344 12.6418 105.1 13.3344C105.855 14.027 106.233 14.9714 106.233 16.1676V26.556C106.233 28.8226 107.209 29.9558 109.161 29.9558C110.294 29.9558 111.223 29.5466 111.947 28.7281C112.671 27.9096 113.033 26.8393 113.033 25.5172V16.1676C113.033 14.9714 113.41 14.027 114.166 13.3344C114.921 12.6418 115.945 12.2956 117.235 12.2956ZM135.491 36.3778C133.382 36.3778 131.603 36.2204 130.155 35.9056C128.707 35.5908 127.432 35.0871 126.33 34.3945C125.889 34.1742 125.543 33.7964 125.291 33.2612C125.04 32.7261 124.914 32.128 124.914 31.4669C124.914 30.6169 125.134 29.9244 125.575 29.3892C126.047 28.8226 126.629 28.5392 127.322 28.5392C127.794 28.5392 128.235 28.6022 128.644 28.7281C129.053 28.8226 129.557 28.9957 130.155 29.2475C131.162 29.5938 132.044 29.8614 132.799 30.0503C133.586 30.2392 134.578 30.3336 135.774 30.3336C136.624 30.3336 137.285 30.2234 137.757 30.0031C138.261 29.7512 138.513 29.4049 138.513 28.9642C138.513 28.6179 138.387 28.3504 138.135 28.1615C137.915 27.9726 137.474 27.7995 136.813 27.6421C136.152 27.4532 135.034 27.2013 133.46 26.8865C130.659 26.3514 128.628 25.5486 127.369 24.4783C126.141 23.3765 125.527 21.834 125.527 19.8508C125.527 18.4027 125.968 17.0963 126.85 15.9315C127.763 14.7667 129.006 13.8538 130.58 13.1927C132.154 12.5317 133.917 12.2011 135.869 12.2011C137.285 12.2011 138.655 12.3743 139.977 12.7205C141.33 13.0668 142.527 13.5548 143.566 14.1844C144.541 14.751 145.029 15.6639 145.029 16.9231C145.029 17.8046 144.793 18.5443 144.321 19.1425C143.849 19.7406 143.266 20.0396 142.574 20.0396C141.755 20.0396 140.78 19.7721 139.646 19.2369C138.891 18.8906 138.214 18.6388 137.616 18.4814C137.049 18.2925 136.372 18.1981 135.585 18.1981C134.798 18.1981 134.184 18.324 133.744 18.5758C133.303 18.7962 133.083 19.1267 133.083 19.5674C133.083 20.0711 133.382 20.4646 133.98 20.7479C134.609 21.0313 135.837 21.3461 137.663 21.6923C140.717 22.2275 142.873 23.046 144.132 24.1478C145.391 25.2181 146.021 26.7764 146.021 28.8226C146.021 31.1206 145.061 32.9622 143.141 34.3473C141.252 35.7009 138.702 36.3778 135.491 36.3778ZM158.64 36.3778C156.531 36.3778 154.752 36.2204 153.304 35.9056C151.856 35.5908 150.581 35.0871 149.479 34.3945C149.038 34.1742 148.692 33.7964 148.44 33.2612C148.188 32.7261 148.062 32.128 148.062 31.4669C148.062 30.6169 148.283 29.9244 148.724 29.3892C149.196 28.8226 149.778 28.5392 150.471 28.5392C150.943 28.5392 151.384 28.6022 151.793 28.7281C152.202 28.8226 152.706 28.9957 153.304 29.2475C154.311 29.5938 155.193 29.8614 155.948 30.0503C156.735 30.2392 157.727 30.3336 158.923 30.3336C159.773 30.3336 160.434 30.2234 160.906 30.0031C161.41 29.7512 161.662 29.4049 161.662 28.9642C161.662 28.6179 161.536 28.3504 161.284 28.1615C161.064 27.9726 160.623 27.7995 159.962 27.6421C159.301 27.4532 158.183 27.2013 156.609 26.8865C153.808 26.3514 151.777 25.5486 150.518 24.4783C149.29 23.3765 148.676 21.834 148.676 19.8508C148.676 18.4027 149.117 17.0963 149.998 15.9315C150.911 14.7667 152.155 13.8538 153.729 13.1927C155.303 12.5317 157.066 12.2011 159.018 12.2011C160.434 12.2011 161.803 12.3743 163.126 12.7205C164.479 13.0668 165.676 13.5548 166.714 14.1844C167.69 14.751 168.178 15.6639 168.178 16.9231C168.178 17.8046 167.942 18.5443 167.47 19.1425C166.998 19.7406 166.415 20.0396 165.723 20.0396C164.904 20.0396 163.928 19.7721 162.795 19.2369C162.04 18.8906 161.363 18.6388 160.765 18.4814C160.198 18.2925 159.521 18.1981 158.734 18.1981C157.947 18.1981 157.333 18.324 156.893 18.5758C156.452 18.7962 156.232 19.1267 156.232 19.5674C156.232 20.0711 156.531 20.4646 157.129 20.7479C157.758 21.0313 158.986 21.3461 160.812 21.6923C163.865 22.2275 166.022 23.046 167.281 24.1478C168.54 25.2181 169.17 26.7764 169.17 28.8226C169.17 31.1206 168.21 32.9622 166.289 34.3473C164.401 35.7009 161.851 36.3778 158.64 36.3778ZM176.831 36.2833C175.634 36.2833 174.627 35.9685 173.808 35.3389C173.021 34.6778 172.628 33.702 172.628 32.4113V16.1676C172.628 14.8769 173.021 13.9168 173.808 13.2872C174.627 12.6261 175.634 12.2956 176.831 12.2956C178.027 12.2956 179.018 12.6261 179.805 13.2872C180.624 13.9168 181.033 14.8769 181.033 16.1676V32.4113C181.033 33.702 180.624 34.6778 179.805 35.3389C179.018 35.9685 178.027 36.2833 176.831 36.2833ZM176.831 8.99016C175.414 8.99016 174.281 8.62814 173.431 7.9041C172.612 7.14858 172.203 6.15696 172.203 4.92924C172.203 3.70152 172.612 2.72564 173.431 2.0016C174.281 1.27756 175.414 0.915538 176.831 0.915538C178.216 0.915538 179.333 1.27756 180.183 2.0016C181.033 2.72564 181.458 3.70152 181.458 4.92924C181.458 6.15696 181.033 7.14858 180.183 7.9041C179.365 8.62814 178.247 8.99016 176.831 8.99016ZM197.619 36.3778C195.069 36.3778 192.818 35.8898 190.867 34.9139C188.946 33.9066 187.451 32.49 186.381 30.6641C185.342 28.8383 184.823 26.6977 184.823 24.2422C184.823 21.7868 185.342 19.6619 186.381 17.8675C187.451 16.0417 188.946 14.6408 190.867 13.6649C192.787 12.6891 195.038 12.2011 197.619 12.2011C200.2 12.2011 202.451 12.6891 204.372 13.6649C206.292 14.6408 207.771 16.0417 208.81 17.8675C209.881 19.6619 210.416 21.7868 210.416 24.2422C210.416 26.6977 209.881 28.8383 208.81 30.6641C207.771 32.49 206.292 33.9066 204.372 34.9139C202.451 35.8898 200.2 36.3778 197.619 36.3778ZM197.619 30.0975C200.61 30.0975 202.105 28.1457 202.105 24.2422C202.105 20.3387 200.61 18.3869 197.619 18.3869C194.629 18.3869 193.133 20.3387 193.133 24.2422C193.133 28.1457 194.629 30.0975 197.619 30.0975ZM229.852 12.2011C232.622 12.2011 234.684 13.0353 236.038 14.7038C237.391 16.3407 238.068 18.8434 238.068 22.2118V32.4113C238.068 33.6075 237.69 34.5519 236.935 35.2445C236.179 35.937 235.156 36.2833 233.866 36.2833C232.575 36.2833 231.552 35.937 230.796 35.2445C230.041 34.5519 229.663 33.6075 229.663 32.4113V22.5895C229.663 21.2044 229.411 20.197 228.908 19.5674C228.435 18.9378 227.711 18.623 226.735 18.623C225.476 18.623 224.469 19.0323 223.713 19.8508C222.989 20.6378 222.627 21.7081 222.627 23.0617V32.4113C222.627 33.6075 222.25 34.5519 221.494 35.2445C220.738 35.937 219.715 36.2833 218.425 36.2833C217.134 36.2833 216.111 35.937 215.355 35.2445C214.6 34.5519 214.222 33.6075 214.222 32.4113V16.0732C214.222 14.9714 214.616 14.0742 215.403 13.3816C216.19 12.6576 217.213 12.2956 218.472 12.2956C219.668 12.2956 220.613 12.6261 221.305 13.2872C222.029 13.9483 222.391 14.814 222.391 15.8843C223.21 14.688 224.264 13.7751 225.555 13.1455C226.846 12.5159 228.278 12.2011 229.852 12.2011ZM10.6161 166.378C8.50696 166.378 6.72834 166.22 5.28026 165.906C3.83218 165.591 2.55724 165.087 1.45544 164.395C1.01472 164.174 0.66844 163.796 0.4166 163.261C0.16476 162.726 0.0388401 162.128 0.0388401 161.467C0.0388401 160.617 0.2592 159.924 0.69992 159.389C1.17212 158.823 1.7545 158.539 2.44706 158.539C2.91926 158.539 3.35998 158.602 3.76922 158.728C4.17846 158.823 4.68214 158.996 5.28026 159.248C6.28762 159.594 7.16906 159.861 7.92458 160.05C8.71158 160.239 9.7032 160.334 10.8994 160.334C11.7494 160.334 12.4105 160.223 12.8827 160.003C13.3864 159.751 13.6382 159.405 13.6382 158.964C13.6382 158.618 13.5123 158.35 13.2604 158.161C13.0401 157.973 12.5994 157.799 11.9383 157.642C11.2772 157.453 10.1597 157.201 8.58566 156.887C5.78394 156.351 3.75348 155.549 2.49428 154.478C1.26656 153.377 0.6527 151.834 0.6527 149.851C0.6527 148.403 1.09342 147.096 1.97486 145.931C2.88778 144.767 4.13124 143.854 5.70524 143.193C7.27924 142.532 9.04212 142.201 10.9939 142.201C12.4105 142.201 13.7799 142.374 15.102 142.721C16.4557 143.067 17.6519 143.555 18.6907 144.184C19.6666 144.751 20.1546 145.664 20.1546 146.923C20.1546 147.805 19.9185 148.544 19.4463 149.142C18.9741 149.741 18.3917 150.04 17.6991 150.04C16.8806 150.04 15.9048 149.772 14.7715 149.237C14.016 148.891 13.3391 148.639 12.741 148.481C12.1744 148.292 11.4976 148.198 10.7106 148.198C9.92356 148.198 9.3097 148.324 8.86898 148.576C8.42826 148.796 8.2079 149.127 8.2079 149.567C8.2079 150.071 8.50696 150.465 9.10508 150.748C9.73468 151.031 10.9624 151.346 12.7882 151.692C15.8418 152.227 17.9982 153.046 19.2574 154.148C20.5166 155.218 21.1462 156.776 21.1462 158.823C21.1462 161.121 20.186 162.962 18.2658 164.347C16.377 165.701 13.8271 166.378 10.6161 166.378Z" fill="#F6F7F9"/>
</svg>
