<?xml version="1.0" encoding="UTF-8"?>
<svg width="27px" height="27px" viewBox="0 0 27 27" version="1.1" xmlns="http://www.w3.org/2000/svg" xmlns:xlink="http://www.w3.org/1999/xlink">
    <!-- Generator: Sketch 56.2 (81672) - https://sketch.com -->
    <title>btc</title>
    <desc>Created with Sketch.</desc>
    <defs>
        <linearGradient x1="62.8444295%" y1="5.09803497%" x2="39.5650322%" y2="95.9523493%" id="linearGradient-1">
            <stop stop-color="#FFFFFF" offset="0%"></stop>
            <stop stop-color="#FFFFFF" stop-opacity="0.83" offset="100%"></stop>
        </linearGradient>
    </defs>
    <g id="页面-1" stroke="none" stroke-width="1" fill="none" fill-rule="evenodd">
        <g id="btc">
            <circle id="椭圆形" fill="#F7931A" fill-rule="nonzero" cx="13.5" cy="13.5" r="13.5"></circle>
            <path d="M19.7829,12.1014 C19.5918,13.3811 18.8742,14.1101 17.6303,14.2884 C18.4505,14.7451 19.0093,15.2947 19.3068,15.937 C19.6042,16.5794 19.5805,17.3589 19.2356,18.2753 C19.0567,18.7426 18.8242,19.1311 18.5381,19.4406 C18.252,19.7501 17.9327,19.9796 17.5801,20.1291 C17.2275,20.2787 16.8146,20.3674 16.3412,20.3954 C15.8679,20.4235 15.3852,20.4027 14.8933,20.3331 C14.4013,20.2636 13.8468,20.1491 13.2298,19.9898 L12.5467,22.5932 L10.8286,22.0678 L11.5009,19.5053 C10.9059,19.3233 10.4531,19.1811 10.1425,19.0788 L9.46747,21.6515 L7.74934,21.1261 L8.43243,18.5228 C8.29855,18.4818 8.09818,18.4187 7.83131,18.3334 C7.56445,18.2481 7.36035,18.1839 7.21904,18.1407 L4.98771,17.4583 L5.82378,15.6958 L7.06217,16.0745 C7.43406,16.1882 7.69529,16.0806 7.84587,15.7517 L8.92274,11.6476 L9.10125,11.7022 C9.0584,11.6818 8.9998,11.6602 8.92542,11.6374 L9.69423,8.7074 C9.71897,8.21502 9.44871,7.88239 8.88344,7.70953 L7.64506,7.33082 L8.08437,5.65651 L10.4469,6.39003 C10.9229,6.5356 11.2845,6.64251 11.5318,6.71076 L12.2068,4.13805 L13.925,4.66347 L13.2633,7.18513 C13.8768,7.35803 14.3323,7.48997 14.6298,7.58096 L15.2861,5.07971 L17.0042,5.60513 L16.3291,8.17784 C16.9042,8.40517 17.4048,8.64096 17.8308,8.8852 C18.2568,9.12944 18.6369,9.41109 18.9709,9.73014 C19.305,10.0492 19.5422,10.4085 19.6824,10.8079 C19.8227,11.2074 19.8562,11.6386 19.7829,12.1014 Z M15.8279,16.9422 C15.8913,16.7007 15.8924,16.4692 15.8313,16.2476 C15.7701,16.026 15.6744,15.8301 15.5441,15.6599 C15.4138,15.4896 15.2289,15.3227 14.9895,15.1589 C14.7501,14.9952 14.5252,14.8595 14.3148,14.7517 C14.1045,14.644 13.8399,14.5305 13.5212,14.4114 C13.2024,14.2923 12.951,14.2046 12.7669,14.1483 C12.5828,14.0921 12.3444,14.0229 12.0517,13.9407 C11.7591,13.8585 11.5833,13.8085 11.5244,13.7905 L10.6314,17.1913 C10.6903,17.2093 10.8261,17.2526 11.0388,17.3212 C11.2515,17.3898 11.4278,17.4455 11.5677,17.4883 C11.7077,17.531 11.9041,17.5856 12.1572,17.652 C12.4102,17.7185 12.6291,17.7709 12.814,17.8092 C12.9988,17.8476 13.2162,17.8832 13.4661,17.9161 C13.716,17.949 13.9327,17.9645 14.1161,17.9625 C14.2996,17.9606 14.493,17.9436 14.6963,17.9116 C14.8996,17.8795 15.0715,17.8233 15.2119,17.743 C15.3523,17.6628 15.4778,17.5562 15.5882,17.4233 C15.6987,17.2904 15.7786,17.13 15.8279,16.9422 Z M16.4378,11.7509 C16.496,11.5289 16.5016,11.3182 16.4544,11.1185 C16.4073,10.9189 16.3319,10.7433 16.2283,10.5918 C16.1247,10.4402 15.9725,10.292 15.7716,10.1471 C15.5707,10.0021 15.3825,9.88468 15.207,9.79472 C15.0315,9.70476 14.8118,9.60856 14.548,9.50614 C14.2842,9.40371 14.0726,9.32995 13.9132,9.28486 C13.7537,9.23977 13.5538,9.18229 13.3133,9.11241 C13.0728,9.04254 12.9267,8.99971 12.8751,8.98394 L12.0622,12.0807 C12.0991,12.0919 12.2258,12.1325 12.4425,12.2023 C12.6591,12.2722 12.8305,12.3246 12.9567,12.3595 C13.083,12.3944 13.2691,12.4441 13.515,12.5083 C13.761,12.5726 13.9686,12.6161 14.1379,12.6388 C14.3071,12.6615 14.5067,12.6825 14.7366,12.7019 C14.9664,12.7213 15.1616,12.7138 15.322,12.6792 C15.4823,12.6447 15.6426,12.5956 15.8027,12.532 C15.9627,12.4683 16.0962,12.3693 16.2032,12.2349 C16.3102,12.1005 16.3884,11.9392 16.4378,11.7509 Z" id="形状" fill="url(#linearGradient-1)"></path>
        </g>
    </g>
</svg>