<?xml version="1.0" encoding="UTF-8"?>
<svg width="49px" height="48px" viewBox="0 0 49 48" version="1.1" xmlns="http://www.w3.org/2000/svg" xmlns:xlink="http://www.w3.org/1999/xlink">
    <!-- Generator: Sketch 56.2 (81672) - https://sketch.com -->
    <title>calendar</title>
    <desc>Created with Sketch.</desc>
    <g id="页面-1" stroke="none" stroke-width="1" fill="none" fill-rule="evenodd">
        <g id="calendar" transform="translate(0.000000, -1.000000)" fill-rule="nonzero">
            <circle id="椭圆形" fill="#4E87F7" cx="24.3262" cy="24.7638" r="23.7672"></circle>
            <path d="M30.628,22.9534 C31.1635,22.9534 31.5975,22.5194 31.5975,21.9839 C31.5975,21.4485 31.1635,21.0144 30.628,21.0144 C30.0926,21.0144 29.6585,21.4485 29.6585,21.9839 C29.6585,22.5194 30.0926,22.9534 30.628,22.9534 Z" id="路径" fill="#FFFFFF"></path>
            <path d="M32.858,13.743 L31.5976,13.743 L31.5976,12.7735 C31.5976,12.238 31.1636,11.804 30.6281,11.804 C30.0926,11.804 29.6586,12.238 29.6586,12.7735 L29.6586,13.743 L25.2473,13.743 L25.2473,12.7735 C25.2473,12.238 24.8132,11.804 24.2777,11.804 C23.7423,11.804 23.3082,12.238 23.3082,12.7735 L23.3082,13.743 L18.9454,13.743 L18.9454,12.7735 C18.9454,12.238 18.5113,11.804 17.9759,11.804 C17.4404,11.804 17.0064,12.238 17.0064,12.7735 L17.0064,13.743 L15.7945,13.743 C13.6561,13.743 11.9164,15.4827 11.9164,17.6211 L11.9164,32.7456 C11.9164,34.8839 13.6561,36.6236 15.7945,36.6236 L23.2113,36.6236 C23.7467,36.6236 24.1808,36.1896 24.1808,35.6541 C24.1808,35.1186 23.7467,34.6846 23.2113,34.6846 L15.7945,34.6846 C14.7253,34.6846 13.8554,33.8147 13.8554,32.7456 L13.8554,17.6211 C13.8554,16.5519 14.7253,15.682 15.7945,15.682 L17.0064,15.682 L17.0064,16.6515 C17.0064,17.187 17.4404,17.6211 17.9759,17.6211 C18.5113,17.6211 18.9454,17.187 18.9454,16.6515 L18.9454,15.682 L23.3082,15.682 L23.3082,16.6515 C23.3082,17.187 23.7423,17.6211 24.2777,17.6211 C24.8132,17.6211 25.2473,17.187 25.2473,16.6515 L25.2473,15.682 L29.6586,15.682 L29.6586,16.6515 C29.6586,17.187 30.0926,17.6211 30.6281,17.6211 C31.1636,17.6211 31.5976,17.187 31.5976,16.6515 L31.5976,15.682 L32.858,15.682 C33.9272,15.682 34.797,16.5519 34.797,17.6211 L34.797,23.1473 C34.797,23.6828 35.2311,24.1168 35.7665,24.1168 C36.302,24.1168 36.7361,23.6828 36.7361,23.1473 L36.7361,17.6211 C36.7361,15.4827 34.9964,13.743 32.858,13.743 Z" id="路径" fill="#FFFFFF"></path>
            <path d="M30.8705,24.8925 C27.6362,24.8925 25.0049,27.5237 25.0049,30.758 C25.0049,33.9924 27.6362,36.6236 30.8705,36.6236 C34.1048,36.6236 36.7361,33.9924 36.7361,30.758 C36.7361,27.5237 34.1048,24.8925 30.8705,24.8925 Z M30.8705,34.6846 C28.7054,34.6846 26.9439,32.9232 26.9439,30.758 C26.9439,28.5929 28.7054,26.8315 30.8705,26.8315 C33.0356,26.8315 34.797,28.5929 34.797,30.758 C34.797,32.9232 33.0356,34.6846 30.8705,34.6846 Z" id="形状" fill="#FFFFFF"></path>
            <path d="M32.2763,29.7885 L31.84,29.7885 L31.84,28.7705 C31.84,28.2351 31.4059,27.801 30.8705,27.801 C30.335,27.801 29.9009,28.2351 29.9009,28.7705 L29.9009,30.7581 C29.9009,31.2935 30.335,31.7276 30.8705,31.7276 L32.2763,31.7276 C32.8117,31.7276 33.2458,31.2935 33.2458,30.7581 C33.2458,30.2226 32.8117,29.7885 32.2763,29.7885 Z" id="路径" fill="#FFFFFF"></path>
            <path d="M26.4107,22.9534 C26.9461,22.9534 27.3802,22.5194 27.3802,21.9839 C27.3802,21.4485 26.9461,21.0144 26.4107,21.0144 C25.8752,21.0144 25.4412,21.4485 25.4412,21.9839 C25.4412,22.5194 25.8752,22.9534 26.4107,22.9534 Z" id="路径" fill="#FFFFFF"></path>
            <path d="M22.1933,27.1708 C22.7287,27.1708 23.1628,26.7368 23.1628,26.2013 C23.1628,25.6659 22.7287,25.2318 22.1933,25.2318 C21.6578,25.2318 21.2238,25.6659 21.2238,26.2013 C21.2238,26.7368 21.6578,27.1708 22.1933,27.1708 Z" id="路径" fill="#FFFFFF"></path>
            <path d="M17.9759,22.9534 C18.5113,22.9534 18.9454,22.5194 18.9454,21.9839 C18.9454,21.4485 18.5113,21.0144 17.9759,21.0144 C17.4404,21.0144 17.0063,21.4485 17.0063,21.9839 C17.0063,22.5194 17.4404,22.9534 17.9759,22.9534 Z" id="路径" fill="#FFFFFF"></path>
            <path d="M17.9759,27.1708 C18.5113,27.1708 18.9454,26.7368 18.9454,26.2013 C18.9454,25.6659 18.5113,25.2318 17.9759,25.2318 C17.4404,25.2318 17.0063,25.6659 17.0063,26.2013 C17.0063,26.7368 17.4404,27.1708 17.9759,27.1708 Z" id="路径" fill="#FFFFFF"></path>
            <path d="M17.9759,31.3883 C18.5113,31.3883 18.9454,30.9542 18.9454,30.4187 C18.9454,29.8833 18.5113,29.4492 17.9759,29.4492 C17.4404,29.4492 17.0063,29.8833 17.0063,30.4187 C17.0063,30.9542 17.4404,31.3883 17.9759,31.3883 Z" id="路径" fill="#FFFFFF"></path>
            <path d="M22.1933,31.3883 C22.7287,31.3883 23.1628,30.9542 23.1628,30.4187 C23.1628,29.8833 22.7287,29.4492 22.1933,29.4492 C21.6578,29.4492 21.2238,29.8833 21.2238,30.4187 C21.2238,30.9542 21.6578,31.3883 22.1933,31.3883 Z" id="路径" fill="#FFFFFF"></path>
            <path d="M22.1933,22.9534 C22.7287,22.9534 23.1628,22.5194 23.1628,21.9839 C23.1628,21.4485 22.7287,21.0144 22.1933,21.0144 C21.6578,21.0144 21.2238,21.4485 21.2238,21.9839 C21.2238,22.5194 21.6578,22.9534 22.1933,22.9534 Z" id="路径" fill="#FFFFFF"></path>
        </g>
    </g>
</svg>