<?xml version="1.0" encoding="UTF-8"?>
<svg width="81px" height="80px" viewBox="0 0 81 80" version="1.1" xmlns="http://www.w3.org/2000/svg" xmlns:xlink="http://www.w3.org/1999/xlink">
    <!-- Generator: Sketch 56.2 (81672) - https://sketch.com -->
    <title>chat</title>
    <desc>Created with Sketch.</desc>
    <g id="页面-1" stroke="none" stroke-width="1" fill="none" fill-rule="evenodd">
        <g id="chat" fill-rule="nonzero">
            <circle id="椭圆形" fill="#4D88F7" cx="40.7773" cy="40.0005" r="40.0005"></circle>
            <path d="M36.0312,33.9082 L36.0312,31.1895 C36.0312,28.6048 38.1341,26.502 40.7188,26.502 L54.0781,26.502 L54.0781,21.3457 C54.0781,20.3101 53.2387,19.4707 52.2031,19.4707 L29.7969,19.4707 C28.7613,19.4707 27.9219,20.3101 27.9219,21.3457 L27.9219,33.9082 L36.0312,33.9082 Z" id="路径" fill="#FFFFFF"></path>
            <path d="M40.7188,50.7832 C38.1341,50.7832 36.0312,48.6804 36.0312,46.0957 L36.0312,36.7207 L18.875,36.7207 C17.8394,36.7207 17,37.5601 17,38.5957 L17,53.502 C17,54.5375 17.8394,55.377 18.875,55.377 L23.8438,55.377 L23.8438,59.5904 C23.8438,60.1457 24.2995,60.5296 24.7851,60.5296 C24.9759,60.5296 25.1712,60.4704 25.3454,60.339 L31.9307,55.3769 L41.2812,55.3769 C42.3168,55.3769 43.1562,54.5374 43.1562,53.5019 L43.1562,50.7831 L40.7188,50.7831 L40.7188,50.7832 Z" id="路径" fill="#FFFFFF"></path>
            <path d="M63.125,29.3145 L40.7188,29.3145 C39.6832,29.3145 38.8438,30.1539 38.8438,31.1895 L38.8438,46.0957 C38.8438,47.1313 39.6832,47.9707 40.7188,47.9707 L50.0693,47.9707 L56.6546,52.9329 C56.8288,53.0642 57.0241,53.1234 57.2149,53.1234 C57.7005,53.1234 58.1562,52.7396 58.1562,52.1842 L58.1562,47.9708 L63.125,47.9708 C64.1606,47.9708 65,47.1314 65,46.0958 L65,31.1895 C65,30.1539 64.1606,29.3145 63.125,29.3145 Z" id="路径" fill="#FFFFFF"></path>
        </g>
    </g>
</svg>