<?xml version="1.0" encoding="UTF-8"?>
<svg width="81px" height="81px" viewBox="0 0 81 81" version="1.1" xmlns="http://www.w3.org/2000/svg" xmlns:xlink="http://www.w3.org/1999/xlink">
    <!-- Generator: Sketch 56.2 (81672) - https://sketch.com -->
    <title>collaborate</title>
    <desc>Created with Sketch.</desc>
    <g id="页面-1" stroke="none" stroke-width="1" fill="none" fill-rule="evenodd">
        <g id="collaborate" fill-rule="nonzero">
            <circle id="椭圆形" fill="#4D88F7" cx="40.9555" cy="40.1637" r="40.0005"></circle>
            <path d="M68.0392,42.2702 C68.0001,42.5847 67.9545,42.8992 67.9284,43.2201 C67.6871,45.9798 66.9959,48.6239 65.8742,51.159 C64.5634,54.1176 62.7571,56.749 60.4355,59.0337 C58.4922,60.9462 56.3076,62.5186 53.8556,63.7444 C53.2491,64.0461 52.5448,63.937 52.0818,63.4877 C51.5797,63.0064 51.4232,62.2555 51.7362,61.6586 C51.8536,61.434 52.0427,61.2094 52.2513,61.0618 C55.0229,59.0786 57.1488,56.5757 58.6226,53.5336 C59.6986,51.313 60.3377,48.9705 60.4942,46.5124 C60.5464,45.7038 60.5464,44.8951 60.5333,44.0544 C58.8769,45.5626 56.9858,46.0568 54.8403,45.4471 C53.5817,45.0941 52.61,44.3239 51.8862,43.2522 C50.4776,41.1663 50.7841,38.2719 52.5709,36.4941 C54.3381,34.7228 57.5922,34.1259 60.1746,36.231 C60.1616,36.1476 60.1616,36.0834 60.142,36.032 C59.2943,33.8628 58.0618,31.931 56.4249,30.256 C54.5925,28.3755 52.4405,26.97 49.9754,26.033 C48.4038,25.4425 46.7866,25.0575 45.1041,24.9612 C44.2694,24.9099 43.4346,24.9227 42.5999,24.9291 C41.85,24.9355 41.1522,24.3836 41.0218,23.652 C40.8848,22.8561 41.3218,22.0796 42.0782,21.887 C42.6195,21.7523 43.1868,21.6881 43.7477,21.6367 C47.3343,21.3351 50.8036,21.8485 54.1295,23.2091 C55.8119,23.8958 57.6835,22.8882 58.0031,21.1169 C58.0226,21.0142 58.0422,20.9115 58.0683,20.7639 C58.1857,20.8409 58.2704,20.8987 58.3487,20.9629 C61.1528,23.1963 63.3961,25.8854 65.0721,29.0301 C66.3372,31.4112 67.2176,33.9334 67.661,36.584 C67.811,37.4697 67.8762,38.3617 67.9806,39.2538 C67.9936,39.3565 68.0197,39.4592 68.0392,39.5619 C68.0392,40.4796 68.0392,41.3781 68.0392,42.2702 Z" id="路径" fill="#FFFFFF"></path>
            <path d="M39.0184,67.7543 C38.9141,67.735 38.8098,67.6965 38.7054,67.6901 C35.7057,67.5682 32.8233,66.9456 30.0387,65.8353 C27.5346,64.8341 25.2456,63.4864 23.1784,61.7792 C20.6742,59.7063 18.6135,57.2611 17.0354,54.4244 C15.7442,52.0882 14.8312,49.6238 14.316,47.0117 C14.0812,45.818 13.9117,44.6114 13.8856,43.392 C13.866,42.5513 13.9052,41.7041 13.8726,40.8634 C13.8465,40.1638 14.5116,39.4771 15.2225,39.4258 C16.0963,39.3552 16.8071,39.8365 16.9506,40.6388 C17.0484,41.1714 17.0941,41.717 17.1854,42.2561 C17.6223,44.7013 18.5026,46.9796 19.8199,49.1039 C20.8177,50.7212 22.0437,52.1588 23.4588,53.4296 C24.5935,54.4436 25.826,55.3293 27.1889,56.0417 C27.4041,56.1508 27.6128,56.2663 27.8671,56.3626 C27.4237,54.4372 27.7498,52.7108 29.0736,51.2283 C29.9018,50.2977 30.9452,49.7201 32.1907,49.5018 C34.8253,49.0462 37.2512,50.4774 38.1968,52.7172 C38.8098,54.1741 38.7837,55.6438 38.1055,57.0685 C37.4403,58.4805 36.2991,59.411 34.7601,59.9566 C34.8449,60.0079 34.8709,60.0336 34.897,60.04 C36.3839,60.2775 37.8707,60.3288 39.3706,60.2133 C41.1705,60.0721 42.9051,59.6485 44.568,58.9746 C46.2701,58.2815 47.8352,57.3445 49.2503,56.17 C50.9197,54.7838 52.2631,53.1344 53.3195,51.2603 C53.4173,51.0806 53.5021,50.9009 53.5999,50.7212 C53.939,50.0923 54.5912,49.7778 55.2824,49.8933 C55.928,50.0024 56.4888,50.5544 56.554,51.2218 C56.5801,51.485 56.5149,51.7802 56.4236,52.0305 C55.9932,53.1729 55.4324,54.2639 54.7933,55.3036 C54.0499,56.5102 53.1956,57.6397 52.2305,58.6858 C51.2979,59.687 50.2676,60.5791 49.1785,61.4198 C48.6438,61.8306 48.3503,62.4274 48.2525,63.1013 C48.1025,64.0833 48.409,64.9112 49.1394,65.5915 C49.1916,65.6428 49.2503,65.6941 49.309,65.7455 C49.3546,65.7904 49.4068,65.8289 49.4915,65.8995 C49.2829,65.9829 49.1133,66.0664 48.9307,66.1306 C47.483,66.6504 46.0027,67.0868 44.4767,67.3114 C43.3551,67.4783 42.2204,67.5682 41.0857,67.6901 C40.9618,67.7029 40.8313,67.735 40.7074,67.7543 C40.1466,67.7543 39.5793,67.7543 39.0184,67.7543 Z" id="路径" fill="#FFFFFF"></path>
            <path d="M13.8718,35.7769 C13.9305,35.4174 13.9762,35.103 14.0349,34.7885 C14.8044,30.7131 16.4542,27.0229 19.0236,23.7433 C21.7038,20.3162 25.0557,17.7169 29.0728,15.9649 C31.3292,14.9765 33.6768,14.3219 36.1223,13.9882 C39.4938,13.5325 42.8326,13.7122 46.1324,14.5401 C48.8648,15.2268 51.4146,16.3371 53.7948,17.8325 C54.3426,18.179 54.6361,18.9171 54.473,19.5268 C54.2839,20.2135 53.71,20.7013 52.9992,20.7205 C52.7579,20.7269 52.4971,20.682 52.2754,20.5857 C49.9147,19.5589 47.4562,18.9684 44.8738,18.8722 C40.8567,18.7181 37.1331,19.6744 33.6964,21.7089 C33.5464,21.7987 33.4029,21.895 33.2595,21.9848 C33.2464,21.9977 33.2334,22.0169 33.2008,22.0747 C35.1832,22.6523 36.5462,23.8781 37.1461,25.8356 C37.5178,27.0485 37.4396,28.2615 36.9374,29.4424 C35.9462,31.7657 33.4877,33.1199 30.8466,32.677 C28.512,32.2855 25.8579,29.9109 26.4382,26.2591 C26.3274,26.3747 26.2491,26.4388 26.1904,26.5159 C24.4362,28.7108 23.2624,31.1752 22.7081,33.9157 C22.4277,35.3019 22.2973,36.7074 22.3755,38.1194 C22.5516,41.232 23.4776,44.1137 25.2123,46.7322 C25.5318,47.2135 25.6166,47.7205 25.4079,48.2532 C24.971,49.3442 23.5363,49.601 22.7407,48.7153 C22.382,48.3174 22.069,47.881 21.756,47.4381 C20.1192,45.1213 18.991,42.5862 18.365,39.833 C18.2345,39.2682 18.1041,38.7034 18.0585,38.1322 C17.8954,36.0849 15.8217,34.9489 14.0609,35.7255 C14.0218,35.7383 13.9827,35.7448 13.8718,35.7769 Z" id="路径" fill="#FFFFFF"></path>
        </g>
    </g>
</svg>