<svg width="27" height="31" viewBox="0 0 27 31" fill="none" xmlns="http://www.w3.org/2000/svg">
<path d="M10.4304 24.9179L9.14513 25.689C8.47476 26.092 7.70879 26.3038 6.93252 26.3038C5.49103 26.3038 4.15416 25.587 3.35331 24.387C3.15182 24.0848 2.99682 23.7631 2.87796 23.4312C2.13136 24.2462 1.69482 25.3234 1.69482 26.4795C1.69482 28.9724 3.72271 31.0003 6.21565 31.0003C8.70859 31.0003 10.7365 28.9724 10.7365 26.4795C10.7365 25.9409 10.619 25.4164 10.4304 24.9179Z" fill="white"/>
<path d="M25.8451 3.92683L16.8035 0.0518557C16.5374 -0.0617901 16.2274 0.0157095 16.0452 0.24173L13.4619 3.47086C13.3405 3.62325 13.294 3.82221 13.3353 4.01335C13.3766 4.2045 13.5019 4.36471 13.6776 4.4525L23.4335 9.32982C23.7073 9.46672 23.9992 9.53647 24.2989 9.53647C24.7962 9.53647 25.287 9.33757 25.6474 8.9901C26.0271 8.62325 26.2376 8.12858 26.2376 7.59771V4.52098C26.2364 4.26135 26.0827 4.02885 25.8451 3.92683Z" fill="white"/>
<path d="M5.56982 26.0542V27.7708C5.56982 28.1273 5.85918 28.4167 6.21568 28.4167C6.57218 28.4167 6.86153 28.1273 6.86153 27.7708V26.2957C6.4133 26.288 5.98445 26.1937 5.56982 26.0542Z" fill="white"/>
<path d="M22.8548 10.4861L11.9932 5.05469L5.54267 7.47394C4.86195 7.72842 4.2807 8.21279 3.90616 8.83667L1.22468 13.3058C0.653785 14.2578 0.608557 15.4189 1.10583 16.4109L3.00844 20.2161C3.35592 19.4192 3.91646 18.772 4.64495 18.3549C5.60595 17.8034 6.33704 17.3629 6.89892 17.0064C6.87052 16.9896 6.84981 16.9599 6.82014 16.9457C6.7039 16.2404 6.36029 15.6178 6.0348 15.1619C7.02292 14.7369 8.34428 13.971 9.01465 13.1895C9.53003 13.4918 10.3412 13.8806 11.3551 14.0795C10.6008 15.0134 9.83227 16.1694 9.55328 16.9392C9.3169 17.0465 8.96428 17.2299 8.42051 17.545C7.73851 18.0229 6.75167 18.6339 5.28693 19.476C4.62558 19.8558 4.16318 20.5313 3.98366 21.3774C3.94491 21.5595 3.92941 21.7416 3.92427 21.9237C3.92299 21.9819 3.92814 22.0387 3.92941 22.0968C3.93329 22.2234 3.94364 22.3487 3.96429 22.474C3.97464 22.536 3.98627 22.5967 3.99916 22.6587C4.02756 22.7827 4.06504 22.9054 4.10893 23.0256C4.12831 23.0785 4.14508 23.1315 4.16706 23.1844C4.23941 23.3523 4.32333 23.5177 4.42795 23.6727C4.55068 23.8574 4.6992 24.0149 4.8516 24.1635C4.9446 24.2501 5.04407 24.3289 5.14609 24.4025C5.19647 24.44 5.24812 24.4749 5.29982 24.5097C5.8798 24.874 6.57729 25.0355 7.26056 24.9709C7.34454 24.9618 7.42979 24.9541 7.51371 24.9373C7.62481 24.9166 7.73458 24.8908 7.84308 24.8572C8.06008 24.7874 8.2758 24.7073 8.47985 24.5846L12.918 21.9225C13.6129 21.7533 17.0655 20.72 19.6811 16.4885C21.2091 14.0176 22.2373 11.907 22.8598 10.4913C22.8587 10.4874 22.8574 10.4861 22.8548 10.4861Z" fill="white"/>
</svg>
