<?xml version="1.0" encoding="UTF-8"?>
<svg width="290px" height="168px" viewBox="0 0 290 168" version="1.1" xmlns="http://www.w3.org/2000/svg" xmlns:xlink="http://www.w3.org/1999/xlink">
    <!-- Generator: Sketch 56.2 (81672) - https://sketch.com -->
    <title>empty</title>
    <desc>Created with Sketch.</desc>
    <g id="页面-1" stroke="none" stroke-width="1" fill="none" fill-rule="evenodd">
        <g id="empty" fill-rule="nonzero">
            <path d="M0.774841,10.2221 C0.774841,4.65495 5.28794,0.141846 10.8551,0.141846 L289.961,0.141846 L289.961,167.856 L10.8551,167.856 C5.28794,167.856 0.774841,163.343 0.774841,157.775 L0.774841,10.2221 Z" id="路径" fill="#EEEEEE"></path>
            <path d="M169.545,131.293 C172.383,131.293 174.829,131.195 177.276,131.326 C178.483,131.391 179.755,131.685 180.864,132.207 C183.18,133.316 184.093,135.697 183.539,138.437 C183.115,140.492 180.897,142.416 178.646,142.612 C178.157,142.645 177.667,142.645 177.178,142.645 C164.555,142.645 151.964,142.645 139.34,142.645 C130.599,142.645 121.857,142.645 113.115,142.645 C110.799,142.645 109.005,141.797 107.798,139.774 C106.363,137.393 106.82,133.25 110.408,131.88 C111.484,131.456 112.724,131.261 113.898,131.261 C122.705,131.195 131.512,131.163 140.319,131.261 C143.548,131.293 146.777,131 149.746,129.956 C154.736,128.227 159.238,125.585 163.022,121.736 C167.229,117.43 170.1,112.407 171.535,106.634 C172.742,101.774 172.807,96.7503 172.579,91.727 C172.579,91.4008 172.09,90.9768 171.731,90.8137 C171.372,90.6506 170.883,90.7484 170.426,90.7484 C153.725,90.7484 137.057,90.7484 120.356,90.7484 C120.128,90.7484 119.932,90.7484 119.704,90.7484 C118.106,90.7811 118.106,90.8137 118.041,92.412 C117.877,96.9786 118.106,101.545 119.019,106.047 C119.769,109.667 121.27,113.06 123.227,116.191 C125.706,120.073 124.532,123.758 120.291,125.324 C118.334,126.042 115.529,124.998 114.224,122.91 C111.321,118.311 109.136,113.418 107.994,108.004 C107.309,104.774 107.113,101.578 107.113,98.3159 C107.113,93.9777 107.244,89.6068 107.081,85.2685 C106.95,81.7783 109.69,79.6907 112.756,79.3646 C113.343,79.2993 113.963,79.3319 114.55,79.3319 C135.328,79.3319 156.074,79.3319 176.852,79.2993 C178.646,79.2993 180.309,79.6907 181.712,80.7998 C182.886,81.7131 183.604,82.8874 183.571,84.4204 C183.571,90.618 183.8,96.8155 183.441,103.013 C183.082,109.08 181.125,114.788 178.091,120.105 C175.938,123.856 173.362,127.249 170.263,130.217 C170.1,130.51 169.969,130.739 169.545,131.293 Z" id="路径" fill="#D0D0D0"></path>
            <path d="M150.541,90.7776 C149.781,89.6311 148.985,88.4969 148.274,87.3139 C147.092,85.3259 146.236,83.1793 145.79,80.8986 C145.392,78.813 145.307,76.7153 145.609,74.5931 C146.127,70.9098 147.406,67.4948 149.154,64.275 C151.361,60.2258 153.725,56.2498 155.98,52.2251 C157.632,49.2857 159.091,46.2489 160.056,42.9802 C160.973,39.858 161.262,36.6747 160.731,33.4671 C160.478,31.9304 159.96,30.4302 159.55,28.8325 C159.972,29.4179 160.394,29.9546 160.768,30.5278 C162.263,32.7475 163.445,35.138 164.084,37.7602 C164.759,40.541 164.783,43.3461 164.241,46.1513 C163.541,49.7736 162.118,53.1154 160.358,56.2986 C158.223,60.1405 155.968,63.9091 153.809,67.751 C152.338,70.3732 151.06,73.1051 150.155,75.9835 C149.178,79.0569 148.768,82.228 149.178,85.4112 C149.395,87.0943 150.071,88.7164 150.541,90.3751 C150.577,90.4849 150.625,90.5825 150.674,90.6922 C150.625,90.7288 150.577,90.7532 150.541,90.7776 Z" id="路径" fill="#D0D0D0"></path>
            <path d="M167.221,55.0066 C167.221,56.5396 167.269,58.0726 167.209,59.6056 C167.029,64.4395 165.036,68.5316 162.311,72.3393 C160.811,74.4287 159.346,76.5551 158.002,78.7433 C156.754,80.7585 155.985,83.0209 155.529,85.5429 C155.421,85.2709 155.325,85.1226 155.289,84.9742 C154.689,82.0318 155.109,79.2007 156.562,76.6293 C158.11,73.8971 159.839,71.2638 161.531,68.6058 C163.056,66.195 164.52,63.7595 165.552,61.0768 C166.249,59.2594 166.753,57.3803 166.993,55.4269 C167.005,55.2909 167.029,55.1549 167.041,55.0066 C167.101,55.0066 167.161,55.0066 167.221,55.0066 Z" id="路径" fill="#D0D0D0"></path>
            <path d="M139.689,90.2138 C138.727,88.7871 137.719,87.3756 136.818,85.9034 C135.321,83.4295 134.237,80.7583 133.672,77.9202 C133.168,75.3248 133.061,72.7143 133.443,70.0735 C134.099,65.4899 135.718,61.2403 137.933,57.2335 C140.727,52.1946 143.721,47.2468 146.577,42.2383 C148.669,38.5805 150.517,34.8014 151.738,30.7339 C152.899,26.8485 153.266,22.8872 152.594,18.8956 C152.273,16.9832 151.616,15.1164 151.097,13.1282 C151.631,13.8567 152.166,14.5245 152.639,15.2378 C154.533,18.0001 156.03,20.9748 156.839,24.238 C157.694,27.6984 157.725,31.1892 157.038,34.68 C156.152,39.1876 154.35,43.3462 152.12,47.3075 C149.417,52.0884 146.561,56.7781 143.828,61.559 C141.964,64.8221 140.346,68.2218 139.2,71.8037 C137.963,75.6284 137.444,79.5745 137.963,83.5358 C138.238,85.6302 139.093,87.6488 139.689,89.7129 C139.735,89.8495 139.796,89.9709 139.857,90.1075 C139.796,90.1531 139.735,90.1834 139.689,90.2138 Z" id="路径" fill="#D0D0D0"></path>
        </g>
    </g>
</svg>