<?xml version="1.0" encoding="UTF-8"?>
<svg width="81px" height="81px" viewBox="0 0 81 81" version="1.1" xmlns="http://www.w3.org/2000/svg" xmlns:xlink="http://www.w3.org/1999/xlink">
    <!-- Generator: Sketch 56.2 (81672) - https://sketch.com -->
    <title>free</title>
    <desc>Created with Sketch.</desc>
    <g id="页面-1" stroke="none" stroke-width="1" fill="none" fill-rule="evenodd">
        <g id="free" fill-rule="nonzero">
            <circle id="椭圆形" fill="#4D88F7" cx="40.7773" cy="40.1637" r="40.0005"></circle>
            <path d="M14.5891,47.2956 C13.9877,47.2956 13.5037,47.1122 13.1371,46.7456 C12.7704,46.3789 12.5871,45.8949 12.5871,45.2936 L12.5871,33.5236 C12.5871,32.9222 12.7484,32.4602 13.0711,32.1376 C13.3937,31.8149 13.8557,31.6536 14.4571,31.6536 L21.8491,31.6536 C22.5091,31.6536 22.9931,31.7856 23.3011,32.0496 C23.6091,32.2989 23.7631,32.7022 23.7631,33.2596 C23.7631,33.8022 23.6017,34.1982 23.2791,34.4476 C22.9711,34.6969 22.4944,34.8216 21.8491,34.8216 L16.5691,34.8216 L16.5691,37.6816 L21.4091,37.6816 C22.0544,37.6816 22.5311,37.8136 22.8391,38.0776 C23.1617,38.3416 23.3231,38.7449 23.3231,39.2876 C23.3231,39.8302 23.1617,40.2262 22.8391,40.4756 C22.5311,40.7249 22.0544,40.8496 21.4091,40.8496 L16.5691,40.8496 L16.5691,45.2936 C16.5691,45.9096 16.3857,46.4009 16.0191,46.7676 C15.6671,47.1196 15.1904,47.2956 14.5891,47.2956 Z M38.3518,44.5896 C38.6158,44.9856 38.7478,45.3596 38.7478,45.7116 C38.7478,46.1809 38.5498,46.5769 38.1538,46.8996 C37.7725,47.2076 37.3252,47.3616 36.8118,47.3616 C36.4598,47.3616 36.1298,47.2809 35.8218,47.1196 C35.5138,46.9582 35.2498,46.7162 35.0298,46.3936 L32.1698,42.2136 C31.9645,41.9202 31.7445,41.7076 31.5098,41.5756 C31.2898,41.4289 31.0258,41.3556 30.7178,41.3556 L29.2878,41.3556 L29.2878,45.2936 C29.2878,45.9096 29.1118,46.4009 28.7598,46.7676 C28.4078,47.1196 27.9238,47.2956 27.3078,47.2956 C26.6918,47.2956 26.2005,47.1196 25.8338,46.7676 C25.4818,46.4009 25.3058,45.9096 25.3058,45.2936 L25.3058,33.5236 C25.3058,32.9222 25.4672,32.4602 25.7898,32.1376 C26.1125,31.8149 26.5745,31.6536 27.1758,31.6536 L32.6978,31.6536 C34.5752,31.6536 35.9832,32.0642 36.9218,32.8856 C37.8752,33.6922 38.3518,34.8656 38.3518,36.4056 C38.3518,37.5789 38.0292,38.5762 37.3838,39.3976 C36.7385,40.2042 35.8292,40.7469 34.6558,41.0256 C35.1398,41.0989 35.5578,41.2602 35.9098,41.5096 C36.2765,41.7589 36.6358,42.1329 36.9878,42.6316 L38.3518,44.5896 Z M32.0598,38.3196 C32.9545,38.3196 33.5925,38.1802 33.9738,37.9016 C34.3698,37.6229 34.5678,37.1682 34.5678,36.5376 C34.5678,35.8922 34.3698,35.4302 33.9738,35.1516 C33.5925,34.8582 32.9545,34.7116 32.0598,34.7116 L29.2438,34.7116 L29.2438,38.3196 L32.0598,38.3196 Z M42.7305,47.1636 C42.1292,47.1636 41.6672,47.0022 41.3445,46.6796 C41.0218,46.3569 40.8605,45.8949 40.8605,45.2936 L40.8605,33.5236 C40.8605,32.9222 41.0218,32.4602 41.3445,32.1376 C41.6672,31.8149 42.1292,31.6536 42.7305,31.6536 L50.3425,31.6536 C50.9732,31.6536 51.4498,31.7856 51.7725,32.0496 C52.0952,32.3136 52.2565,32.6949 52.2565,33.1936 C52.2565,34.2496 51.6185,34.7776 50.3425,34.7776 L44.7985,34.7776 L44.7985,37.7256 L49.9025,37.7256 C51.1785,37.7256 51.8165,38.2462 51.8165,39.2876 C51.8165,39.7862 51.6552,40.1676 51.3325,40.4316 C51.0098,40.6956 50.5332,40.8276 49.9025,40.8276 L44.7985,40.8276 L44.7985,44.0396 L50.3425,44.0396 C51.6185,44.0396 52.2565,44.5676 52.2565,45.6236 C52.2565,46.1222 52.0952,46.5036 51.7725,46.7676 C51.4498,47.0316 50.9732,47.1636 50.3425,47.1636 L42.7305,47.1636 Z M55.8575,47.1636 C55.2561,47.1636 54.7941,47.0022 54.4715,46.6796 C54.1488,46.3569 53.9875,45.8949 53.9875,45.2936 L53.9875,33.5236 C53.9875,32.9222 54.1488,32.4602 54.4715,32.1376 C54.7941,31.8149 55.2561,31.6536 55.8575,31.6536 L63.4695,31.6536 C64.1001,31.6536 64.5768,31.7856 64.8995,32.0496 C65.2221,32.3136 65.3835,32.6949 65.3835,33.1936 C65.3835,34.2496 64.7455,34.7776 63.4695,34.7776 L57.9255,34.7776 L57.9255,37.7256 L63.0295,37.7256 C64.3055,37.7256 64.9435,38.2462 64.9435,39.2876 C64.9435,39.7862 64.7821,40.1676 64.4595,40.4316 C64.1368,40.6956 63.6601,40.8276 63.0295,40.8276 L57.9255,40.8276 L57.9255,44.0396 L63.4695,44.0396 C64.7455,44.0396 65.3835,44.5676 65.3835,45.6236 C65.3835,46.1222 65.2221,46.5036 64.8995,46.7676 C64.5768,47.0316 64.1001,47.1636 63.4695,47.1636 L55.8575,47.1636 Z" id="形状" fill="#FFFFFF"></path>
        </g>
    </g>
</svg>