<?xml version="1.0" encoding="UTF-8"?>
<svg width="81px" height="81px" viewBox="0 0 81 81" version="1.1" xmlns="http://www.w3.org/2000/svg" xmlns:xlink="http://www.w3.org/1999/xlink">
    <!-- Generator: Sketch 56.2 (81672) - https://sketch.com -->
    <title>global</title>
    <desc>Created with Sketch.</desc>
    <g id="页面-1" stroke="none" stroke-width="1" fill="none" fill-rule="evenodd">
        <g id="global" fill-rule="nonzero">
            <circle id="椭圆形" fill="#4D88F7" cx="40.8867" cy="40.1637" r="40.0005"></circle>
            <path d="M41.2909,63.766 C44.8085,63.2554 47.8922,59.5042 49.8327,53.9644 C47.0276,53.3225 44.165,52.978 41.2909,52.937 L41.2909,63.766 Z" id="路径" fill="#FFFFFF"></path>
            <path d="M46.9107,62.8852 C47.1186,62.8236 47.3258,62.7617 47.5313,62.6936 C47.7047,62.6366 47.8757,62.5751 48.0467,62.514 C48.249,62.4426 48.4505,62.3692 48.6512,62.2913 C48.8222,62.2248 48.9916,62.1543 49.1614,62.0837 C49.3573,61.9997 49.5528,61.916 49.7463,61.8319 C49.9153,61.756 50.0831,61.6765 50.2509,61.5965 C50.4408,61.505 50.6298,61.4119 50.8173,61.3151 C50.9819,61.2294 51.1461,61.1421 51.3106,61.0522 C51.4949,60.9513 51.6779,60.8484 51.8598,60.7426 C52.0244,60.6474 52.1829,60.5519 52.3431,60.4534 C52.5213,60.3414 52.6987,60.2295 52.875,60.1175 C53.0327,60.015 53.1901,59.9108 53.3454,59.8033 C53.5188,59.684 53.6898,59.5597 53.86,59.4354 C54.013,59.3235 54.1651,59.2119 54.3144,59.0995 C54.479,58.9699 54.6476,58.8358 54.8126,58.7013 C54.9591,58.5819 55.1052,58.4634 55.2493,58.3408 C55.4135,58.2013 55.5709,58.0569 55.7302,57.9126 C55.8699,57.7858 56.0104,57.6603 56.1469,57.5303 C56.3039,57.3806 56.4568,57.2256 56.6097,57.0718 C56.7422,56.9381 56.8763,56.8064 57.0059,56.6694 C57.03,56.644 57.0529,56.6165 57.0778,56.5903 C55.2847,55.6441 53.396,54.9013 51.4447,54.3755 C50.4299,57.6821 48.6239,60.6786 46.1906,63.0927 C46.2572,63.0751 46.3238,63.0607 46.3905,63.0431 C46.5663,62.9926 46.7389,62.9373 46.9107,62.8852 Z" id="路径" fill="#FFFFFF"></path>
            <path d="M63.4689,41.1533 L53.6116,41.1533 C53.5743,45.0858 53.0159,48.9949 51.9518,52.7744 C54.1218,53.3666 56.216,54.2181 58.191,55.3111 C61.4337,51.3179 63.2898,46.3392 63.4689,41.1533 Z" id="路径" fill="#FFFFFF"></path>
            <path d="M41.2909,39.4732 L51.9674,39.4732 C51.9257,35.6798 51.3809,31.9098 50.3489,28.2656 C47.376,28.9584 44.3397,29.3283 41.2909,29.3693 L41.2909,39.4732 Z" id="路径" fill="#FFFFFF"></path>
            <path d="M41.2909,16.8604 L41.2909,27.6894 C44.165,27.648 47.0276,27.3039 49.8327,26.662 C47.8922,21.1222 44.8085,17.371 41.2909,16.8604 Z" id="路径" fill="#FFFFFF"></path>
            <path d="M41.2909,51.2572 C44.3397,51.2987 47.376,51.6686 50.3489,52.3613 C51.3809,48.7172 51.9257,44.9467 51.9674,41.1533 L41.2909,41.1533 L41.2909,51.2572 Z" id="路径" fill="#FFFFFF"></path>
            <path d="M58.191,25.3154 C56.216,26.4085 54.1218,27.2599 51.9518,27.8522 C53.0159,31.6317 53.5743,35.5407 53.6116,39.4732 L63.4689,39.4732 C63.2894,34.2877 61.4333,29.309 58.191,25.3154 Z" id="路径" fill="#FFFFFF"></path>
            <path d="M57.0802,24.0411 C57.0561,24.0161 57.0333,23.9891 57.0096,23.9632 C56.8795,23.8262 56.7446,23.6942 56.6122,23.5609 C56.4596,23.4071 56.3075,23.2516 56.1501,23.1023 C56.0141,22.9727 55.8732,22.8501 55.7335,22.7209 C55.5741,22.5765 55.4147,22.4309 55.251,22.2915 C55.1089,22.1688 54.9631,22.0515 54.8186,21.9338 C54.654,21.7977 54.4854,21.6623 54.3161,21.5323 C54.1675,21.4179 54.017,21.3071 53.8657,21.1964 C53.6939,21.0701 53.5212,20.9441 53.3462,20.824 C53.1925,20.7182 53.0363,20.6148 52.8802,20.5135 C52.7023,20.3966 52.5249,20.2822 52.3439,20.1714 C52.1853,20.0742 52.0252,19.9783 51.8646,19.8852 C51.6807,19.7777 51.4965,19.6735 51.3106,19.5718 C51.146,19.4877 50.9819,19.3963 50.8173,19.3122 C50.6282,19.2146 50.4375,19.1206 50.2421,19.0284 C50.0775,18.9484 49.9105,18.8705 49.7411,18.7946 C49.5464,18.7064 49.3497,18.6268 49.1534,18.5428 C48.984,18.4722 48.8154,18.4025 48.6444,18.336 C48.4449,18.2581 48.2426,18.1851 48.0403,18.1137 C47.8693,18.0522 47.6983,17.9911 47.5249,17.9337 C47.3193,17.8656 47.1138,17.8037 46.9027,17.7413 C46.7316,17.6901 46.5598,17.638 46.3868,17.5912 C46.3206,17.5728 46.2532,17.5584 46.1865,17.5408 C48.6199,19.9549 50.4255,22.951 51.4407,26.258 C53.394,25.7322 55.2855,24.989 57.0802,24.0411 Z" id="路径" fill="#FFFFFF"></path>
            <path d="M17.4688,39.4732 L27.326,39.4732 C27.3633,35.5407 27.9217,31.6317 28.9854,27.8522 C26.8158,27.2603 24.7216,26.4089 22.7466,25.3154 C19.5039,29.3086 17.6478,34.2877 17.4688,39.4732 Z" id="路径" fill="#FFFFFF"></path>
            <path d="M39.6466,63.766 L39.6466,52.937 C36.7725,52.9784 33.91,53.3225 31.1049,53.9644 C33.0449,59.5042 36.129,63.2554 39.6466,63.766 Z" id="路径" fill="#FFFFFF"></path>
            <path d="M39.6466,41.1533 L28.9701,41.1533 C29.0118,44.9467 29.5562,48.7172 30.5886,52.3613 C33.5615,51.6682 36.5974,51.2982 39.6466,51.2572 L39.6466,41.1533 Z" id="路径" fill="#FFFFFF"></path>
            <path d="M39.6466,16.8604 C36.129,17.371 33.0449,21.1222 31.1049,26.662 C33.91,27.3043 36.7725,27.6484 39.6466,27.6894 L39.6466,16.8604 Z" id="路径" fill="#FFFFFF"></path>
            <path d="M39.6466,29.3693 C36.5978,29.3283 33.5615,28.9584 30.5886,28.2656 C29.5562,31.9098 29.0118,35.6798 28.9701,39.4732 L39.6466,39.4732 L39.6466,29.3693 Z" id="路径" fill="#FFFFFF"></path>
            <path d="M34.7446,17.54 C34.678,17.5577 34.6113,17.572 34.5447,17.5897 C34.3705,17.6372 34.1987,17.6902 34.0253,17.7414 C33.8189,17.8029 33.6142,17.8649 33.4071,17.9321 C33.2325,17.99 33.0606,18.0515 32.8888,18.1126 C32.6877,18.1852 32.4862,18.2574 32.2871,18.3345 C32.1153,18.4018 31.9459,18.4715 31.7757,18.5428 C31.5802,18.6269 31.3843,18.711 31.1912,18.7947 C31.0218,18.8705 30.8545,18.9501 30.6867,19.0301 C30.4968,19.1216 30.3077,19.2147 30.1203,19.3115 C29.9557,19.3972 29.7911,19.4849 29.6269,19.5744 C29.4427,19.6753 29.26,19.7786 29.0786,19.8844 C28.914,19.9783 28.7522,20.0747 28.5937,20.1732 C28.415,20.2831 28.2384,20.3967 28.0626,20.5091 C27.9044,20.6124 27.7475,20.7166 27.5921,20.8241 C27.4187,20.9434 27.2477,21.0677 27.0775,21.192 C26.9246,21.3039 26.7724,21.4155 26.6227,21.5283 C26.4545,21.6575 26.2939,21.792 26.1245,21.9261 C25.9784,22.0455 25.8311,22.164 25.6882,22.2875 C25.5236,22.4261 25.3675,22.5696 25.2089,22.7132 C25.0684,22.8412 24.9267,22.9654 24.7894,23.0979 C24.6333,23.2468 24.4811,23.4014 24.3286,23.5548 C24.1961,23.6885 24.0613,23.8206 23.9312,23.958 C23.9075,23.9834 23.8846,24.0113 23.8597,24.0371 C25.6525,24.9837 27.5415,25.7265 29.4928,26.2523 C30.5076,22.9474 32.3124,19.9529 34.7446,17.54 Z" id="路径" fill="#FFFFFF"></path>
            <path d="M24.325,57.0656 C24.4779,57.2194 24.6301,57.3748 24.787,57.5245 C24.9235,57.6537 25.064,57.7764 25.2041,57.9056 C25.3635,58.0504 25.5228,58.1955 25.6866,58.335 C25.8287,58.4568 25.9736,58.5745 26.1189,58.6926 C26.2835,58.8288 26.4477,58.9642 26.6219,59.095 C26.77,59.2086 26.9206,59.3185 27.0711,59.4313 C27.2429,59.5572 27.4163,59.6831 27.5913,59.8041 C27.7451,59.9099 27.9012,60.0133 28.0574,60.115 C28.2352,60.2315 28.4126,60.3459 28.5937,60.4567 C28.7522,60.5543 28.9124,60.6499 29.073,60.7434 C29.2568,60.8508 29.4411,60.955 29.6269,61.0563 C29.7911,61.1404 29.9557,61.2318 30.1203,61.3159 C30.3093,61.4135 30.5,61.5075 30.6955,61.6002 C30.8601,61.6793 31.0271,61.7572 31.1965,61.8335 C31.3912,61.9217 31.5875,62.0013 31.7841,62.0854 C31.9535,62.1559 32.1221,62.2256 32.2931,62.2921 C32.4926,62.3704 32.695,62.4434 32.8973,62.5148 C33.0683,62.5759 33.2393,62.6374 33.4127,62.6944 C33.6182,62.7625 33.8237,62.8249 34.0349,62.8868 C34.2059,62.9381 34.3777,62.9901 34.5503,63.0373 C34.617,63.0558 34.6844,63.0701 34.751,63.0878 C32.3176,60.6732 30.5121,57.6771 29.4969,54.3701 C27.5456,54.8963 25.6565,55.6391 23.8638,56.5861 C23.8879,56.6112 23.9107,56.6382 23.9348,56.6641 C24.0581,56.8002 24.1909,56.9323 24.325,57.0656 Z" id="路径" fill="#FFFFFF"></path>
            <path d="M22.7466,55.3111 C24.7216,54.2181 26.8158,53.3666 28.9854,52.7744 C27.9217,48.9949 27.3633,45.0858 27.326,41.1533 L17.4688,41.1533 C17.6482,46.3388 19.5039,51.3175 22.7466,55.3111 Z" id="路径" fill="#FFFFFF"></path>
        </g>
    </g>
</svg>