<?xml version="1.0" encoding="UTF-8"?>
<svg width="81px" height="81px" viewBox="0 0 81 81" version="1.1" xmlns="http://www.w3.org/2000/svg" xmlns:xlink="http://www.w3.org/1999/xlink">
    <!-- Generator: Sketch 56.2 (81672) - https://sketch.com -->
    <title>handsup</title>
    <desc>Created with Sketch.</desc>
    <g id="页面-1" stroke="none" stroke-width="1" fill="none" fill-rule="evenodd">
        <g id="handsup" fill-rule="nonzero">
            <circle id="椭圆形" fill="#4D88F7" cx="40.332" cy="40.1637" r="40.0005"></circle>
            <polygon id="路径" fill="#FFFFFF" points="23.2439 64.3896 53.576 64.3896 53.576 68.5434 23.2439 68.5434"></polygon>
            <path d="M54.113,61.064 L56.3648,55.4337 C56.9957,53.8562 57.3157,52.1948 57.3157,50.4959 L57.3157,28.8975 C57.3157,27.7404 56.4106,26.7741 55.2983,26.7436 C54.7314,26.7285 54.1959,26.9368 53.7906,27.331 C53.3851,27.7255 53.1618,28.2542 53.1618,28.8198 L53.1618,43.8211 L51.4989,43.8211 C44.1674,43.8211 38.2027,49.7858 38.2027,57.1173 L34.877,57.1173 C34.877,52.6742 36.605,48.4991 39.7429,45.3613 C42.486,42.6182 46.0214,40.9524 49.8359,40.5768 L49.8359,17.6005 C49.8359,16.4553 48.9043,15.5236 47.7591,15.5236 C46.6139,15.5236 45.6823,16.4553 45.6823,17.6005 L45.6823,37.4835 L42.3565,37.4835 L42.3565,13.8606 C42.3566,12.7155 41.425,11.7838 40.2798,11.7838 C39.1346,11.7838 38.203,12.7155 38.203,13.8606 L38.203,37.4834 L34.8772,37.4834 L34.8772,17.6005 C34.8772,16.4553 33.9455,15.5236 32.8004,15.5236 C31.6552,15.5236 30.7235,16.4553 30.7235,17.6005 L30.7235,37.4835 L27.3978,37.4835 L27.3978,28.8198 C27.3978,28.2542 27.1745,27.7255 26.769,27.331 C26.3637,26.9368 25.8268,26.7285 25.2613,26.7436 C24.1489,26.7741 23.2439,27.7404 23.2439,28.8975 L23.2439,61.064 L54.113,61.064 Z" id="路径" fill="#FFFFFF"></path>
        </g>
    </g>
</svg>