<?xml version="1.0" encoding="UTF-8"?>
<svg width="81px" height="80px" viewBox="0 0 81 80" version="1.1" xmlns="http://www.w3.org/2000/svg" xmlns:xlink="http://www.w3.org/1999/xlink">
    <!-- Generator: Sketch 56.2 (81672) - https://sketch.com -->
    <title>house</title>
    <desc>Created with Sketch.</desc>
    <g id="页面-1" stroke="none" stroke-width="1" fill="none" fill-rule="evenodd">
        <g id="house" fill-rule="nonzero">
            <circle id="椭圆形" fill="#4D88F7" cx="40.7773" cy="40.0005" r="40.0005"></circle>
            <path d="M61.2461,58.4922 L61.2461,33.5234 C62.7671,33.5234 64,32.2905 64,30.7695 C64,29.2485 62.7671,28.0156 61.2461,28.0156 L19.7539,28.0156 C18.2329,28.0156 17,29.2485 17,30.7695 C17,32.2905 18.2329,33.5234 19.7539,33.5234 L19.7539,58.4922 C18.2329,58.4922 17,59.7251 17,61.2461 L17,62.623 C17,63.3835 17.6165,64 18.377,64 L62.623,64 C63.3835,64 64,63.3835 64,62.623 L64,61.2461 C64,59.7251 62.7671,58.4922 61.2461,58.4922 Z M52.8926,58.4922 L40.5,58.4922 L28.1074,58.4922 L28.1074,48.6699 C28.1074,41.8363 33.6664,36.2773 40.5,36.2773 C47.3336,36.2773 52.8926,41.8363 52.8926,48.6699 L52.8926,58.4922 Z" id="形状" fill="#FFFFFF"></path>
            <path d="M41.2185,46.2153 C40.8205,45.9534 40.3032,45.9287 39.8791,46.1507 C39.4564,46.3715 39.2014,46.799 39.2226,47.2559 C39.3146,49.2996 38.6679,49.8716 37.5947,50.8171 C36.9916,51.3492 36.3076,51.9529 35.6845,52.8667 C33.8776,55.5117 33.5107,58.2161 34.6498,60.1916 C35.6794,61.977 37.8097,62.9999935 40.4946,62.9999935 C44.7764,62.9999935 46.2003,60.6228 46.6679,59.2051 C48.0644,54.9791 44.8286,48.5702 41.2185,46.2153 Z" id="路径" fill="#FFFFFF"></path>
            <path d="M53.8668,20.3524 C52.8576,18.3001 50.7695,17 48.4826,17 L32.7872,17 C30.5003,17 28.4122,18.3001 27.403,20.3524 L24.9999,25.2393 L56.2699,25.2393 L53.8668,20.3524 Z" id="路径" fill="#FFFFFF"></path>
        </g>
    </g>
</svg>