<?xml version="1.0" encoding="UTF-8"?>
<svg width="81px" height="80px" viewBox="0 0 81 80" version="1.1" xmlns="http://www.w3.org/2000/svg" xmlns:xlink="http://www.w3.org/1999/xlink">
    <!-- Generator: Sketch 56.2 (81672) - https://sketch.com -->
    <title>play</title>
    <desc>Created with Sketch.</desc>
    <g id="页面-1" stroke="none" stroke-width="1" fill="none" fill-rule="evenodd">
        <g id="play" fill-rule="nonzero">
            <circle id="椭圆形" fill="#4D88F7" cx="40.7773" cy="40.0005" r="40.0005"></circle>
            <path d="M60.9758,50.3333 C62.3268,50.3333 63.649,50.3333 65,50.3333 C65,51.7312 65,53.0899 65,54.4976 C60.6021,54.4976 56.2041,54.4976 51.7487,54.4976 C52.774,58.6911 53.7896,62.8162 54.8052,66.9902 C53.3872,66.9902 52.0074,66.9902 50.5894,66.9902 C50.254,65.6315 49.9187,64.263 49.5641,62.8456 C49.3821,62.8456 49.2096,62.8456 49.0467,62.8456 C43.3457,62.8456 37.6447,62.8553 31.9437,62.8358 C31.5125,62.8358 31.3784,62.9922 31.2921,63.3832 C31.0239,64.5855 30.7077,65.7781 30.4106,67 C29.0213,67 27.632,67 26.1948,67 C27.2104,62.8456 28.226,58.7204 29.2513,54.5269 C24.815,54.5269 20.4171,54.5269 16,54.5269 C16,53.1095 16,51.7507 16,50.3333 C17.351,50.3333 18.6828,50.3333 20.0434,50.3333 C20.0434,40.5875 20.0434,30.9003 20.0434,21.1642 C18.6924,21.1642 17.3606,21.1642 16,21.1642 C16,19.7468 16,18.3881 16,17 C32.3365,17 48.6443,17 65,17 C65,18.3587 65,19.7175 65,21.1349 C63.6777,21.1349 62.3459,21.1349 60.9758,21.1349 C60.9758,30.8807 60.9758,40.5679 60.9758,50.3333 Z M24.1826,21.1838 C24.1826,30.9198 24.1826,40.607 24.1826,50.304 C35.0864,50.304 45.9519,50.304 56.8365,50.304 C56.8365,40.5875 56.8365,30.9003 56.8365,21.1838 C45.9423,21.1838 35.0768,21.1838 24.1826,21.1838 Z M48.5389,58.6618 C48.2419,57.4301 47.9353,56.2375 47.667,55.0352 C47.5808,54.6246 47.4179,54.4976 47.0059,54.5073 C42.79,54.5269 38.5741,54.5171 34.3582,54.5171 C33.4671,54.5171 33.4671,54.5171 33.2564,55.3871 C32.9881,56.4721 32.7294,57.5572 32.4611,58.6716 C37.8459,58.6618 43.1733,58.6618 48.5389,58.6618 Z" id="形状" fill="#FFFFFF"></path>
        </g>
    </g>
</svg>