<?xml version="1.0" encoding="UTF-8"?>
<svg width="48px" height="48px" viewBox="0 0 48 48" version="1.1" xmlns="http://www.w3.org/2000/svg" xmlns:xlink="http://www.w3.org/1999/xlink">
    <!-- Generator: Sketch 56.2 (81672) - https://sketch.com -->
    <title>share</title>
    <desc>Created with Sketch.</desc>
    <g id="页面-1" stroke="none" stroke-width="1" fill="none" fill-rule="evenodd">
        <g id="share" transform="translate(0.000000, -1.000000)" fill-rule="nonzero">
            <circle id="椭圆形" fill="#4E87F7" cx="23.9112" cy="24.7638" r="23.7672"></circle>
            <path d="M24.981,15.578 L24.981,30.104 C24.981,30.703 24.5103,31.1736 23.9113,31.1736 C23.3123,31.1736 22.8416,30.703 22.8416,30.104 L22.8416,15.578 L23.9113,14.5083 L24.981,15.578 Z" id="路径" fill="#FFFFFF"></path>
            <path d="M24.981,13.5243 L24.981,15.578 L23.9113,14.5083 L22.8416,15.578 L22.8416,13.5243 C22.8416,12.9466 23.3123,12.4546 23.9113,12.4546 C24.5103,12.4546 24.981,12.9466 24.981,13.5243 Z" id="路径" fill="#FFFFFF"></path>
            <path d="M24.9809,13.5242 C24.9809,12.9466 24.5102,12.4546 23.9112,12.4546 C23.3122,12.4546 22.8415,12.9466 22.8415,13.5242 L22.8415,15.578 L19.3117,19.1079 C18.9052,19.5143 18.2206,19.5143 17.8141,19.1079 C17.7072,19.0009 17.6216,18.8725 17.5788,18.7442 C17.4077,18.3591 17.4932,17.9098 17.8141,17.589 L23.1624,12.2406 C23.5689,11.8342 24.2535,11.8342 24.66,12.2406 L30.0083,17.589 C30.4361,18.0168 30.4361,18.68 30.0083,19.1079 C29.8157,19.3004 29.5376,19.4074 29.2595,19.4074 C28.9814,19.4074 28.7033,19.3004 28.5108,19.1079 L24.9809,15.578 L24.9809,13.5242 Z" id="路径" fill="#FFFFFF"></path>
            <path d="M16.4237,35.4523 L31.3989,35.4523 C31.9979,35.4523 32.4686,34.9816 32.4686,34.3826 L32.4686,30.104 C32.4686,29.5263 32.9392,29.0343 33.5383,29.0343 C34.1373,29.0343 34.6079,29.5263 34.6079,30.104 L34.6079,34.3826 C34.6079,36.1582 33.1746,37.5916 31.3989,37.5916 L16.4237,37.5916 C14.648,37.5916 13.2147,36.1582 13.2147,34.3826 L13.2147,30.104 C13.2147,29.5263 13.6853,29.0343 14.2844,29.0343 C14.8834,29.0343 15.354,29.5263 15.354,30.104 L15.354,34.3826 C15.354,34.9816 15.8247,35.4523 16.4237,35.4523 Z" id="路径" fill="#FFFFFF"></path>
        </g>
    </g>
</svg>