<svg width="20" height="23" viewBox="0 0 20 23" fill="none" xmlns="http://www.w3.org/2000/svg">
<path d="M10 17C9.448 17 9 16.5648 9 16.0286V0.971429C9 0.4352 9.448 0 10 0C10.552 0 11 0.4352 11 0.971429V16.0286C11 16.5648 10.552 17 10 17Z" fill="#9E9E9E"/>
<path d="M14.9994 7C14.7434 7 14.4874 6.90201 14.2914 6.70802L9.999 2.41433L5.70664 6.70602C5.31661 7.09599 4.68256 7.09599 4.29252 6.70602C3.90249 6.31605 3.90249 5.68209 4.29252 5.29212L9.29294 0.292479C9.68297 -0.097493 10.317 -0.097493 10.7071 0.292479L15.7075 5.29212C16.0975 5.68209 16.0975 6.31605 15.7075 6.70602C15.5115 6.90201 15.2554 7 14.9994 7Z" fill="#9E9E9E"/>
<path d="M17 23H3C1.346 23 0 21.654 0 20V16C0 15.448 0.448 15 1 15C1.552 15 2 15.448 2 16V20C2 20.552 2.45 21 3 21H17C17.55 21 18 20.552 18 20V16C18 15.448 18.448 15 19 15C19.552 15 20 15.448 20 16V20C20 21.654 18.654 23 17 23Z" fill="#9E9E9E"/>
</svg>
