<?xml version="1.0" encoding="UTF-8"?>
<svg width="27px" height="27px" viewBox="0 0 27 27" version="1.1" xmlns="http://www.w3.org/2000/svg" xmlns:xlink="http://www.w3.org/1999/xlink">
    <!-- Generator: Sketch 56.2 (81672) - https://sketch.com -->
    <title>usdt</title>
    <desc>Created with Sketch.</desc>
    <g id="页面-1" stroke="none" stroke-width="1" fill="none" fill-rule="evenodd">
        <g id="usdt" fill-rule="nonzero">
            <path d="M13.5,0 C20.9555,0 27,6.04449 27,13.5 C27,20.9555 20.9552,27 13.5,27 C6.04476,27 0,20.9571 0,13.5 C0,6.04287 6.04368,0 13.5,0 Z" id="路径" fill="#53AE94"></path>
            <path d="M15.2279,12.0369 L15.2279,10.0411 L19.992,10.0411 L19.992,7 L7.0192,7 L7.0192,10.0411 L11.7839,10.0411 L11.7839,12.0353 C7.91157,12.2057 5,12.9404 5,13.8206 C5,14.7007 7.91297,15.4354 11.7839,15.6069 L11.7839,22 L15.229,22 L15.229,15.6064 C19.0943,15.4354 22,14.7013 22,13.8219 C22,12.9426 19.0943,12.2084 15.229,12.0375 L15.2279,12.0369 Z M15.229,15.0648 L15.229,15.0632 C15.1318,15.0691 14.6324,15.0979 13.5204,15.0979 C12.6314,15.0979 12.006,15.0737 11.7855,15.0627 L11.7855,15.0654 C8.36448,14.9202 5.81087,14.3495 5.81087,13.6665 C5.81087,12.9836 8.36476,12.4137 11.7855,12.2682 L11.7855,14.4968 C12.0096,14.5115 12.6505,14.5478 13.535,14.5478 C14.5974,14.5478 15.1315,14.5054 15.2296,14.4968 L15.2296,12.2682 C18.6439,12.414 21.1917,12.9852 21.1917,13.6657 C21.1917,14.3462 18.6428,14.9178 15.2296,15.0635 L15.229,15.0648 Z" id="形状" fill="#FFFFFF"></path>
        </g>
    </g>
</svg>