<svg width="21" height="25" viewBox="0 0 21 25" fill="none" xmlns="http://www.w3.org/2000/svg">
<path d="M10.8345 24.4936C7.7718 24.4656 5.36181 23.6724 3.23481 22.0532C1.99331 21.1059 0.952629 19.9534 0.140172 18.6001C0.0123692 18.3902 -0.0560963 18.1802 0.0580129 17.9422C1.09412 15.6977 2.78294 14.2559 5.13359 13.6212C5.33899 13.5653 5.54895 13.5373 5.75891 13.4906C6.13319 13.4066 6.45726 13.5186 6.76307 13.7426C7.95894 14.6058 9.30086 14.9885 10.7615 14.9278C11.8752 14.8811 12.9524 14.6058 13.8515 13.9292C14.5408 13.4113 15.198 13.4486 15.9375 13.6586C17.9549 14.2372 19.4703 15.4691 20.552 17.2889C21.0313 18.0962 21.0495 18.1195 20.5475 18.8941C19.3288 20.7606 17.7586 22.2398 15.7777 23.2197C13.9702 24.1017 12.2403 24.4983 10.8345 24.4936Z" fill="white"/>
<path d="M10.4647 13.01C7.15557 12.9866 4.4352 10.3035 4.38956 6.82718C4.34848 3.45815 7.07341 0.644395 10.4191 0.602399C13.7191 0.560403 16.4806 3.33682 16.5262 6.74785C16.5719 10.1542 13.8424 12.9726 10.4647 13.01Z" fill="white"/>
</svg>
