<svg width="37" height="20" viewBox="0 0 37 20" fill="none" xmlns="http://www.w3.org/2000/svg">
<g clip-path="url(#clip0)">
<path d="M11.3826 0.970145C14.0078 0.970145 16.6203 0.957728 19.2455 0.982562C19.8542 0.982562 20.4757 1.04465 21.0717 1.14398C23.8998 1.62824 25.7768 3.66462 26.0304 6.57018C26.1065 7.37729 26.0812 8.18439 26.0812 8.99149C26.0812 11.9467 26.0812 14.9144 26.0812 17.8696C26.0812 18.7388 26.0685 18.7512 25.2061 18.7512C19.7781 18.7512 14.3502 18.7636 8.90956 18.7512C7.33698 18.7512 5.84048 18.4284 4.54691 17.4971C2.82214 16.2181 2.2134 14.4301 2.20071 12.431C2.16267 8.83007 2.18803 5.22916 2.18803 1.62824C2.18803 1.0074 2.22608 0.970145 2.88555 0.970145C5.71366 0.970145 8.55446 0.970145 11.3826 0.970145Z" fill="white"/>
<path d="M35.1745 9.92272C35.1745 12.3813 35.1745 14.8398 35.1745 17.2984C35.1745 17.5095 35.1871 17.7081 35.1618 17.9192C35.0984 18.5401 34.7179 18.7387 34.1472 18.4532C33.995 18.3787 33.8682 18.2793 33.7287 18.1676C31.8898 16.7769 30.0509 15.3862 28.212 14.0079C27.8822 13.7596 27.73 13.4864 27.73 13.0766C27.7427 10.9285 27.7427 8.78036 27.73 6.63223C27.73 6.22247 27.8695 5.9493 28.212 5.68854C30.0255 4.3351 31.8264 2.96923 33.6272 1.60337C33.8048 1.46678 34.0077 1.3302 34.2106 1.24328C34.7179 1.04461 35.0857 1.26811 35.1618 1.80204C35.1871 2.00071 35.1745 2.2118 35.1745 2.42289C35.1745 4.93111 35.1745 7.42691 35.1745 9.92272Z" fill="white"/>
</g>
<defs>
<clipPath id="clip0">
<rect x="0.973389" y="0.322418" width="35.4026" height="19.063" fill="white"/>
</clipPath>
</defs>
</svg>
