<?xml version="1.0" encoding="UTF-8"?>
<svg width="81px" height="80px" viewBox="0 0 81 80" version="1.1" xmlns="http://www.w3.org/2000/svg" xmlns:xlink="http://www.w3.org/1999/xlink">
    <!-- Generator: Sketch 56.2 (81672) - https://sketch.com -->
    <title>voice</title>
    <desc>Created with Sketch.</desc>
    <g id="页面-1" stroke="none" stroke-width="1" fill="none" fill-rule="evenodd">
        <g id="voice" fill-rule="nonzero">
            <circle id="椭圆形" fill="#4D88F7" cx="40.7773" cy="40.0005" r="40.0005"></circle>
            <path d="M57.18,40.307 C57.18,39.327 56.4306,38.5776 55.4506,38.5776 C54.4706,38.5776 53.7212,39.327 53.7212,40.307 C53.7212,47.0518 48.2447,52.5282 41.5,52.5282 C34.7553,52.5282 29.2788,47.0518 29.2788,40.307 C29.2788,39.327 28.5294,38.5776 27.5494,38.5776 C26.5694,38.5776 25.82,39.327 25.82,40.307 C25.82,48.32 31.8153,55.0647 39.7706,55.9294 L39.7706,60.5412 L33.4871,60.5412 C32.5071,60.5412 31.7576,61.2906 31.7576,62.2706 C31.7576,63.2506 32.5071,64 33.4871,64 L49.5129,64 C50.4929,64 51.2423,63.2506 51.2423,62.2706 C51.2423,61.2906 50.4929,60.5412 49.5129,60.5412 L43.2294,60.5412 L43.2294,55.9294 C51.1847,55.0647 57.18,48.32 57.18,40.307 Z" id="路径" fill="#FFFFFF"></path>
            <path d="M41.5,15 C36.1965,15 31.8729,19.3235 31.8729,24.6271 L31.8729,40.2494 C31.8729,45.6106 36.1965,49.8765 41.5,49.9341 C46.8035,49.9341 51.127,45.6106 51.127,40.3071 L51.127,24.6271 C51.127,19.3235 46.8035,15 41.5,15 Z" id="路径" fill="#FFFFFF"></path>
        </g>
    </g>
</svg>