<svg width="120" height="120" viewBox="0 0 120 120" fill="none" xmlns="http://www.w3.org/2000/svg">
<path d="M119.923 63.1754C119.836 63.8712 119.735 64.567 119.677 65.277C119.143 71.3831 117.614 77.2336 115.132 82.8427C112.232 89.389 108.235 95.2112 103.098 100.266C98.7986 104.498 93.9649 107.977 88.5396 110.689C87.1977 111.357 85.6394 111.115 84.615 110.121C83.5039 109.056 83.1576 107.395 83.8502 106.074C84.1099 105.577 84.5284 105.08 84.9901 104.754C91.1224 100.366 95.8262 94.8277 99.0872 88.0968C101.468 83.1835 102.882 78.0005 103.228 72.5618C103.344 70.7725 103.344 68.9833 103.315 67.1231C99.6499 70.4601 95.4655 71.5535 90.7184 70.2045C87.9336 69.4235 85.7837 67.7195 84.1821 65.348C81.0654 60.7329 81.7436 54.3286 85.6971 50.3952C89.6074 46.4759 96.8074 45.1553 102.521 49.8129C102.492 49.6283 102.492 49.4863 102.449 49.3727C100.573 44.573 97.8463 40.2988 94.2246 36.5925C90.1701 32.4318 85.4086 29.322 79.9544 27.2487C76.477 25.9423 72.8987 25.0903 69.176 24.8773C67.3291 24.7637 65.4822 24.7921 63.6353 24.8063C61.976 24.8205 60.4321 23.5993 60.1435 21.9804C59.8405 20.2196 60.8072 18.5014 62.481 18.0754C63.6786 17.7772 64.9339 17.6352 66.1748 17.5216C74.1107 16.8542 81.7869 17.9902 89.1456 21.0006C92.8683 22.5201 97.0094 20.2906 97.7164 16.3713C97.7597 16.1441 97.803 15.9169 97.8607 15.5903C98.1204 15.7607 98.308 15.8885 98.4812 16.0305C104.686 20.9722 109.649 26.9221 113.357 33.8803C116.157 39.1486 118.105 44.7293 119.086 50.594C119.418 52.5536 119.562 54.5274 119.793 56.5013C119.822 56.7285 119.879 56.9557 119.923 57.1829C119.923 59.2135 119.923 61.2015 119.923 63.1754Z" fill="#F5F7F9"/>
<path d="M55.7108 119.562C55.4799 119.519 55.2491 119.434 55.0182 119.42C48.3809 119.15 42.0033 117.773 35.8422 115.316C30.3014 113.101 25.2369 110.119 20.6629 106.342C15.1222 101.755 10.5626 96.3446 7.07085 90.0681C4.21392 84.8992 2.19386 79.4463 1.05398 73.6668C0.534536 71.0255 0.159384 68.3559 0.101668 65.6578C0.0583812 63.7976 0.144955 61.9232 0.0728102 60.0629C0.0150944 58.5151 1.48685 56.9957 3.0596 56.8821C4.99308 56.7259 6.56583 57.7909 6.88327 59.5659C7.0997 60.7445 7.20071 61.9516 7.40271 63.1444C8.36945 68.5547 10.3174 73.5958 13.232 78.296C15.4396 81.8745 18.1523 85.0554 21.2834 87.867C23.794 90.1107 26.5211 92.0703 29.5367 93.6465C30.0129 93.8879 30.4746 94.1435 31.0373 94.3565C30.0561 90.0965 30.7776 86.2766 33.7067 82.9963C35.5391 80.9373 37.8478 79.6593 40.6037 79.1765C46.433 78.1682 51.8006 81.3349 53.8928 86.2908C55.2491 89.5142 55.1914 92.7661 53.6908 95.9186C52.219 99.0426 49.6939 101.102 46.2887 102.309C46.4763 102.422 46.534 102.479 46.5917 102.493C49.8815 103.019 53.1713 103.132 56.49 102.877C60.4724 102.564 64.3105 101.627 67.9898 100.136C71.7558 98.6024 75.2187 96.5292 78.3498 93.9305C82.0436 90.8633 85.016 87.2138 87.3535 83.0673C87.5699 82.6697 87.7575 82.2721 87.9739 81.8745C88.7242 80.4829 90.1671 79.7871 91.6966 80.0427C93.1251 80.2841 94.3659 81.5053 94.5102 82.9821C94.5679 83.5643 94.4237 84.2176 94.2216 84.7714C93.2693 87.299 92.0285 89.713 90.6144 92.0135C88.9695 94.6831 87.0793 97.1824 84.9438 99.497C82.8805 101.712 80.6007 103.686 78.1911 105.546C77.0079 106.455 76.3586 107.776 76.1422 109.267C75.8103 111.439 76.4885 113.271 78.1045 114.776C78.22 114.89 78.3498 115.004 78.4797 115.117C78.5807 115.217 78.6961 115.302 78.8837 115.458C78.422 115.643 78.0468 115.827 77.6428 115.969C74.4396 117.12 71.1642 118.085 67.7878 118.582C65.306 118.951 62.7954 119.15 60.2848 119.42C60.0106 119.448 59.722 119.519 59.4479 119.562C58.207 119.562 56.9517 119.562 55.7108 119.562Z" fill="#F5F7F9"/>
<path d="M0.071167 48.8082C0.201027 48.013 0.30203 47.3172 0.43189 46.6214C2.13451 37.6042 5.78503 29.4391 11.47 22.1828C17.4003 14.5998 24.8168 8.84872 33.705 4.97205C38.6974 2.78521 43.8919 1.33678 49.3027 0.59837C56.7625 -0.409848 64.1501 -0.0122412 71.4511 1.81959C77.4969 3.33902 83.1386 5.79566 88.4051 9.10432C89.6172 9.87114 90.2665 11.5042 89.9057 12.8532C89.4873 14.3726 88.2176 15.4518 86.6448 15.4944C86.1109 15.5086 85.5338 15.4092 85.0432 15.1962C79.8199 12.9242 74.3802 11.6178 68.6664 11.4048C59.7781 11.064 51.5392 13.1798 43.9351 17.6813C43.6033 17.8801 43.2858 18.0931 42.9684 18.2919C42.9396 18.3203 42.9107 18.3629 42.8385 18.4907C47.2249 19.7687 50.2406 22.481 51.5681 26.812C52.3905 29.4959 52.2174 32.1797 51.1063 34.7926C48.9131 39.9331 43.4734 42.9293 37.6297 41.9495C32.4641 41.0833 26.5916 35.8292 27.8757 27.7493C27.6304 28.0049 27.4573 28.1469 27.3274 28.3173C23.4461 33.1738 20.8488 38.6267 19.6224 44.6902C19.0019 47.7574 18.7134 50.8673 18.8865 53.9913C19.2761 60.8785 21.325 67.2544 25.1631 73.0481C25.8701 74.1131 26.0577 75.2349 25.596 76.4135C24.6292 78.8276 21.4549 79.3956 19.6945 77.436C18.9009 76.5555 18.2083 75.5899 17.5158 74.6101C13.8941 69.4838 11.3979 63.8747 10.0127 57.7828C9.72413 56.5332 9.43555 55.2836 9.33455 54.0197C8.97382 49.4898 4.38542 46.9764 0.489606 48.6946C0.403033 48.723 0.316459 48.7372 0.071167 48.8082Z" fill="#F5F7F9"/>
</svg>
