<svg width="229" height="69" viewBox="0 0 229 69" fill="none" xmlns="http://www.w3.org/2000/svg">
<path d="M8.87338 68.0379C6.27071 68.0379 4.17588 67.2444 2.58888 65.6574C1.00188 64.0704 0.208385 61.9755 0.208385 59.3729V8.43029C0.208385 5.82761 0.906663 3.828 2.30322 2.43144C3.69978 1.03488 5.69939 0.336604 8.30207 0.336604H40.2959C43.1525 0.336604 45.2473 0.907923 46.5804 2.05056C47.9135 3.12972 48.58 4.87542 48.58 7.28765C48.58 9.6364 47.8818 11.3504 46.4852 12.4295C45.1521 13.5087 43.089 14.0483 40.2959 14.0483H17.4432V26.4268H38.3915C41.1846 26.4268 43.2477 26.9981 44.5808 28.1408C45.9774 29.2834 46.6756 31.0291 46.6756 33.3779C46.6756 35.7266 45.9774 37.4406 44.5808 38.5197C43.2477 39.5989 41.1846 40.1385 38.3915 40.1385H17.4432V59.3729C17.4432 62.039 16.6497 64.1656 15.0627 65.7526C13.5392 67.2761 11.4761 68.0379 8.87338 68.0379ZM111.723 56.3258C112.865 58.0398 113.437 59.6585 113.437 61.182C113.437 63.2134 112.58 64.9274 110.866 66.3239C109.215 67.657 107.279 68.3235 105.057 68.3235C103.534 68.3235 102.105 67.9744 100.772 67.2761C99.4393 66.5778 98.2967 65.5304 97.3445 64.1339L84.9659 46.0421C84.0772 44.7725 83.125 43.852 82.1093 43.2807C81.1571 42.6459 80.0145 42.3285 78.6814 42.3285H72.4921V59.3729C72.4921 62.039 71.7303 64.1656 70.2068 65.7526C68.6833 67.2761 66.5885 68.0379 63.9223 68.0379C61.2562 68.0379 59.1296 67.2761 57.5426 65.7526C56.0191 64.1656 55.2573 62.039 55.2573 59.3729V8.43029C55.2573 5.82761 55.9556 3.828 57.3522 2.43144C58.7487 1.03488 60.7483 0.336604 63.351 0.336604H87.2512C95.3766 0.336604 101.471 2.11404 105.533 5.66891C109.66 9.1603 111.723 14.2387 111.723 20.9041C111.723 25.9825 110.326 30.2991 107.533 33.854C104.74 37.3454 100.804 39.6941 95.7257 40.9002C97.8206 41.2176 99.6297 41.9159 101.153 42.9951C102.74 44.0742 104.296 45.693 105.819 47.8513L111.723 56.3258ZM84.4898 29.1882C88.3621 29.1882 91.1234 28.5851 92.7739 27.379C94.4879 26.1729 95.3448 24.205 95.3448 21.4754C95.3448 18.6823 94.4879 16.6827 92.7739 15.4766C91.1234 14.207 88.3621 13.5722 84.4898 13.5722H72.3017V29.1882H84.4898ZM130.674 67.4666C128.072 67.4666 126.072 66.7683 124.676 65.3717C123.279 63.9752 122.581 61.9755 122.581 59.3729V8.43029C122.581 5.82761 123.279 3.828 124.676 2.43144C126.072 1.03488 128.072 0.336604 130.674 0.336604H163.62C166.35 0.336604 168.413 0.907923 169.81 2.05056C171.206 3.1932 171.905 4.84367 171.905 7.00199C171.905 11.5725 169.143 13.8578 163.62 13.8578H139.625V26.6173H161.716C167.239 26.6173 170 28.8708 170 33.3779C170 35.5362 169.302 37.1867 167.905 38.3293C166.509 39.4719 164.446 40.0433 161.716 40.0433H139.625V53.9453H163.62C169.143 53.9453 171.905 56.2306 171.905 60.8012C171.905 62.9595 171.206 64.61 169.81 65.7526C168.413 66.8952 166.35 67.4666 163.62 67.4666H130.674ZM187.49 67.4666C184.887 67.4666 182.888 66.7683 181.491 65.3717C180.095 63.9752 179.396 61.9755 179.396 59.3729V8.43029C179.396 5.82761 180.095 3.828 181.491 2.43144C182.888 1.03488 184.887 0.336604 187.49 0.336604H220.436C223.166 0.336604 225.229 0.907923 226.625 2.05056C228.022 3.1932 228.72 4.84367 228.72 7.00199C228.72 11.5725 225.959 13.8578 220.436 13.8578H196.441V26.6173H218.532C224.054 26.6173 226.816 28.8708 226.816 33.3779C226.816 35.5362 226.118 37.1867 224.721 38.3293C223.324 39.4719 221.261 40.0433 218.532 40.0433H196.441V53.9453H220.436C225.959 53.9453 228.72 56.2306 228.72 60.8012C228.72 62.9595 228.022 64.61 226.625 65.7526C225.229 66.8952 223.166 67.4666 220.436 67.4666H187.49Z" fill="#F6F7F9"/>
</svg>
