<svg width="139" height="116" viewBox="0 0 139 116" fill="none" xmlns="http://www.w3.org/2000/svg">
<path d="M138.157 73.5361H108.643C108.531 85.3106 106.859 97.0152 103.673 108.332C110.171 110.105 116.441 112.654 122.355 115.927C132.064 103.971 137.621 89.0636 138.157 73.5361Z" fill="#F5F7F9"/>
<path d="M71.7524 68.5059H103.72C103.595 57.1477 101.964 45.8594 98.8737 34.9482C89.9723 37.0224 80.881 38.1301 71.7524 38.2529V68.5059Z" fill="#F5F7F9"/>
<path d="M71.7524 0.798828V33.223C80.3581 33.0989 88.929 32.0686 97.328 30.1467C91.5179 13.5595 82.2848 2.32775 71.7524 0.798828Z" fill="#F5F7F9"/>
<path d="M71.7524 103.789C80.881 103.913 89.9723 105.021 98.8737 107.095C101.964 96.1838 103.595 84.8943 103.72 73.5361H71.7524V103.789Z" fill="#F5F7F9"/>
<path d="M122.355 26.115C116.441 29.3877 110.171 31.9372 103.673 33.7105C106.859 45.0269 108.531 56.7314 108.643 68.506H138.157C137.62 52.9798 132.062 38.0725 122.355 26.115Z" fill="#F5F7F9"/>
<path d="M119.029 22.2995C118.956 22.2246 118.888 22.1435 118.817 22.0662C118.428 21.656 118.024 21.2606 117.627 20.8615C117.17 20.4009 116.715 19.9355 116.244 19.4885C115.836 19.1004 115.414 18.7333 114.996 18.3464C114.519 17.9141 114.042 17.4782 113.551 17.0607C113.126 16.6935 112.69 16.3422 112.257 15.9898C111.764 15.5821 111.259 15.1768 110.752 14.7875C110.307 14.4449 109.857 14.1133 109.404 13.7818C108.889 13.4035 108.372 13.0265 107.848 12.6667C107.388 12.3499 106.92 12.0404 106.453 11.7371C105.92 11.3871 105.389 11.0444 104.847 10.7129C104.372 10.4218 103.893 10.1345 103.412 9.8557C102.862 9.53395 102.31 9.22203 101.753 8.91747C101.261 8.66572 100.769 8.39187 100.276 8.14012C99.7101 7.84784 99.1392 7.56662 98.5538 7.29031C98.061 7.05084 97.561 6.81751 97.0538 6.59032C96.4709 6.32629 95.882 6.08805 95.2942 5.8363C94.787 5.62508 94.2822 5.41631 93.7702 5.21737C93.1728 4.98404 92.5671 4.76544 91.9613 4.55176C91.4493 4.36756 90.9373 4.18458 90.418 4.01265C89.8026 3.80879 89.1873 3.62336 88.5551 3.4367C88.043 3.28319 87.5286 3.12723 87.0106 2.98723C86.8123 2.93197 86.6103 2.88899 86.4108 2.83618C93.6969 10.0645 99.1031 19.0354 102.143 28.9371C107.991 27.3627 113.655 25.1375 119.029 22.2995Z" fill="#F5F7F9"/>
<path d="M0.424561 68.506H29.9389C30.0507 56.7314 31.7225 45.0269 34.9076 33.7105C28.4112 31.9384 22.1408 29.389 16.2274 26.115C6.51829 38.0713 0.960616 52.9798 0.424561 68.506Z" fill="#F5F7F9"/>
<path d="M66.8291 73.5361H34.8617C34.9867 84.8943 36.6165 96.1838 39.7078 107.095C48.6092 105.02 57.6994 103.912 66.8291 103.789V73.5361Z" fill="#F5F7F9"/>
<path d="M66.8292 0.798828C56.2968 2.32775 47.0624 13.5595 41.2536 30.1467C49.6526 32.0698 58.2235 33.1002 66.8292 33.223V0.798828Z" fill="#F5F7F9"/>
<path d="M66.8291 38.2529C57.7006 38.1301 48.6092 37.0224 39.7078 34.9482C36.6165 45.8594 34.9867 57.1477 34.8617 68.5059H66.8291V38.2529Z" fill="#F5F7F9"/>
<path d="M52.1516 2.83374C51.9521 2.88655 51.7526 2.92953 51.5531 2.98233C51.0314 3.12479 50.517 3.28321 49.9978 3.43671C49.38 3.62092 48.767 3.80635 48.1468 4.00775C47.624 4.18091 47.1096 4.36512 46.5951 4.54809C45.993 4.76546 45.3896 4.9816 44.7935 5.21247C44.279 5.41387 43.7718 5.62264 43.2622 5.83632C42.6769 6.08807 42.0903 6.33982 41.5122 6.59034C41.005 6.81753 40.5038 7.05577 40.0014 7.29524C39.4329 7.56909 38.8668 7.84786 38.3055 8.13768C37.8127 8.39434 37.3199 8.65714 36.8283 8.92485C36.2767 9.22695 35.7298 9.53642 35.1865 9.85326C34.6937 10.1345 34.2094 10.4231 33.7346 10.7178C33.1997 11.0469 32.6709 11.3871 32.1445 11.7236C31.6709 12.033 31.201 12.345 30.7358 12.6667C30.2166 13.0241 29.7046 13.3962 29.195 13.7683C28.737 14.1035 28.2815 14.4376 27.8332 14.7753C27.3296 15.1621 26.8488 15.5649 26.3416 15.9665C25.9041 16.3238 25.463 16.6787 25.0351 17.0484C24.5423 17.4635 24.0748 17.8933 23.6 18.3231C23.1793 18.7063 22.7551 19.0784 22.344 19.475C21.8765 19.9208 21.4209 20.3838 20.9642 20.8431C20.5676 21.2434 20.1637 21.6388 19.7743 22.0502C19.7034 22.1264 19.6349 22.2099 19.5604 22.2872C24.9281 25.1216 30.5844 27.3456 36.4269 28.9199C39.4654 19.0243 44.8692 10.0583 52.1516 2.83374Z" fill="#F5F7F9"/>
<path d="M16.2274 115.927C22.1408 112.654 28.4112 110.105 34.9076 108.332C31.7225 97.0152 30.0507 85.3106 29.9389 73.5361H0.424561C0.961818 89.0623 6.51829 103.97 16.2274 115.927Z" fill="#F5F7F9"/>
</svg>
