<svg width="105" height="151" viewBox="0 0 105 151" fill="none" xmlns="http://www.w3.org/2000/svg">
<path d="M94.475 150.285L101.335 133.132C103.257 128.326 104.232 123.265 104.232 118.089V52.2898C104.232 48.7646 101.475 45.8209 98.086 45.7281C96.3592 45.6818 94.7276 46.3164 93.4929 47.5173C92.2575 48.7193 91.5773 50.33 91.5773 52.0531V97.7543H86.5113C64.1759 97.7543 46.0047 115.926 46.0047 138.261H35.8727C35.8727 124.725 41.1373 112.006 50.6967 102.446C59.0535 94.0896 69.8241 89.0149 81.445 87.8707V17.8734C81.445 14.3847 78.6068 11.5464 75.118 11.5464C71.6292 11.5464 68.791 14.3847 68.791 17.8734V78.447H58.6591V6.48011C58.6594 2.99136 55.8211 0.153076 52.3324 0.153076C48.8436 0.153076 46.0053 2.99136 46.0053 6.48011V78.4467H35.8734V17.8734C35.8734 14.3847 33.0351 11.5464 29.5464 11.5464C26.0576 11.5464 23.2194 14.3847 23.2194 17.8734V78.447H13.0875V52.0531C13.0875 50.33 12.4073 48.7193 11.1719 47.5173C9.93711 46.3164 8.30148 45.6818 6.57872 45.7281C3.18994 45.8209 0.432709 48.7646 0.432709 52.2898V150.285H94.475Z" fill="#F5F7F9"/>
</svg>
